STARTFONT 2.1
FONT -Huatian-HeiTi-Medium-R-Normal--14-140-72-72-P-120-GB2312.1980-1
SIZE 14 72 72
FONTBOUNDINGBOX 14 14 0 -2

STARTPROPERTIES 23
FOUNDRY "Huatian"
FAMILY_NAME "HeiTi"
WEIGHT_NAME "Medium"
SLANT "R"
SETWIDTH_NAME "Normal"
ADD_STYLE_NAME ""
PIXEL_SIZE 14
POINT_SIZE 140
RESOLUTION_X 72
RESOLUTION_Y 72
SPACING "P"
AVERAGE_WIDTH 120
CHARSET_REGISTRY "GB2312.1980"
CHARSET_ENCODING "1"
COPYRIGHT "Copyright of Hunan Huatian Information Industry Co.,Ltd,1999"
_TTF_FONTFILE "HeiTi.ttf"
_TTF_PSNAME "HeiTi"
WEIGHT 10
X_HEIGHT -1
QUAD_WIDTH 10
DEFAULT_CHAR 0
FONT_DESCENT 2
FONT_ASCENT 12
ENDPROPERTIES

CHARS 7443

STARTCHAR 3000
ENCODING 41377
SWIDTH 1000 0
DWIDTH 14 0
BBX 1 1 0 0
BITMAP
00
ENDCHAR

STARTCHAR 3001
ENCODING 41378
SWIDTH 1000 0
DWIDTH 14 0
BBX 3 3 2 0
BITMAP
80
60
20
ENDCHAR

STARTCHAR 3002
ENCODING 41379
SWIDTH 1000 0
DWIDTH 14 0
BBX 3 4 2 -1
BITMAP
60
A0
A0
40
ENDCHAR

STARTCHAR 02C9
ENCODING 41381
SWIDTH 1000 0
DWIDTH 14 0
BBX 5 1 5 9
BITMAP
F8
ENDCHAR

STARTCHAR 02C7
ENCODING 41382
SWIDTH 1000 0
DWIDTH 14 0
BBX 4 2 5 8
BITMAP
90
60
ENDCHAR

STARTCHAR 00A8
ENCODING 41383
SWIDTH 1000 0
DWIDTH 14 0
BBX 5 2 5 8
BITMAP
98
80
ENDCHAR

STARTCHAR 3003
ENCODING 41384
SWIDTH 1000 0
DWIDTH 14 0
BBX 4 4 5 3
BITMAP
50
50
A0
A0
ENDCHAR

STARTCHAR 3005
ENCODING 41385
SWIDTH 1000 0
DWIDTH 14 0
BBX 7 9 4 1
BITMAP
20
40
4E
B4
04
08
30
10
08
ENDCHAR

STARTCHAR 2015
ENCODING 41386
SWIDTH 1000 0
DWIDTH 14 0
BBX 8 1 3 4
BITMAP
FF
ENDCHAR

STARTCHAR FF5E
ENCODING 41387
SWIDTH 1000 0
DWIDTH 14 0
BBX 12 3 1 3
BITMAP
7C10
83A0
0040
ENDCHAR

STARTCHAR 2026
ENCODING 41389
SWIDTH 1000 0
DWIDTH 14 0
BBX 11 2 2 4
BITMAP
CC60
CC60
ENDCHAR

STARTCHAR 2018
ENCODING 41390
SWIDTH 1000 0
DWIDTH 14 0
BBX 2 4 10 6
BITMAP
80
80
C0
80
ENDCHAR

STARTCHAR 2019
ENCODING 41391
SWIDTH 1000 0
DWIDTH 14 0
BBX 2 4 3 7
BITMAP
80
C0
80
80
ENDCHAR

STARTCHAR 201C
ENCODING 41392
SWIDTH 1000 0
DWIDTH 14 0
BBX 5 4 7 6
BITMAP
90
90
D8
90
ENDCHAR

STARTCHAR 201D
ENCODING 41393
SWIDTH 1000 0
DWIDTH 14 0
BBX 4 4 3 7
BITMAP
90
D0
90
A0
ENDCHAR

STARTCHAR 3014
ENCODING 41394
SWIDTH 1000 0
DWIDTH 14 0
BBX 3 12 9 -1
BITMAP
20
40
80
80
80
80
80
80
80
80
40
20
ENDCHAR

STARTCHAR 3015
ENCODING 41395
SWIDTH 1000 0
DWIDTH 14 0
BBX 3 12 2 -1
BITMAP
80
40
20
20
20
20
20
20
20
20
40
80
ENDCHAR

STARTCHAR 3008
ENCODING 41396
SWIDTH 1000 0
DWIDTH 14 0
BBX 4 11 9 0
BITMAP
10
20
20
40
40
80
80
40
40
20
20
ENDCHAR

STARTCHAR 3009
ENCODING 41397
SWIDTH 1000 0
DWIDTH 14 0
BBX 3 10 2 0
BITMAP
80
80
40
40
20
20
40
40
80
80
ENDCHAR

STARTCHAR 300A
ENCODING 41398
SWIDTH 1000 0
DWIDTH 14 0
BBX 5 12 8 -1
BITMAP
08
30
50
60
A0
C0
C0
A0
60
50
30
28
ENDCHAR

STARTCHAR 300B
ENCODING 41399
SWIDTH 1000 0
DWIDTH 14 0
BBX 4 11 2 -1
BITMAP
A0
A0
50
50
50
50
50
60
A0
A0
40
ENDCHAR

STARTCHAR 300C
ENCODING 41400
SWIDTH 1000 0
DWIDTH 14 0
BBX 4 11 8 0
BITMAP
70
80
80
80
80
80
80
80
80
80
80
ENDCHAR

STARTCHAR 300D
ENCODING 41401
SWIDTH 1000 0
DWIDTH 14 0
BBX 4 12 2 -1
BITMAP
10
10
10
10
10
10
10
10
10
10
10
F0
ENDCHAR

STARTCHAR 300E
ENCODING 41402
SWIDTH 1000 0
DWIDTH 14 0
BBX 4 12 8 -1
BITMAP
70
B0
C0
C0
C0
C0
C0
C0
C0
C0
C0
40
ENDCHAR

STARTCHAR 300F
ENCODING 41403
SWIDTH 1000 0
DWIDTH 14 0
BBX 4 12 2 -1
BITMAP
30
30
30
30
30
30
30
30
30
30
F0
F0
ENDCHAR

STARTCHAR 3016
ENCODING 41404
SWIDTH 1000 0
DWIDTH 14 0
BBX 6 12 6 -1
BITMAP
7C
88
88
90
90
A0
A0
90
90
90
88
7C
ENDCHAR

STARTCHAR 3017
ENCODING 41405
SWIDTH 1000 0
DWIDTH 14 0
BBX 6 12 2 -1
BITMAP
FC
44
24
24
24
14
14
24
24
44
44
FC
ENDCHAR

STARTCHAR 3010
ENCODING 41406
SWIDTH 1000 0
DWIDTH 14 0
BBX 5 12 7 -1
BITMAP
F8
F0
E0
E0
E0
C0
C0
C0
E0
E0
F0
F8
ENDCHAR

STARTCHAR 3011
ENCODING 41407
SWIDTH 1000 0
DWIDTH 14 0
BBX 4 12 3 -1
BITMAP
F0
F0
70
70
30
30
30
30
70
70
F0
F0
ENDCHAR

STARTCHAR 00B1
ENCODING 41408
SWIDTH 1000 0
DWIDTH 14 0
BBX 10 10 2 -1
BITMAP
0800
0800
0800
FFC0
0800
0800
0000
0000
0000
7F80
ENDCHAR

STARTCHAR 00D7
ENCODING 41409
SWIDTH 1000 0
DWIDTH 14 0
BBX 8 8 3 1
BITMAP
81
42
24
18
18
24
42
81
ENDCHAR

STARTCHAR 00F7
ENCODING 41410
SWIDTH 1000 0
DWIDTH 14 0
BBX 8 8 3 1
BITMAP
18
00
00
00
FF
00
00
18
ENDCHAR

STARTCHAR 2236
ENCODING 41411
SWIDTH 1000 0
DWIDTH 14 0
BBX 2 8 6 1
BITMAP
C0
00
00
00
00
00
40
C0
ENDCHAR

STARTCHAR 2227
ENCODING 41412
SWIDTH 1000 0
DWIDTH 14 0
BBX 10 11 2 -1
BITMAP
0400
0C00
1200
1200
2100
2100
2080
4080
4080
8040
8000
ENDCHAR

STARTCHAR 2228
ENCODING 41413
SWIDTH 1000 0
DWIDTH 14 0
BBX 10 10 2 0
BITMAP
8000
8040
4080
4080
2100
2100
1200
1200
0C00
0400
ENDCHAR

STARTCHAR 2211
ENCODING 41414
SWIDTH 1000 0
DWIDTH 14 0
BBX 8 10 3 0
BITMAP
FF
C0
40
20
30
10
20
40
40
FF
ENDCHAR

STARTCHAR 220F
ENCODING 41415
SWIDTH 1000 0
DWIDTH 14 0
BBX 10 10 2 0
BITMAP
FFC0
4080
4080
4080
4080
4080
4080
4080
4080
6080
ENDCHAR

STARTCHAR 222A
ENCODING 41416
SWIDTH 1000 0
DWIDTH 14 0
BBX 8 9 3 0
BITMAP
81
81
81
81
81
81
81
66
18
ENDCHAR

STARTCHAR 2229
ENCODING 41417
SWIDTH 1000 0
DWIDTH 14 0
BBX 8 8 3 1
BITMAP
7E
81
81
81
81
81
81
81
ENDCHAR

STARTCHAR 2208
ENCODING 41418
SWIDTH 1000 0
DWIDTH 14 0
BBX 8 8 3 1
BITMAP
3F
40
80
80
FE
80
40
3F
ENDCHAR

STARTCHAR 2237
ENCODING 41419
SWIDTH 1000 0
DWIDTH 14 0
BBX 9 8 3 1
BITMAP
C180
8100
0000
0000
0000
0000
8100
C180
ENDCHAR

STARTCHAR 221A
ENCODING 41420
SWIDTH 1000 0
DWIDTH 14 0
BBX 6 9 5 1
BITMAP
04
04
08
08
08
10
90
50
20
ENDCHAR

STARTCHAR 22A5
ENCODING 41421
SWIDTH 1000 0
DWIDTH 14 0
BBX 10 9 2 0
BITMAP
0800
0800
0800
0800
0800
0800
0800
0800
FFC0
ENDCHAR

STARTCHAR 2225
ENCODING 41422
SWIDTH 1000 0
DWIDTH 14 0
BBX 10 10 2 0
BITMAP
0440
0880
0880
1100
1100
2200
2200
4400
4400
8800
ENDCHAR

STARTCHAR 2220
ENCODING 41423
SWIDTH 1000 0
DWIDTH 14 0
BBX 10 10 3 0
BITMAP
0040
0080
0100
0200
0400
0800
1000
6000
8000
FF80
ENDCHAR

STARTCHAR 2312
ENCODING 41424
SWIDTH 1000 0
DWIDTH 14 0
BBX 11 5 2 4
BITMAP
0C00
3380
4040
8040
0020
ENDCHAR

STARTCHAR 2299
ENCODING 41425
SWIDTH 1000 0
DWIDTH 14 0
BBX 12 11 1 -1
BITMAP
1F80
2040
4020
4020
8610
8610
4020
4020
2040
1080
0F00
ENDCHAR

STARTCHAR 222B
ENCODING 41426
SWIDTH 1000 0
DWIDTH 14 0
BBX 6 12 4 -1
BITMAP
04
1C
10
10
10
10
10
10
20
20
E0
40
ENDCHAR

STARTCHAR 222E
ENCODING 41427
SWIDTH 1000 0
DWIDTH 14 0
BBX 5 11 5 0
BITMAP
18
28
20
20
70
A8
A8
70
40
40
C0
ENDCHAR

STARTCHAR 2261
ENCODING 41428
SWIDTH 1000 0
DWIDTH 14 0
BBX 11 6 2 2
BITMAP
FFE0
0000
0000
7FC0
0000
7FC0
ENDCHAR

STARTCHAR 224C
ENCODING 41429
SWIDTH 1000 0
DWIDTH 14 0
BBX 12 9 1 0
BITMAP
20C0
4320
8410
4420
3800
7FF0
0000
0000
3FE0
ENDCHAR

STARTCHAR 2248
ENCODING 41430
SWIDTH 1000 0
DWIDTH 14 0
BBX 11 6 2 2
BITMAP
2000
DC20
03C0
7000
0C40
0380
ENDCHAR

STARTCHAR 223D
ENCODING 41431
SWIDTH 1000 0
DWIDTH 14 0
BBX 12 4 1 3
BITMAP
61E0
8210
4420
3860
ENDCHAR

STARTCHAR 221D
ENCODING 41432
SWIDTH 1000 0
DWIDTH 14 0
BBX 11 4 2 3
BITMAP
79C0
8600
8600
79E0
ENDCHAR

STARTCHAR 2260
ENCODING 41433
SWIDTH 1000 0
DWIDTH 14 0
BBX 11 10 2 0
BITMAP
0080
0100
0200
FFE0
0400
0800
FFE0
1000
2000
2000
ENDCHAR

STARTCHAR 226E
ENCODING 41434
SWIDTH 1000 0
DWIDTH 14 0
BBX 10 11 3 0
BITMAP
1000
1000
1040
1380
1C00
F000
9000
7000
1E00
11C0
1000
ENDCHAR

STARTCHAR 226F
ENCODING 41435
SWIDTH 1000 0
DWIDTH 14 0
BBX 10 10 2 0
BITMAP
0400
8400
7400
0E00
05C0
0480
0700
3C00
4400
0400
ENDCHAR

STARTCHAR 2264
ENCODING 41436
SWIDTH 1000 0
DWIDTH 14 0
BBX 10 10 2 0
BITMAP
00C0
0700
3800
C000
7000
0E00
81C0
7000
0E00
01C0
ENDCHAR

STARTCHAR 2265
ENCODING 41437
SWIDTH 1000 0
DWIDTH 14 0
BBX 11 10 2 0
BITMAP
6000
1800
0700
00E0
0380
1C00
E060
0380
1C00
6000
ENDCHAR

STARTCHAR 221E
ENCODING 41438
SWIDTH 1000 0
DWIDTH 14 0
BBX 11 4 2 3
BITMAP
73C0
8C20
8420
FBC0
ENDCHAR

STARTCHAR 2235
ENCODING 41439
SWIDTH 1000 0
DWIDTH 14 0
BBX 9 10 3 0
BITMAP
8100
C380
C100
0000
0000
0000
0000
1800
1800
0800
ENDCHAR

STARTCHAR 2234
ENCODING 41440
SWIDTH 1000 0
DWIDTH 14 0
BBX 9 10 3 0
BITMAP
0800
1800
1800
0000
0000
0000
0000
C100
C380
8100
ENDCHAR

STARTCHAR 2642
ENCODING 41441
SWIDTH 1000 0
DWIDTH 14 0
BBX 6 11 4 -1
BITMAP
10
30
68
20
20
38
44
84
84
48
30
ENDCHAR

STARTCHAR 2640
ENCODING 41442
SWIDTH 1000 0
DWIDTH 14 0
BBX 8 10 3 1
BITMAP
18
24
42
42
22
1C
10
FF
10
10
ENDCHAR

STARTCHAR 00B0
ENCODING 41443
SWIDTH 1000 0
DWIDTH 14 0
BBX 3 4 2 6
BITMAP
E0
A0
A0
40
ENDCHAR

STARTCHAR 2032
ENCODING 41444
SWIDTH 1000 0
DWIDTH 14 0
BBX 2 4 3 7
BITMAP
40
80
80
80
ENDCHAR

STARTCHAR 2033
ENCODING 41445
SWIDTH 1000 0
DWIDTH 14 0
BBX 5 4 2 7
BITMAP
28
48
50
90
ENDCHAR

STARTCHAR 2103
ENCODING 41446
SWIDTH 1000 0
DWIDTH 14 0
BBX 11 10 1 0
BITMAP
6380
AC60
4820
0800
1000
1000
0800
0800
0C20
03C0
ENDCHAR

STARTCHAR FF04
ENCODING 41447
SWIDTH 1000 0
DWIDTH 14 0
BBX 8 12 3 -1
BITMAP
08
3D
4B
49
48
38
0E
0B
09
8A
4A
3C
ENDCHAR

STARTCHAR 00A4
ENCODING 41448
SWIDTH 1000 0
DWIDTH 14 0
BBX 11 11 2 0
BITMAP
0020
9F40
6080
8040
8040
8040
8040
8040
8040
4080
BF40
ENDCHAR

STARTCHAR FFE0
ENCODING 41449
SWIDTH 1000 0
DWIDTH 14 0
BBX 8 10 3 0
BITMAP
02
1C
67
88
88
88
90
51
3E
20
ENDCHAR

STARTCHAR FFE1
ENCODING 41450
SWIDTH 1000 0
DWIDTH 14 0
BBX 10 10 2 0
BITMAP
1F00
3100
3000
1000
7F00
0800
0400
7840
8F80
7000
ENDCHAR

STARTCHAR 2030
ENCODING 41451
SWIDTH 1000 0
DWIDTH 14 0
BBX 12 12 1 -1
BITMAP
0080
E100
9200
9200
A400
6800
1220
1D50
2950
4950
0550
0220
ENDCHAR

STARTCHAR 00A7
ENCODING 41452
SWIDTH 1000 0
DWIDTH 14 0
BBX 6 12 4 -1
BITMAP
38
48
40
30
38
C8
44
24
18
18
48
78
ENDCHAR

STARTCHAR 2116
ENCODING 41453
SWIDTH 1000 0
DWIDTH 14 0
BBX 12 9 1 1
BITMAP
C700
6200
6200
5260
4A90
4A90
46A0
4660
42F0
ENDCHAR

STARTCHAR 2606
ENCODING 41454
SWIDTH 1000 0
DWIDTH 14 0
BBX 10 11 2 -1
BITMAP
0400
0C00
0C00
1200
E1C0
4080
2100
2100
5F00
2180
4000
ENDCHAR

STARTCHAR 2605
ENCODING 41455
SWIDTH 1000 0
DWIDTH 14 0
BBX 10 11 2 -1
BITMAP
0400
0C00
0C00
0E00
FFC0
3F80
1F00
3F00
3300
2180
4000
ENDCHAR

STARTCHAR 25CB
ENCODING 41456
SWIDTH 1000 0
DWIDTH 14 0
BBX 11 11 1 -1
BITMAP
1F80
2040
4020
4020
8020
8020
4020
4020
2040
1980
0600
ENDCHAR

STARTCHAR 25CF
ENCODING 41457
SWIDTH 1000 0
DWIDTH 14 0
BBX 10 10 2 0
BITMAP
3F00
7F80
7FC0
FFC0
FFC0
FFC0
FFC0
7FC0
7F80
3F00
ENDCHAR

STARTCHAR 25CE
ENCODING 41458
SWIDTH 1000 0
DWIDTH 14 0
BBX 10 11 2 -1
BITMAP
3F00
4480
9B40
A140
C0C0
C0C0
A140
9240
4C80
3300
0C00
ENDCHAR

STARTCHAR 25C7
ENCODING 41459
SWIDTH 1000 0
DWIDTH 14 0
BBX 10 10 2 0
BITMAP
0C00
1200
2100
4080
8040
8040
4080
2100
1200
0C00
ENDCHAR

STARTCHAR 25C6
ENCODING 41460
SWIDTH 1000 0
DWIDTH 14 0
BBX 10 10 2 0
BITMAP
0C00
1E00
3F00
7F80
FFC0
FFC0
7F80
3F00
1E00
0C00
ENDCHAR

STARTCHAR 25A1
ENCODING 41461
SWIDTH 1000 0
DWIDTH 14 0
BBX 10 10 2 0
BITMAP
FFC0
8040
8040
8040
8040
8040
8040
8040
8040
FFC0
ENDCHAR

STARTCHAR 25A0
ENCODING 41462
SWIDTH 1000 0
DWIDTH 14 0
BBX 10 10 2 0
BITMAP
FFC0
FFC0
FFC0
FFC0
FFC0
FFC0
FFC0
FFC0
FFC0
FFC0
ENDCHAR

STARTCHAR 25B3
ENCODING 41463
SWIDTH 1000 0
DWIDTH 14 0
BBX 12 11 1 -1
BITMAP
0200
0600
0900
0900
1080
2040
2040
4020
4020
8010
7FE0
ENDCHAR

STARTCHAR 25B2
ENCODING 41464
SWIDTH 1000 0
DWIDTH 14 0
BBX 11 10 2 0
BITMAP
0400
0C00
1E00
1E00
3F00
3F80
7F80
7FC0
FFC0
FFE0
ENDCHAR

STARTCHAR 203B
ENCODING 41465
SWIDTH 1000 0
DWIDTH 14 0
BBX 11 10 2 0
BITMAP
8C40
4C80
2100
1200
CCC0
4CC0
1200
2100
4C80
8460
ENDCHAR

STARTCHAR 2192
ENCODING 41466
SWIDTH 1000 0
DWIDTH 14 0
BBX 10 4 2 3
BITMAP
0200
01C0
FFC0
0200
ENDCHAR

STARTCHAR 2190
ENCODING 41467
SWIDTH 1000 0
DWIDTH 14 0
BBX 10 4 2 3
BITMAP
1000
6000
FFC0
1000
ENDCHAR

STARTCHAR 2191
ENCODING 41468
SWIDTH 1000 0
DWIDTH 14 0
BBX 3 11 6 -1
BITMAP
40
C0
C0
60
40
40
40
40
40
40
40
ENDCHAR

STARTCHAR 2193
ENCODING 41469
SWIDTH 1000 0
DWIDTH 14 0
BBX 3 11 6 0
BITMAP
40
40
40
40
40
40
40
60
C0
C0
40
ENDCHAR

STARTCHAR 3013
ENCODING 41470
SWIDTH 1000 0
DWIDTH 14 0
BBX 12 10 1 0
BITMAP
FFF0
FFF0
FFF0
0000
0000
0000
0000
FFF0
FFF0
FFF0
ENDCHAR

STARTCHAR 2488
ENCODING 41649
SWIDTH 1000 0
DWIDTH 14 0
BBX 8 9 6 1
BITMAP
C0
40
40
40
40
40
40
43
E2
ENDCHAR

STARTCHAR 2489
ENCODING 41650
SWIDTH 1000 0
DWIDTH 14 0
BBX 9 9 5 1
BITMAP
F800
8800
8800
0800
1000
2000
4000
8180
F900
ENDCHAR

STARTCHAR 248A
ENCODING 41651
SWIDTH 1000 0
DWIDTH 14 0
BBX 9 9 5 1
BITMAP
7000
8800
0800
1000
3000
0800
0400
8900
7180
ENDCHAR

STARTCHAR 248B
ENCODING 41652
SWIDTH 1000 0
DWIDTH 14 0
BBX 10 10 4 0
BITMAP
0800
0800
1800
2800
4800
8800
FE00
08C0
0880
0400
ENDCHAR

STARTCHAR 248C
ENCODING 41653
SWIDTH 1000 0
DWIDTH 14 0
BBX 9 9 5 1
BITMAP
F800
8000
8000
F000
8800
0800
0800
8980
5100
ENDCHAR

STARTCHAR 248D
ENCODING 41654
SWIDTH 1000 0
DWIDTH 14 0
BBX 9 10 5 0
BITMAP
7800
4800
8000
A000
D800
8800
8800
8980
5100
2000
ENDCHAR

STARTCHAR 248E
ENCODING 41655
SWIDTH 1000 0
DWIDTH 14 0
BBX 9 9 5 1
BITMAP
F800
0800
1000
2000
2000
2000
6000
6180
0100
ENDCHAR

STARTCHAR 248F
ENCODING 41656
SWIDTH 1000 0
DWIDTH 14 0
BBX 10 10 4 0
BITMAP
3800
4400
4400
6800
3800
4C00
8400
84C0
6880
1000
ENDCHAR

STARTCHAR 2490
ENCODING 41657
SWIDTH 1000 0
DWIDTH 14 0
BBX 9 9 5 1
BITMAP
7000
8800
8800
8800
8800
7800
0800
8980
7100
ENDCHAR

STARTCHAR 2491
ENCODING 41658
SWIDTH 1000 0
DWIDTH 14 0
BBX 11 9 3 1
BITMAP
8E00
9100
9100
9100
9100
9100
9100
9260
CA40
ENDCHAR

STARTCHAR 2492
ENCODING 41659
SWIDTH 1000 0
DWIDTH 14 0
BBX 11 9 3 1
BITMAP
8400
8400
8400
8400
8400
8400
8400
8460
8440
ENDCHAR

STARTCHAR 2493
ENCODING 41660
SWIDTH 1000 0
DWIDTH 14 0
BBX 11 9 3 1
BITMAP
8E00
8900
8100
8200
8200
8400
8800
9160
DF40
ENDCHAR

STARTCHAR 2494
ENCODING 41661
SWIDTH 1000 0
DWIDTH 14 0
BBX 11 9 3 1
BITMAP
8E00
8A00
8200
8200
8600
8100
8100
9160
8E40
ENDCHAR

STARTCHAR 2495
ENCODING 41662
SWIDTH 1000 0
DWIDTH 14 0
BBX 11 9 3 1
BITMAP
8000
8200
8600
8A00
8A00
9200
9F00
8260
C240
ENDCHAR

STARTCHAR 2496
ENCODING 41663
SWIDTH 1000 0
DWIDTH 14 0
BBX 11 9 2 1
BITMAP
CF00
4800
4800
4B00
4480
4080
4080
4920
6520
ENDCHAR

STARTCHAR 2497
ENCODING 41664
SWIDTH 1000 0
DWIDTH 14 0
BBX 11 10 3 0
BITMAP
8E00
8900
9000
9400
9A00
9100
9100
9260
CA40
0400
ENDCHAR

STARTCHAR 2498
ENCODING 41665
SWIDTH 1000 0
DWIDTH 14 0
BBX 11 9 3 1
BITMAP
8F00
9200
8200
8400
8400
8400
8400
8460
C440
ENDCHAR

STARTCHAR 2499
ENCODING 41666
SWIDTH 1000 0
DWIDTH 14 0
BBX 11 9 3 1
BITMAP
8E00
9100
9200
8A00
8E00
9100
9100
9160
CA40
ENDCHAR

STARTCHAR 249A
ENCODING 41667
SWIDTH 1000 0
DWIDTH 14 0
BBX 11 9 3 1
BITMAP
8E00
9100
9100
9100
8B00
8500
8100
8A40
CA60
ENDCHAR

STARTCHAR 249B
ENCODING 41668
SWIDTH 1000 0
DWIDTH 14 0
BBX 12 9 2 1
BITMAP
F700
9900
9880
2880
2880
4880
8880
9930
F520
ENDCHAR

STARTCHAR 2474
ENCODING 41669
SWIDTH 1000 0
DWIDTH 14 0
BBX 13 10 1 0
BITMAP
0220
4210
8210
8210
8208
8208
8210
8210
4210
0420
ENDCHAR

STARTCHAR 2475
ENCODING 41670
SWIDTH 1000 0
DWIDTH 14 0
BBX 13 10 1 0
BITMAP
0720
4910
8910
8110
8108
8208
8410
8810
4F10
0020
ENDCHAR

STARTCHAR 2476
ENCODING 41671
SWIDTH 1000 0
DWIDTH 14 0
BBX 13 10 1 0
BITMAP
0620
4910
8110
8110
8608
8108
8090
8910
4910
0620
ENDCHAR

STARTCHAR 2477
ENCODING 41672
SWIDTH 1000 0
DWIDTH 14 0
BBX 13 10 1 0
BITMAP
0020
4210
8610
8610
8A08
8A08
9210
8E10
4210
0020
ENDCHAR

STARTCHAR 2478
ENCODING 41673
SWIDTH 1000 0
DWIDTH 14 0
BBX 13 10 1 0
BITMAP
0720
4810
8810
8A10
8D08
8108
8110
8910
4910
0620
ENDCHAR

STARTCHAR 2479
ENCODING 41674
SWIDTH 1000 0
DWIDTH 14 0
BBX 13 10 1 0
BITMAP
0720
4910
8810
8810
8F08
8908
8910
8910
4510
0220
ENDCHAR

STARTCHAR 247A
ENCODING 41675
SWIDTH 1000 0
DWIDTH 14 0
BBX 13 10 1 0
BITMAP
0F20
4110
8210
8210
8208
8408
8410
8410
4410
0020
ENDCHAR

STARTCHAR 247B
ENCODING 41676
SWIDTH 1000 0
DWIDTH 14 0
BBX 13 11 1 0
BITMAP
0040
0620
4910
8910
8910
8608
8D08
8910
8910
4910
0620
ENDCHAR

STARTCHAR 247C
ENCODING 41677
SWIDTH 1000 0
DWIDTH 14 0
BBX 13 10 1 0
BITMAP
0620
4910
8910
8910
8908
8708
8110
8910
4A10
0420
ENDCHAR

STARTCHAR 247D
ENCODING 41678
SWIDTH 1000 0
DWIDTH 14 0
BBX 13 10 1 0
BITMAP
01A0
5250
9250
9250
9248
9248
9250
9250
4990
0020
ENDCHAR

STARTCHAR 247E
ENCODING 41679
SWIDTH 1000 0
DWIDTH 14 0
BBX 13 10 1 0
BITMAP
08A0
4890
8890
8890
8888
8888
8890
8890
4890
0020
ENDCHAR

STARTCHAR 247F
ENCODING 41680
SWIDTH 1000 0
DWIDTH 14 0
BBX 13 10 1 0
BITMAP
0BE0
4A50
8A50
8890
8888
8908
8910
8A50
4BD0
0020
ENDCHAR

STARTCHAR 2480
ENCODING 41681
SWIDTH 1000 0
DWIDTH 14 0
BBX 13 10 1 0
BITMAP
0BA0
4A50
8850
8890
8888
8848
8850
8A50
4A90
0120
ENDCHAR

STARTCHAR 2481
ENCODING 41682
SWIDTH 1000 0
DWIDTH 14 0
BBX 13 10 1 0
BITMAP
08A0
4890
8890
8990
8A88
8A88
8BD0
8890
4890
0020
ENDCHAR

STARTCHAR 2482
ENCODING 41683
SWIDTH 1000 0
DWIDTH 14 0
BBX 13 10 1 0
BITMAP
09A0
4A10
8A10
8A10
89C8
8848
8850
8A50
4A90
0120
ENDCHAR

STARTCHAR 2483
ENCODING 41684
SWIDTH 1000 0
DWIDTH 14 0
BBX 13 10 1 0
BITMAP
09A0
4A50
8A10
8A10
8B88
8A48
8A50
8A50
4A90
0120
ENDCHAR

STARTCHAR 2484
ENCODING 41685
SWIDTH 1000 0
DWIDTH 14 0
BBX 13 10 1 0
BITMAP
0BE0
4A90
8890
8890
8908
8908
8910
8910
4910
0020
ENDCHAR

STARTCHAR 2485
ENCODING 41686
SWIDTH 1000 0
DWIDTH 14 0
BBX 13 10 1 0
BITMAP
0BA0
4A90
8A50
8A90
8988
8A48
8A50
8A50
4A90
0120
ENDCHAR

STARTCHAR 2486
ENCODING 41687
SWIDTH 1000 0
DWIDTH 14 0
BBX 13 10 1 0
BITMAP
09A0
4A50
8A50
8A50
8A48
89C8
8850
8A50
4A90
0120
ENDCHAR

STARTCHAR 2487
ENCODING 41688
SWIDTH 1000 0
DWIDTH 14 0
BBX 13 10 1 0
BITMAP
1DA0
6690
8650
8A50
8A48
9248
9250
A690
5D90
0020
ENDCHAR

STARTCHAR 2460
ENCODING 41689
SWIDTH 1000 0
DWIDTH 14 0
BBX 14 13 0 -2
BITMAP
0FE0
3010
4108
4308
8104
8104
8104
8104
4108
4308
2010
1820
07C0
ENDCHAR

STARTCHAR 2461
ENCODING 41690
SWIDTH 1000 0
DWIDTH 14 0
BBX 14 13 0 -2
BITMAP
0FE0
3010
4788
4888
8C44
8084
8104
8204
4408
4FC8
2010
1820
07C0
ENDCHAR

STARTCHAR 2462
ENCODING 41691
SWIDTH 1000 0
DWIDTH 14 0
BBX 14 13 0 -2
BITMAP
0FE0
3010
4388
4C48
8044
8084
81C4
8844
4848
4788
2010
1820
07C0
ENDCHAR

STARTCHAR 2463
ENCODING 41692
SWIDTH 1000 0
DWIDTH 14 0
BBX 14 13 0 -2
BITMAP
0FE0
3010
4108
4308
8504
8504
8904
9FC4
4108
4188
2010
1820
07C0
ENDCHAR

STARTCHAR 2464
ENCODING 41693
SWIDTH 1000 0
DWIDTH 14 0
BBX 14 13 0 -2
BITMAP
0FE0
3010
4788
4808
8904
86C4
8044
8844
4848
4788
2010
1820
07C0
ENDCHAR

STARTCHAR 2465
ENCODING 41694
SWIDTH 1000 0
DWIDTH 14 0
BBX 14 13 0 -2
BITMAP
0FE0
3010
4388
4448
8804
8F84
8844
8844
4848
4688
2110
1820
07C0
ENDCHAR

STARTCHAR 2466
ENCODING 41695
SWIDTH 1000 0
DWIDTH 14 0
BBX 14 13 0 -2
BITMAP
0FE0
3010
4FC8
4848
8084
8104
8104
8104
4108
4008
2010
1820
07C0
ENDCHAR

STARTCHAR 2467
ENCODING 41696
SWIDTH 1000 0
DWIDTH 14 0
BBX 14 13 0 -2
BITMAP
0FE0
3010
4388
4C88
8844
8484
8784
8844
4848
4488
2310
1820
07C0
ENDCHAR

STARTCHAR 2468
ENCODING 41697
SWIDTH 1000 0
DWIDTH 14 0
BBX 14 13 0 -2
BITMAP
0FE0
3010
4788
4848
8844
8844
84C4
8344
4C88
4588
2210
1820
07C0
ENDCHAR

STARTCHAR 2469
ENCODING 41698
SWIDTH 1000 0
DWIDTH 14 0
BBX 14 13 0 -2
BITMAP
0FE0
3010
44C8
4528
8524
8524
8524
8524
4528
4CC8
2010
1820
07C0
ENDCHAR

STARTCHAR 3220
ENCODING 41701
SWIDTH 1000 0
DWIDTH 14 0
BBX 13 10 1 0
BITMAP
0020
4010
8010
8010
9FC8
8008
8010
8010
4010
0020
ENDCHAR

STARTCHAR 3221
ENCODING 41702
SWIDTH 1000 0
DWIDTH 14 0
BBX 13 10 1 0
BITMAP
0020
4010
8F90
8010
8008
8008
8010
8050
5F90
0020
ENDCHAR

STARTCHAR 3222
ENCODING 41703
SWIDTH 1000 0
DWIDTH 14 0
BBX 13 10 1 0
BITMAP
4020
4090
8F10
8010
8008
8708
8010
8010
7FD0
0020
ENDCHAR

STARTCHAR 3223
ENCODING 41704
SWIDTH 1000 0
DWIDTH 14 0
BBX 13 10 1 0
BITMAP
0020
5FD0
A650
A650
A648
AAC8
A950
B050
5FD0
0020
ENDCHAR

STARTCHAR 3224
ENCODING 41705
SWIDTH 1000 0
DWIDTH 14 0
BBX 13 10 1 0
BITMAP
0020
5FD0
8410
8410
8F08
8508
8510
8510
4950
16A0
ENDCHAR

STARTCHAR 3225
ENCODING 41706
SWIDTH 1000 0
DWIDTH 14 0
BBX 13 10 1 0
BITMAP
0020
4210
8210
BDD0
8008
8108
8890
9050
4010
0020
ENDCHAR

STARTCHAR 3226
ENCODING 41707
SWIDTH 1000 0
DWIDTH 14 0
BBX 13 10 1 0
BITMAP
0420
4410
8410
8490
8F08
9408
8410
8450
43D0
0020
ENDCHAR

STARTCHAR 3227
ENCODING 41708
SWIDTH 1000 0
DWIDTH 14 0
BBX 13 10 1 0
BITMAP
0020
4010
8610
8610
8908
8908
8890
9090
4070
0020
ENDCHAR

STARTCHAR 3228
ENCODING 41709
SWIDTH 1000 0
DWIDTH 14 0
BBX 13 10 1 0
BITMAP
0020
4410
8410
8F10
8508
8508
8910
8950
51D0
0020
ENDCHAR

STARTCHAR 3229
ENCODING 41710
SWIDTH 1000 0
DWIDTH 14 0
BBX 13 10 1 0
BITMAP
0020
4210
8210
8210
9FC8
8208
8210
8210
4210
0020
ENDCHAR

STARTCHAR 2160
ENCODING 41713
SWIDTH 1000 0
DWIDTH 14 0
BBX 2 11 6 -1
BITMAP
C0
40
40
40
40
40
40
40
40
40
80
ENDCHAR

STARTCHAR 2161
ENCODING 41714
SWIDTH 1000 0
DWIDTH 14 0
BBX 6 11 4 -1
BITMAP
C4
44
44
44
44
44
44
44
44
44
80
ENDCHAR

STARTCHAR 2162
ENCODING 41715
SWIDTH 1000 0
DWIDTH 14 0
BBX 11 11 2 -1
BITMAP
CC60
8440
8440
8440
8440
8440
8440
8440
8440
8440
4820
ENDCHAR

STARTCHAR 2163
ENCODING 41716
SWIDTH 1000 0
DWIDTH 14 0
BBX 10 11 2 -1
BITMAP
4840
4840
4C40
4480
4480
4480
4280
4300
4300
4300
8000
ENDCHAR

STARTCHAR 2164
ENCODING 41717
SWIDTH 1000 0
DWIDTH 14 0
BBX 8 10 3 0
BITMAP
C1
42
42
22
24
24
14
18
18
08
ENDCHAR

STARTCHAR 2165
ENCODING 41718
SWIDTH 1000 0
DWIDTH 14 0
BBX 10 11 2 -1
BITMAP
8440
8440
4440
4440
4840
4840
2840
2840
3040
1040
0080
ENDCHAR

STARTCHAR 2166
ENCODING 41719
SWIDTH 1000 0
DWIDTH 14 0
BBX 11 10 2 0
BITMAP
8920
8920
8920
4920
5120
5120
5120
5120
3120
2120
ENDCHAR

STARTCHAR 2167
ENCODING 41720
SWIDTH 1000 0
DWIDTH 14 0
BBX 11 10 2 0
BITMAP
8AA0
92A0
92A0
92A0
92A0
52A0
62A0
62A0
62A0
62A0
ENDCHAR

STARTCHAR 2168
ENCODING 41721
SWIDTH 1000 0
DWIDTH 14 0
BBX 10 11 2 -1
BITMAP
C840
4480
4480
4300
4300
4300
4500
4480
48C0
4840
8000
ENDCHAR

STARTCHAR 2169
ENCODING 41722
SWIDTH 1000 0
DWIDTH 14 0
BBX 7 11 4 -1
BITMAP
82
44
48
30
30
10
78
48
84
84
02
ENDCHAR

STARTCHAR 216A
ENCODING 41723
SWIDTH 1000 0
DWIDTH 14 0
BBX 10 10 2 0
BITMAP
C240
4440
2840
2840
1040
1040
2840
4C40
4440
8240
ENDCHAR

STARTCHAR 216B
ENCODING 41724
SWIDTH 1000 0
DWIDTH 14 0
BBX 11 10 2 0
BITMAP
8520
C920
5120
7120
2120
3120
5120
5920
8920
0D20
ENDCHAR

STARTCHAR FF01
ENCODING 41889
SWIDTH 1000 0
DWIDTH 14 0
BBX 1 9 4 1
BITMAP
80
80
80
80
80
80
80
00
80
ENDCHAR

STARTCHAR FF02
ENCODING 41890
SWIDTH 1000 0
DWIDTH 14 0
BBX 4 2 5 7
BITMAP
D0
90
ENDCHAR

STARTCHAR FF03
ENCODING 41891
SWIDTH 1000 0
DWIDTH 14 0
BBX 8 9 3 1
BITMAP
22
22
22
7E
42
44
FF
44
44
ENDCHAR

STARTCHAR FFE5
ENCODING 41892
SWIDTH 1000 0
DWIDTH 14 0
BBX 12 10 1 0
BITMAP
F8F0
1080
0880
0D00
0600
3F80
0600
0600
0600
0600
ENDCHAR

STARTCHAR FF05
ENCODING 41893
SWIDTH 1000 0
DWIDTH 14 0
BBX 10 10 2 0
BITMAP
6040
9080
9100
9200
6400
0980
1240
2240
4240
0180
ENDCHAR

STARTCHAR FF06
ENCODING 41894
SWIDTH 1000 0
DWIDTH 14 0
BBX 10 10 2 0
BITMAP
3E00
2200
2200
1400
1800
6880
8900
8500
C240
7D80
ENDCHAR

STARTCHAR FF07
ENCODING 41895
SWIDTH 1000 0
DWIDTH 14 0
BBX 2 4 3 7
BITMAP
40
80
80
80
ENDCHAR

STARTCHAR FF08
ENCODING 41896
SWIDTH 1000 0
DWIDTH 14 0
BBX 4 10 8 -1
BITMAP
60
40
80
80
80
80
40
40
20
10
ENDCHAR

STARTCHAR FF09
ENCODING 41897
SWIDTH 1000 0
DWIDTH 14 0
BBX 3 10 3 0
BITMAP
80
40
20
20
20
20
20
20
40
80
ENDCHAR

STARTCHAR FF0A
ENCODING 41898
SWIDTH 1000 0
DWIDTH 14 0
BBX 8 7 3 2
BITMAP
08
08
C9
76
08
14
26
ENDCHAR

STARTCHAR FF0B
ENCODING 41899
SWIDTH 1000 0
DWIDTH 14 0
BBX 8 10 3 0
BITMAP
08
08
08
08
08
FF
08
08
08
08
ENDCHAR

STARTCHAR FF0C
ENCODING 41900
SWIDTH 1000 0
DWIDTH 14 0
BBX 2 3 2 0
BITMAP
C0
40
40
ENDCHAR

STARTCHAR FF0D
ENCODING 41901
SWIDTH 1000 0
DWIDTH 14 0
BBX 10 1 2 5
BITMAP
FFC0
ENDCHAR

STARTCHAR FF0E
ENCODING 41902
SWIDTH 1000 0
DWIDTH 14 0
BBX 2 2 2 0
BITMAP
C0
C0
ENDCHAR

STARTCHAR FF0F
ENCODING 41903
SWIDTH 1000 0
DWIDTH 14 0
BBX 6 12 4 -1
BITMAP
04
08
08
08
10
10
20
20
40
40
80
80
ENDCHAR

STARTCHAR FF10
ENCODING 41904
SWIDTH 1000 0
DWIDTH 14 0
BBX 5 10 5 0
BITMAP
60
90
90
88
88
88
90
90
90
60
ENDCHAR

STARTCHAR FF11
ENCODING 41905
SWIDTH 1000 0
DWIDTH 14 0
BBX 3 9 5 0
BITMAP
E0
20
20
20
20
20
20
20
40
ENDCHAR

STARTCHAR FF12
ENCODING 41906
SWIDTH 1000 0
DWIDTH 14 0
BBX 6 10 4 0
BITMAP
30
4C
44
04
08
10
20
40
84
78
ENDCHAR

STARTCHAR FF13
ENCODING 41907
SWIDTH 1000 0
DWIDTH 14 0
BBX 6 10 4 0
BITMAP
30
48
48
08
30
08
04
C4
48
30
ENDCHAR

STARTCHAR FF14
ENCODING 41908
SWIDTH 1000 0
DWIDTH 14 0
BBX 5 10 4 0
BITMAP
08
18
28
28
48
88
88
78
08
10
ENDCHAR

STARTCHAR FF15
ENCODING 41909
SWIDTH 1000 0
DWIDTH 14 0
BBX 5 10 5 0
BITMAP
F8
80
80
80
F0
08
08
88
90
60
ENDCHAR

STARTCHAR FF16
ENCODING 41910
SWIDTH 1000 0
DWIDTH 14 0
BBX 6 9 4 0
BITMAP
7C
40
40
78
C4
C4
44
48
30
ENDCHAR

STARTCHAR FF17
ENCODING 41911
SWIDTH 1000 0
DWIDTH 14 0
BBX 6 8 4 1
BITMAP
FC
88
10
10
20
20
20
20
ENDCHAR

STARTCHAR FF18
ENCODING 41912
SWIDTH 1000 0
DWIDTH 14 0
BBX 6 10 4 0
BITMAP
30
48
44
48
30
48
84
84
48
30
ENDCHAR

STARTCHAR FF19
ENCODING 41913
SWIDTH 1000 0
DWIDTH 14 0
BBX 6 10 4 0
BITMAP
30
48
84
84
44
3C
04
44
48
30
ENDCHAR

STARTCHAR FF1A
ENCODING 41914
SWIDTH 1000 0
DWIDTH 14 0
BBX 2 5 2 0
BITMAP
C0
C0
00
80
C0
ENDCHAR

STARTCHAR FF1B
ENCODING 41915
SWIDTH 1000 0
DWIDTH 14 0
BBX 2 6 2 -1
BITMAP
C0
C0
00
80
C0
40
ENDCHAR

STARTCHAR FF1C
ENCODING 41916
SWIDTH 1000 0
DWIDTH 14 0
BBX 9 8 3 1
BITMAP
0180
0600
3800
C000
8000
7000
0C00
0380
ENDCHAR

STARTCHAR FF1D
ENCODING 41917
SWIDTH 1000 0
DWIDTH 14 0
BBX 10 4 2 3
BITMAP
FFC0
0000
0000
FFC0
ENDCHAR

STARTCHAR FF1E
ENCODING 41918
SWIDTH 1000 0
DWIDTH 14 0
BBX 9 8 3 1
BITMAP
8000
7000
0C00
0380
0180
0600
3800
C000
ENDCHAR

STARTCHAR FF1F
ENCODING 41919
SWIDTH 1000 0
DWIDTH 14 0
BBX 5 9 2 1
BITMAP
70
88
88
10
20
20
20
20
20
ENDCHAR

STARTCHAR FF20
ENCODING 41920
SWIDTH 1000 0
DWIDTH 14 0
BBX 12 12 1 -1
BITMAP
1F80
2060
4020
4410
8B10
9110
9120
9220
4E40
4180
2000
1FC0
ENDCHAR

STARTCHAR FF21
ENCODING 41921
SWIDTH 1000 0
DWIDTH 14 0
BBX 8 8 3 1
BITMAP
08
18
14
24
24
5A
42
83
ENDCHAR

STARTCHAR FF22
ENCODING 41922
SWIDTH 1000 0
DWIDTH 14 0
BBX 8 10 3 0
BITMAP
FC
23
21
23
3C
23
21
21
23
5C
ENDCHAR

STARTCHAR FF23
ENCODING 41923
SWIDTH 1000 0
DWIDTH 14 0
BBX 8 10 3 0
BITMAP
1D
23
41
C0
80
80
C0
41
22
1C
ENDCHAR

STARTCHAR FF24
ENCODING 41924
SWIDTH 1000 0
DWIDTH 14 0
BBX 8 10 3 0
BITMAP
F8
26
21
21
21
21
21
22
24
58
ENDCHAR

STARTCHAR FF25
ENCODING 41925
SWIDTH 1000 0
DWIDTH 14 0
BBX 8 10 3 0
BITMAP
FF
21
20
22
3E
22
20
20
21
5E
ENDCHAR

STARTCHAR FF26
ENCODING 41926
SWIDTH 1000 0
DWIDTH 14 0
BBX 8 10 3 0
BITMAP
FF
21
20
22
3E
22
20
20
20
40
ENDCHAR

STARTCHAR FF27
ENCODING 41927
SWIDTH 1000 0
DWIDTH 14 0
BBX 8 10 3 0
BITMAP
3C
42
80
80
80
83
82
C2
62
1C
ENDCHAR

STARTCHAR FF28
ENCODING 41928
SWIDTH 1000 0
DWIDTH 14 0
BBX 10 10 2 0
BITMAP
F3C0
2080
2080
2080
2080
3F80
2080
2080
2080
4100
ENDCHAR

STARTCHAR FF29
ENCODING 41929
SWIDTH 1000 0
DWIDTH 14 0
BBX 4 10 5 0
BITMAP
F0
20
20
20
20
20
20
20
20
40
ENDCHAR

STARTCHAR FF2A
ENCODING 41930
SWIDTH 1000 0
DWIDTH 14 0
BBX 7 10 3 0
BITMAP
3E
08
08
08
08
08
08
88
90
60
ENDCHAR

STARTCHAR FF2B
ENCODING 41931
SWIDTH 1000 0
DWIDTH 14 0
BBX 8 10 3 0
BITMAP
F7
44
48
50
50
68
44
44
42
21
ENDCHAR

STARTCHAR FF2C
ENCODING 41932
SWIDTH 1000 0
DWIDTH 14 0
BBX 8 10 3 0
BITMAP
F0
20
20
20
20
20
20
20
21
5E
ENDCHAR

STARTCHAR FF2D
ENCODING 41933
SWIDTH 1000 0
DWIDTH 14 0
BBX 11 10 2 0
BITMAP
C0E0
4080
6080
6180
5280
5280
4C80
4C80
4080
0040
ENDCHAR

STARTCHAR FF2E
ENCODING 41934
SWIDTH 1000 0
DWIDTH 14 0
BBX 10 10 2 0
BITMAP
E1C0
2080
5080
4880
4480
4280
4380
4180
0080
2000
ENDCHAR

STARTCHAR FF2F
ENCODING 41935
SWIDTH 1000 0
DWIDTH 14 0
BBX 8 10 3 0
BITMAP
1C
62
41
81
81
81
C1
42
26
18
ENDCHAR

STARTCHAR FF30
ENCODING 41936
SWIDTH 1000 0
DWIDTH 14 0
BBX 8 10 3 0
BITMAP
FE
21
21
21
22
3C
20
20
20
40
ENDCHAR

STARTCHAR FF31
ENCODING 41937
SWIDTH 1000 0
DWIDTH 14 0
BBX 8 11 3 -1
BITMAP
1C
62
41
81
81
81
49
76
26
1A
01
ENDCHAR

STARTCHAR FF32
ENCODING 41938
SWIDTH 1000 0
DWIDTH 14 0
BBX 9 10 3 0
BITMAP
FE00
2100
2100
2100
2600
3A00
2200
2200
2180
4000
ENDCHAR

STARTCHAR FF33
ENCODING 41939
SWIDTH 1000 0
DWIDTH 14 0
BBX 8 10 3 0
BITMAP
38
46
40
40
38
06
03
82
42
3C
ENDCHAR

STARTCHAR FF34
ENCODING 41940
SWIDTH 1000 0
DWIDTH 14 0
BBX 8 10 3 0
BITMAP
7F
88
08
08
08
08
08
08
08
10
ENDCHAR

STARTCHAR FF35
ENCODING 41941
SWIDTH 1000 0
DWIDTH 14 0
BBX 10 10 2 0
BITMAP
F1C0
2080
2080
2080
2080
2080
2080
2100
2100
1E00
ENDCHAR

STARTCHAR FF36
ENCODING 41942
SWIDTH 1000 0
DWIDTH 14 0
BBX 10 9 2 1
BITMAP
F1C0
2080
2100
1100
1200
0A00
0C00
0C00
0400
ENDCHAR

STARTCHAR FF37
ENCODING 41943
SWIDTH 1000 0
DWIDTH 14 0
BBX 11 9 2 1
BITMAP
CEE0
4440
4480
4C80
2A80
3300
3300
1100
0100
ENDCHAR

STARTCHAR FF38
ENCODING 41944
SWIDTH 1000 0
DWIDTH 14 0
BBX 9 10 3 0
BITMAP
F780
2200
2400
1800
1800
1800
2400
4600
4200
0100
ENDCHAR

STARTCHAR FF39
ENCODING 41945
SWIDTH 1000 0
DWIDTH 14 0
BBX 9 10 3 0
BITMAP
E380
4200
2200
3400
1800
0800
0800
0800
0800
1000
ENDCHAR

STARTCHAR FF3A
ENCODING 41946
SWIDTH 1000 0
DWIDTH 14 0
BBX 7 10 4 0
BITMAP
FE
84
08
18
10
20
40
C0
82
7C
ENDCHAR

STARTCHAR FF3B
ENCODING 41947
SWIDTH 1000 0
DWIDTH 14 0
BBX 3 13 8 -2
BITMAP
E0
80
80
80
80
80
80
80
80
80
80
80
60
ENDCHAR

STARTCHAR FF3C
ENCODING 41948
SWIDTH 1000 0
DWIDTH 14 0
BBX 7 11 4 -1
BITMAP
80
80
40
20
20
10
10
08
04
04
02
ENDCHAR

STARTCHAR FF3D
ENCODING 41949
SWIDTH 1000 0
DWIDTH 14 0
BBX 3 13 3 -2
BITMAP
E0
20
20
20
20
20
20
20
20
20
20
00
E0
ENDCHAR

STARTCHAR FF3E
ENCODING 41950
SWIDTH 1000 0
DWIDTH 14 0
BBX 3 2 5 8
BITMAP
60
80
ENDCHAR

STARTCHAR FF3F
ENCODING 41951
SWIDTH 1000 0
DWIDTH 14 0
BBX 14 1 0 -2
BITMAP
FFFC
ENDCHAR

STARTCHAR FF40
ENCODING 41952
SWIDTH 1000 0
DWIDTH 14 0
BBX 2 5 10 6
BITMAP
80
80
80
80
40
ENDCHAR

STARTCHAR FF41
ENCODING 41953
SWIDTH 1000 0
DWIDTH 14 0
BBX 5 7 4 0
BITMAP
78
48
08
78
88
88
78
ENDCHAR

STARTCHAR FF42
ENCODING 41954
SWIDTH 1000 0
DWIDTH 14 0
BBX 5 10 5 0
BITMAP
80
80
80
80
F0
88
88
88
90
60
ENDCHAR

STARTCHAR FF43
ENCODING 41955
SWIDTH 1000 0
DWIDTH 14 0
BBX 5 7 5 0
BITMAP
70
98
80
80
88
90
60
ENDCHAR

STARTCHAR FF44
ENCODING 41956
SWIDTH 1000 0
DWIDTH 14 0
BBX 5 10 4 0
BITMAP
08
08
08
08
78
88
88
88
48
70
ENDCHAR

STARTCHAR FF45
ENCODING 41957
SWIDTH 1000 0
DWIDTH 14 0
BBX 5 7 5 0
BITMAP
70
88
88
F0
80
C0
30
ENDCHAR

STARTCHAR FF46
ENCODING 41958
SWIDTH 1000 0
DWIDTH 14 0
BBX 5 9 5 1
BITMAP
38
48
40
F0
40
40
40
40
40
ENDCHAR

STARTCHAR FF47
ENCODING 41959
SWIDTH 1000 0
DWIDTH 14 0
BBX 6 9 4 -2
BITMAP
7C
48
48
70
40
7C
84
48
30
ENDCHAR

STARTCHAR FF48
ENCODING 41960
SWIDTH 1000 0
DWIDTH 14 0
BBX 5 9 5 1
BITMAP
80
80
80
B0
C8
88
88
88
88
ENDCHAR

STARTCHAR FF49
ENCODING 41961
SWIDTH 1000 0
DWIDTH 14 0
BBX 2 9 6 1
BITMAP
C0
40
00
C0
40
40
40
40
40
ENDCHAR

STARTCHAR FF4A
ENCODING 41962
SWIDTH 1000 0
DWIDTH 14 0
BBX 4 12 4 -2
BITMAP
30
00
10
30
10
10
10
10
10
10
A0
40
ENDCHAR

STARTCHAR FF4B
ENCODING 41963
SWIDTH 1000 0
DWIDTH 14 0
BBX 6 9 4 1
BITMAP
C0
40
40
4C
50
50
70
48
4C
ENDCHAR

STARTCHAR FF4C
ENCODING 41964
SWIDTH 1000 0
DWIDTH 14 0
BBX 2 9 6 1
BITMAP
C0
40
40
40
40
40
40
40
40
ENDCHAR

STARTCHAR FF4D
ENCODING 41965
SWIDTH 1000 0
DWIDTH 14 0
BBX 10 6 2 1
BITMAP
D980
6640
4440
4440
4440
4440
ENDCHAR

STARTCHAR FF4E
ENCODING 41966
SWIDTH 1000 0
DWIDTH 14 0
BBX 6 6 4 1
BITMAP
D8
64
44
44
44
44
ENDCHAR

STARTCHAR FF4F
ENCODING 41967
SWIDTH 1000 0
DWIDTH 14 0
BBX 6 7 4 0
BITMAP
78
44
84
84
84
44
38
ENDCHAR

STARTCHAR FF50
ENCODING 41968
SWIDTH 1000 0
DWIDTH 14 0
BBX 5 8 5 -1
BITMAP
F0
88
88
88
88
90
E0
80
ENDCHAR

STARTCHAR FF51
ENCODING 41969
SWIDTH 1000 0
DWIDTH 14 0
BBX 5 8 5 -1
BITMAP
F8
88
88
88
88
98
68
08
ENDCHAR

STARTCHAR FF52
ENCODING 41970
SWIDTH 1000 0
DWIDTH 14 0
BBX 4 6 6 1
BITMAP
B0
D0
80
80
80
80
ENDCHAR

STARTCHAR FF53
ENCODING 41971
SWIDTH 1000 0
DWIDTH 14 0
BBX 4 7 5 0
BITMAP
60
90
C0
20
90
90
60
ENDCHAR

STARTCHAR FF54
ENCODING 41972
SWIDTH 1000 0
DWIDTH 14 0
BBX 4 9 5 0
BITMAP
40
40
F0
40
40
40
40
40
20
ENDCHAR

STARTCHAR FF55
ENCODING 41973
SWIDTH 1000 0
DWIDTH 14 0
BBX 7 7 4 0
BITMAP
CC
44
44
44
44
4C
36
ENDCHAR

STARTCHAR FF56
ENCODING 41974
SWIDTH 1000 0
DWIDTH 14 0
BBX 6 7 4 0
BITMAP
EC
48
48
28
30
10
10
ENDCHAR

STARTCHAR FF57
ENCODING 41975
SWIDTH 1000 0
DWIDTH 14 0
BBX 9 7 3 0
BITMAP
D980
8900
4900
5A00
5600
2400
2000
ENDCHAR

STARTCHAR FF58
ENCODING 41976
SWIDTH 1000 0
DWIDTH 14 0
BBX 6 7 4 0
BITMAP
EC
28
30
10
38
48
04
ENDCHAR

STARTCHAR FF59
ENCODING 41977
SWIDTH 1000 0
DWIDTH 14 0
BBX 6 8 4 -1
BITMAP
EC
48
48
30
30
10
20
E0
ENDCHAR

STARTCHAR FF5A
ENCODING 41978
SWIDTH 1000 0
DWIDTH 14 0
BBX 5 7 5 0
BITMAP
F8
90
20
60
40
88
70
ENDCHAR

STARTCHAR FF5B
ENCODING 41979
SWIDTH 1000 0
DWIDTH 14 0
BBX 3 12 8 -1
BITMAP
20
40
40
40
40
80
80
40
40
40
40
20
ENDCHAR

STARTCHAR FF5C
ENCODING 41980
SWIDTH 1000 0
DWIDTH 14 0
BBX 1 12 7 -1
BITMAP
80
80
80
80
80
80
80
80
80
80
80
80
ENDCHAR

STARTCHAR FF5D
ENCODING 41981
SWIDTH 1000 0
DWIDTH 14 0
BBX 3 12 3 -1
BITMAP
C0
40
40
40
20
20
20
40
40
40
40
80
ENDCHAR

STARTCHAR FFE3
ENCODING 41982
SWIDTH 1000 0
DWIDTH 14 0
BBX 14 1 0 11
BITMAP
FFFC
ENDCHAR

STARTCHAR 3041
ENCODING 42145
SWIDTH 1000 0
DWIDTH 14 0
BBX 6 8 4 3
BITMAP
20
20
70
50
3C
E4
A4
C4
ENDCHAR

STARTCHAR 3042
ENCODING 42146
SWIDTH 1000 0
DWIDTH 14 0
BBX 8 10 3 1
BITMAP
10
10
1C
20
28
3E
71
91
B1
42
ENDCHAR

STARTCHAR 3043
ENCODING 42147
SWIDTH 1000 0
DWIDTH 14 0
BBX 6 6 4 2
BITMAP
80
8C
84
A0
C0
40
ENDCHAR

STARTCHAR 3044
ENCODING 42148
SWIDTH 1000 0
DWIDTH 14 0
BBX 8 7 3 2
BITMAP
40
86
81
81
90
60
20
ENDCHAR

STARTCHAR 3045
ENCODING 42149
SWIDTH 1000 0
DWIDTH 14 0
BBX 4 8 5 1
BITMAP
20
00
70
90
10
10
20
40
ENDCHAR

STARTCHAR 3046
ENCODING 42150
SWIDTH 1000 0
DWIDTH 14 0
BBX 5 9 5 1
BITMAP
60
40
30
50
88
10
10
10
20
ENDCHAR

STARTCHAR 3047
ENCODING 42151
SWIDTH 1000 0
DWIDTH 14 0
BBX 5 7 5 2
BITMAP
60
00
60
40
40
A0
38
ENDCHAR

STARTCHAR 3048
ENCODING 42152
SWIDTH 1000 0
DWIDTH 14 0
BBX 6 9 4 1
BITMAP
20
20
10
70
20
20
50
90
8C
ENDCHAR

STARTCHAR 3049
ENCODING 42153
SWIDTH 1000 0
DWIDTH 14 0
BBX 7 7 4 2
BITMAP
40
46
E2
7C
44
C4
48
ENDCHAR

STARTCHAR 304A
ENCODING 42154
SWIDTH 1000 0
DWIDTH 14 0
BBX 9 8 3 2
BITMAP
2000
2000
3180
6100
3F00
2100
6100
EE00
ENDCHAR

STARTCHAR 304B
ENCODING 42155
SWIDTH 1000 0
DWIDTH 14 0
BBX 8 8 4 2
BITMAP
20
20
20
38
C9
91
90
B0
ENDCHAR

STARTCHAR 304C
ENCODING 42156
SWIDTH 1000 0
DWIDTH 14 0
BBX 9 8 3 2
BITMAP
1180
1100
2A00
F900
4880
4800
8800
9000
ENDCHAR

STARTCHAR 304D
ENCODING 42157
SWIDTH 1000 0
DWIDTH 14 0
BBX 6 9 4 1
BITMAP
40
38
D0
18
E8
3C
C0
80
7C
ENDCHAR

STARTCHAR 304E
ENCODING 42158
SWIDTH 1000 0
DWIDTH 14 0
BBX 8 10 3 0
BITMAP
01
22
F0
14
F8
04
78
80
40
38
ENDCHAR

STARTCHAR 304F
ENCODING 42159
SWIDTH 1000 0
DWIDTH 14 0
BBX 5 9 4 1
BITMAP
10
10
20
40
40
80
60
10
08
ENDCHAR

STARTCHAR 3050
ENCODING 42160
SWIDTH 1000 0
DWIDTH 14 0
BBX 5 8 4 1
BITMAP
28
40
80
80
80
40
20
10
ENDCHAR

STARTCHAR 3051
ENCODING 42161
SWIDTH 1000 0
DWIDTH 14 0
BBX 8 9 3 1
BITMAP
46
44
45
86
84
84
C4
44
08
ENDCHAR

STARTCHAR 3052
ENCODING 42162
SWIDTH 1000 0
DWIDTH 14 0
BBX 10 9 2 1
BITMAP
4240
4280
4280
8F00
8400
A400
C400
4400
0800
ENDCHAR

STARTCHAR 3053
ENCODING 42163
SWIDTH 1000 0
DWIDTH 14 0
BBX 7 8 4 1
BITMAP
3C
10
00
00
00
00
86
78
ENDCHAR

STARTCHAR 3054
ENCODING 42164
SWIDTH 1000 0
DWIDTH 14 0
BBX 8 9 3 1
BITMAP
01
02
1C
00
00
00
80
80
7E
ENDCHAR

STARTCHAR 3055
ENCODING 42165
SWIDTH 1000 0
DWIDTH 14 0
BBX 7 8 3 1
BITMAP
24
18
64
12
6E
80
40
3C
ENDCHAR

STARTCHAR 3056
ENCODING 42166
SWIDTH 1000 0
DWIDTH 14 0
BBX 9 9 3 1
BITMAP
4080
2700
1800
6800
0400
7A00
8000
8000
7C00
ENDCHAR

STARTCHAR 3057
ENCODING 42167
SWIDTH 1000 0
DWIDTH 14 0
BBX 6 9 5 1
BITMAP
80
80
80
80
80
84
88
B0
40
ENDCHAR

STARTCHAR 3058
ENCODING 42168
SWIDTH 1000 0
DWIDTH 14 0
BBX 6 9 4 1
BITMAP
40
9C
88
80
80
80
84
58
20
ENDCHAR

STARTCHAR 3059
ENCODING 42169
SWIDTH 1000 0
DWIDTH 14 0
BBX 8 8 4 2
BITMAP
10
10
1F
F0
70
50
30
10
ENDCHAR

STARTCHAR 305A
ENCODING 42170
SWIDTH 1000 0
DWIDTH 14 0
BBX 9 9 3 1
BITMAP
0880
1300
1F00
E800
3800
2800
1800
1000
1000
ENDCHAR

STARTCHAR 305B
ENCODING 42171
SWIDTH 1000 0
DWIDTH 14 0
BBX 7 9 3 1
BITMAP
04
04
24
2E
F4
2C
20
16
08
ENDCHAR

STARTCHAR 305C
ENCODING 42172
SWIDTH 1000 0
DWIDTH 14 0
BBX 9 8 3 2
BITMAP
0480
0500
2400
3E00
E400
2400
2000
1E00
ENDCHAR

STARTCHAR 305D
ENCODING 42173
SWIDTH 1000 0
DWIDTH 14 0
BBX 8 9 3 1
BITMAP
0C
14
18
23
7C
90
10
10
1C
ENDCHAR

STARTCHAR 305E
ENCODING 42174
SWIDTH 1000 0
DWIDTH 14 0
BBX 10 9 3 1
BITMAP
7C00
09C0
1000
6700
F800
1000
2000
2000
1C00
ENDCHAR

STARTCHAR 305F
ENCODING 42175
SWIDTH 1000 0
DWIDTH 14 0
BBX 8 9 3 1
BITMAP
10
20
18
23
42
40
40
90
0F
ENDCHAR

STARTCHAR 3060
ENCODING 42176
SWIDTH 1000 0
DWIDTH 14 0
BBX 8 9 3 1
BITMAP
30
21
30
43
40
40
80
90
0E
ENDCHAR

STARTCHAR 3061
ENCODING 42177
SWIDTH 1000 0
DWIDTH 14 0
BBX 7 10 4 0
BITMAP
20
40
70
40
5C
62
C2
04
04
08
ENDCHAR

STARTCHAR 3062
ENCODING 42178
SWIDTH 1000 0
DWIDTH 14 0
BBX 9 9 3 0
BITMAP
2380
F000
4000
4C00
7200
4200
0200
0400
0800
ENDCHAR

STARTCHAR 3063
ENCODING 42179
SWIDTH 1000 0
DWIDTH 14 0
BBX 7 5 4 3
BITMAP
3C
C2
02
04
18
ENDCHAR

STARTCHAR 3064
ENCODING 42180
SWIDTH 1000 0
DWIDTH 14 0
BBX 8 6 3 2
BITMAP
3E
C1
01
01
02
1C
ENDCHAR

STARTCHAR 3065
ENCODING 42181
SWIDTH 1000 0
DWIDTH 14 0
BBX 10 9 2 1
BITMAP
00C0
0080
0700
F880
4080
0080
0100
0600
0800
ENDCHAR

STARTCHAR 3066
ENCODING 42182
SWIDTH 1000 0
DWIDTH 14 0
BBX 8 8 3 1
BITMAP
07
F8
10
20
20
20
18
04
ENDCHAR

STARTCHAR 3067
ENCODING 42183
SWIDTH 1000 0
DWIDTH 14 0
BBX 9 8 3 1
BITMAP
0700
3800
D380
2000
2000
2000
1000
0E00
ENDCHAR

STARTCHAR 3068
ENCODING 42184
SWIDTH 1000 0
DWIDTH 14 0
BBX 6 9 4 1
BITMAP
20
20
20
28
30
C0
80
8C
70
ENDCHAR

STARTCHAR 3069
ENCODING 42185
SWIDTH 1000 0
DWIDTH 14 0
BBX 9 9 3 1
BITMAP
1000
1180
1300
1400
2800
4000
8000
4000
3E00
ENDCHAR

STARTCHAR 306A
ENCODING 42186
SWIDTH 1000 0
DWIDTH 14 0
BBX 7 9 3 0
BITMAP
38
60
46
48
88
1C
6A
28
10
ENDCHAR

STARTCHAR 306B
ENCODING 42187
SWIDTH 1000 0
DWIDTH 14 0
BBX 8 8 3 2
BITMAP
40
46
80
80
80
80
5F
40
ENDCHAR

STARTCHAR 306C
ENCODING 42188
SWIDTH 1000 0
DWIDTH 14 0
BBX 10 8 2 2
BITMAP
0800
4B00
5480
7080
3080
7080
9780
6740
ENDCHAR

STARTCHAR 306D
ENCODING 42189
SWIDTH 1000 0
DWIDTH 14 0
BBX 8 9 3 1
BITMAP
20
4E
31
61
41
42
CE
15
08
ENDCHAR

STARTCHAR 306E
ENCODING 42190
SWIDTH 1000 0
DWIDTH 14 0
BBX 8 8 3 2
BITMAP
08
7E
91
91
A1
A1
42
04
ENDCHAR

STARTCHAR 306F
ENCODING 42191
SWIDTH 1000 0
DWIDTH 14 0
BBX 8 8 3 1
BITMAP
40
83
84
84
84
CE
54
08
ENDCHAR

STARTCHAR 3070
ENCODING 42192
SWIDTH 1000 0
DWIDTH 14 0
BBX 9 9 3 1
BITMAP
0080
4500
8A00
8C00
0800
0400
CC00
BB00
1000
ENDCHAR

STARTCHAR 3071
ENCODING 42193
SWIDTH 1000 0
DWIDTH 14 0
BBX 9 10 3 1
BITMAP
0180
0280
4500
8700
8C00
0400
0400
CC00
B700
1800
ENDCHAR

STARTCHAR 3072
ENCODING 42194
SWIDTH 1000 0
DWIDTH 14 0
BBX 8 8 3 1
BITMAP
E4
42
85
84
84
88
88
70
ENDCHAR

STARTCHAR 3073
ENCODING 42195
SWIDTH 1000 0
DWIDTH 14 0
BBX 9 9 3 1
BITMAP
0080
2500
4200
4500
8400
8400
8800
8800
7000
ENDCHAR

STARTCHAR 3074
ENCODING 42196
SWIDTH 1000 0
DWIDTH 14 0
BBX 9 9 3 1
BITMAP
0380
6680
4300
8500
8400
8400
8800
8800
7000
ENDCHAR

STARTCHAR 3075
ENCODING 42197
SWIDTH 1000 0
DWIDTH 14 0
BBX 8 8 3 1
BITMAP
18
20
20
10
2F
49
88
10
ENDCHAR

STARTCHAR 3076
ENCODING 42198
SWIDTH 1000 0
DWIDTH 14 0
BBX 10 9 2 1
BITMAP
0080
0500
0800
1000
0800
1780
22C0
C400
0800
ENDCHAR

STARTCHAR 3077
ENCODING 42199
SWIDTH 1000 0
DWIDTH 14 0
BBX 9 9 2 1
BITMAP
0180
0580
1800
1000
0C00
1F80
2480
C400
0800
ENDCHAR

STARTCHAR 3078
ENCODING 42200
SWIDTH 1000 0
DWIDTH 14 0
BBX 9 3 3 4
BITMAP
7800
8600
0180
ENDCHAR

STARTCHAR 3079
ENCODING 42201
SWIDTH 1000 0
DWIDTH 14 0
BBX 9 4 3 4
BITMAP
0200
3000
4C00
8380
ENDCHAR

STARTCHAR 307A
ENCODING 42202
SWIDTH 1000 0
DWIDTH 14 0
BBX 9 6 2 4
BITMAP
0100
0200
0100
1000
2C00
C380
ENDCHAR

STARTCHAR 307B
ENCODING 42203
SWIDTH 1000 0
DWIDTH 14 0
BBX 8 9 3 1
BITMAP
06
44
87
8C
84
84
CE
75
18
ENDCHAR

STARTCHAR 307C
ENCODING 42204
SWIDTH 1000 0
DWIDTH 14 0
BBX 8 9 2 1
BITMAP
41
27
45
4E
84
84
64
7F
28
ENDCHAR

STARTCHAR 307D
ENCODING 42205
SWIDTH 1000 0
DWIDTH 14 0
BBX 10 9 2 1
BITMAP
43C0
44C0
4500
8E00
8400
8400
CE00
5500
0800
ENDCHAR

STARTCHAR 307E
ENCODING 42206
SWIDTH 1000 0
DWIDTH 14 0
BBX 6 9 3 1
BITMAP
08
08
7C
10
3C
10
10
FC
60
ENDCHAR

STARTCHAR 307F
ENCODING 42207
SWIDTH 1000 0
DWIDTH 14 0
BBX 8 8 3 2
BITMAP
18
10
12
22
7E
A5
C8
08
ENDCHAR

STARTCHAR 3080
ENCODING 42208
SWIDTH 1000 0
DWIDTH 14 0
BBX 8 9 3 1
BITMAP
20
50
62
65
C4
C4
44
44
38
ENDCHAR

STARTCHAR 3081
ENCODING 42209
SWIDTH 1000 0
DWIDTH 14 0
BBX 9 9 2 1
BITMAP
0400
2400
2F00
3880
5880
8880
5080
2100
0200
ENDCHAR

STARTCHAR 3082
ENCODING 42210
SWIDTH 1000 0
DWIDTH 14 0
BBX 6 9 4 1
BITMAP
10
20
30
20
C0
E4
44
44
38
ENDCHAR

STARTCHAR 3083
ENCODING 42211
SWIDTH 1000 0
DWIDTH 14 0
BBX 7 7 4 2
BITMAP
70
9C
E2
2C
20
10
10
ENDCHAR

STARTCHAR 3084
ENCODING 42212
SWIDTH 1000 0
DWIDTH 14 0
BBX 8 9 3 1
BITMAP
08
78
4F
71
A1
12
08
08
08
ENDCHAR

STARTCHAR 3085
ENCODING 42213
SWIDTH 1000 0
DWIDTH 14 0
BBX 8 7 3 2
BITMAP
18
5E
A9
E9
5A
4C
10
ENDCHAR

STARTCHAR 3086
ENCODING 42214
SWIDTH 1000 0
DWIDTH 14 0
BBX 9 9 2 1
BITMAP
0400
5B00
5E80
9280
B280
D480
4D00
0A00
1000
ENDCHAR

STARTCHAR 3087
ENCODING 42215
SWIDTH 1000 0
DWIDTH 14 0
BBX 6 7 4 2
BITMAP
10
1C
20
20
20
F8
60
ENDCHAR

STARTCHAR 3088
ENCODING 42216
SWIDTH 1000 0
DWIDTH 14 0
BBX 7 9 3 1
BITMAP
10
10
0E
10
10
10
30
DC
70
ENDCHAR

STARTCHAR 3089
ENCODING 42217
SWIDTH 1000 0
DWIDTH 14 0
BBX 6 8 4 1
BITMAP
20
C0
80
98
E4
84
04
08
ENDCHAR

STARTCHAR 308A
ENCODING 42218
SWIDTH 1000 0
DWIDTH 14 0
BBX 6 9 4 1
BITMAP
40
78
64
C4
44
48
08
08
10
ENDCHAR

STARTCHAR 308B
ENCODING 42219
SWIDTH 1000 0
DWIDTH 14 0
BBX 7 9 3 1
BITMAP
0C
38
10
20
3E
42
82
3A
1C
ENDCHAR

STARTCHAR 308C
ENCODING 42220
SWIDTH 1000 0
DWIDTH 14 0
BBX 8 8 3 2
BITMAP
20
26
7A
12
24
64
A4
23
ENDCHAR

STARTCHAR 308D
ENCODING 42221
SWIDTH 1000 0
DWIDTH 14 0
BBX 8 9 3 1
BITMAP
04
38
10
2C
32
C1
01
02
0C
ENDCHAR

STARTCHAR 308E
ENCODING 42222
SWIDTH 1000 0
DWIDTH 14 0
BBX 7 5 4 3
BITMAP
68
36
42
C2
44
ENDCHAR

STARTCHAR 308F
ENCODING 42223
SWIDTH 1000 0
DWIDTH 14 0
BBX 8 8 4 2
BITMAP
40
40
6C
32
41
C1
C2
42
ENDCHAR

STARTCHAR 3090
ENCODING 42224
SWIDTH 1000 0
DWIDTH 14 0
BBX 8 9 3 1
BITMAP
10
70
14
2A
61
A1
DD
52
0C
ENDCHAR

STARTCHAR 3091
ENCODING 42225
SWIDTH 1000 0
DWIDTH 14 0
BBX 8 8 3 2
BITMAP
0C
38
16
22
34
28
67
99
ENDCHAR

STARTCHAR 3092
ENCODING 42226
SWIDTH 1000 0
DWIDTH 14 0
BBX 7 8 4 1
BITMAP
70
40
66
98
30
50
80
78
ENDCHAR

STARTCHAR 3093
ENCODING 42227
SWIDTH 1000 0
DWIDTH 14 0
BBX 7 7 3 2
BITMAP
20
20
40
78
48
8A
8E
ENDCHAR

STARTCHAR 30A1
ENCODING 42401
SWIDTH 1000 0
DWIDTH 14 0
BBX 6 5 4 3
BITMAP
FC
08
30
20
40
ENDCHAR

STARTCHAR 30A2
ENCODING 42402
SWIDTH 1000 0
DWIDTH 14 0
BBX 6 7 4 3
BITMAP
04
FC
18
20
20
20
40
ENDCHAR

STARTCHAR 30A3
ENCODING 42403
SWIDTH 1000 0
DWIDTH 14 0
BBX 5 6 4 4
BITMAP
08
10
20
70
A0
20
ENDCHAR

STARTCHAR 30A4
ENCODING 42404
SWIDTH 1000 0
DWIDTH 14 0
BBX 5 9 5 1
BITMAP
18
10
20
60
A0
20
20
20
20
ENDCHAR

STARTCHAR 30A5
ENCODING 42405
SWIDTH 1000 0
DWIDTH 14 0
BBX 6 6 4 4
BITMAP
10
24
9C
08
08
10
ENDCHAR

STARTCHAR 30A6
ENCODING 42406
SWIDTH 1000 0
DWIDTH 14 0
BBX 6 8 4 2
BITMAP
10
10
FC
84
84
08
08
10
ENDCHAR

STARTCHAR 30A7
ENCODING 42407
SWIDTH 1000 0
DWIDTH 14 0
BBX 6 4 4 5
BITMAP
70
10
20
FC
ENDCHAR

STARTCHAR 30A8
ENCODING 42408
SWIDTH 1000 0
DWIDTH 14 0
BBX 8 5 3 4
BITMAP
3C
08
10
13
EC
ENDCHAR

STARTCHAR 30A9
ENCODING 42409
SWIDTH 1000 0
DWIDTH 14 0
BBX 6 7 4 3
BITMAP
10
10
FC
30
30
50
10
ENDCHAR

STARTCHAR 30AA
ENCODING 42410
SWIDTH 1000 0
DWIDTH 14 0
BBX 8 9 3 1
BITMAP
08
08
07
78
18
28
48
88
08
ENDCHAR

STARTCHAR 30AB
ENCODING 42411
SWIDTH 1000 0
DWIDTH 14 0
BBX 7 8 4 2
BITMAP
18
10
FE
24
24
44
48
98
ENDCHAR

STARTCHAR 30AC
ENCODING 42412
SWIDTH 1000 0
DWIDTH 14 0
BBX 8 9 4 1
BITMAP
11
10
14
FC
24
44
48
A8
10
ENDCHAR

STARTCHAR 30AD
ENCODING 42413
SWIDTH 1000 0
DWIDTH 14 0
BBX 7 10 4 1
BITMAP
40
20
20
F8
26
38
D0
10
08
08
ENDCHAR

STARTCHAR 30AE
ENCODING 42414
SWIDTH 1000 0
DWIDTH 14 0
BBX 7 9 4 2
BITMAP
02
20
30
60
1C
F0
10
10
08
ENDCHAR

STARTCHAR 30AF
ENCODING 42415
SWIDTH 1000 0
DWIDTH 14 0
BBX 5 8 5 2
BITMAP
40
78
90
10
20
20
40
80
ENDCHAR

STARTCHAR 30B0
ENCODING 42416
SWIDTH 1000 0
DWIDTH 14 0
BBX 7 9 4 2
BITMAP
02
20
5C
68
88
10
20
40
80
ENDCHAR

STARTCHAR 30B1
ENCODING 42417
SWIDTH 1000 0
DWIDTH 14 0
BBX 7 8 4 2
BITMAP
20
40
7E
88
10
10
20
40
ENDCHAR

STARTCHAR 30B2
ENCODING 42418
SWIDTH 1000 0
DWIDTH 14 0
BBX 7 9 4 2
BITMAP
02
42
44
F8
08
10
10
20
40
ENDCHAR

STARTCHAR 30B3
ENCODING 42419
SWIDTH 1000 0
DWIDTH 14 0
BBX 6 6 4 3
BITMAP
0C
74
08
08
3C
C0
ENDCHAR

STARTCHAR 30B4
ENCODING 42420
SWIDTH 1000 0
DWIDTH 14 0
BBX 6 5 4 3
BITMAP
FC
08
08
08
F0
ENDCHAR

STARTCHAR 30B5
ENCODING 42421
SWIDTH 1000 0
DWIDTH 14 0
BBX 9 8 3 2
BITMAP
2400
2400
2780
FC00
2400
2400
0400
0800
ENDCHAR

STARTCHAR 30B6
ENCODING 42422
SWIDTH 1000 0
DWIDTH 14 0
BBX 8 8 3 2
BITMAP
05
24
25
FE
24
24
08
08
ENDCHAR

STARTCHAR 30B7
ENCODING 42423
SWIDTH 1000 0
DWIDTH 14 0
BBX 7 7 4 3
BITMAP
30
00
C2
04
08
10
60
ENDCHAR

STARTCHAR 30B8
ENCODING 42424
SWIDTH 1000 0
DWIDTH 14 0
BBX 8 7 4 1
BITMAP
22
01
C2
04
08
10
20
ENDCHAR

STARTCHAR 30B9
ENCODING 42425
SWIDTH 1000 0
DWIDTH 14 0
BBX 6 7 5 3
BITMAP
10
F0
10
20
58
4C
80
ENDCHAR

STARTCHAR 30BA
ENCODING 42426
SWIDTH 1000 0
DWIDTH 14 0
BBX 8 8 4 2
BITMAP
01
02
38
50
10
20
5C
84
ENDCHAR

STARTCHAR 30BB
ENCODING 42427
SWIDTH 1000 0
DWIDTH 14 0
BBX 8 8 3 2
BITMAP
10
10
16
FA
10
10
11
0E
ENDCHAR

STARTCHAR 30BC
ENCODING 42428
SWIDTH 1000 0
DWIDTH 14 0
BBX 8 7 3 2
BITMAP
10
12
1E
F4
10
10
1F
ENDCHAR

STARTCHAR 30BD
ENCODING 42429
SWIDTH 1000 0
DWIDTH 14 0
BBX 6 8 5 3
BITMAP
08
8C
48
08
10
20
40
80
ENDCHAR

STARTCHAR 30BE
ENCODING 42430
SWIDTH 1000 0
DWIDTH 14 0
BBX 9 9 4 2
BITMAP
0080
0100
8400
0400
0800
0800
1000
2000
4000
ENDCHAR

STARTCHAR 30BF
ENCODING 42431
SWIDTH 1000 0
DWIDTH 14 0
BBX 6 9 4 1
BITMAP
10
3C
44
48
A8
10
20
40
80
ENDCHAR

STARTCHAR 30C0
ENCODING 42432
SWIDTH 1000 0
DWIDTH 14 0
BBX 8 9 4 1
BITMAP
25
20
5C
48
C8
30
20
40
80
ENDCHAR

STARTCHAR 30C1
ENCODING 42433
SWIDTH 1000 0
DWIDTH 14 0
BBX 7 9 4 2
BITMAP
08
18
38
10
7E
90
10
20
40
ENDCHAR

STARTCHAR 30C2
ENCODING 42434
SWIDTH 1000 0
DWIDTH 14 0
BBX 8 8 3 2
BITMAP
08
18
09
F6
10
10
20
20
ENDCHAR

STARTCHAR 30C3
ENCODING 42435
SWIDTH 1000 0
DWIDTH 14 0
BBX 5 6 5 4
BITMAP
48
88
10
20
40
80
ENDCHAR

STARTCHAR 30C4
ENCODING 42436
SWIDTH 1000 0
DWIDTH 14 0
BBX 7 7 4 3
BITMAP
26
84
08
08
10
20
40
ENDCHAR

STARTCHAR 30C5
ENCODING 42437
SWIDTH 1000 0
DWIDTH 14 0
BBX 8 9 5 2
BITMAP
02
03
28
88
08
10
20
40
80
ENDCHAR

STARTCHAR 30C6
ENCODING 42438
SWIDTH 1000 0
DWIDTH 14 0
BBX 7 8 4 2
BITMAP
7C
00
1E
F0
10
20
20
40
ENDCHAR

STARTCHAR 30C7
ENCODING 42439
SWIDTH 1000 0
DWIDTH 14 0
BBX 10 9 3 1
BITMAP
0E40
3000
0300
FC00
0800
0800
1000
2000
4000
ENDCHAR

STARTCHAR 30C8
ENCODING 42440
SWIDTH 1000 0
DWIDTH 14 0
BBX 4 8 6 2
BITMAP
80
80
80
E0
90
80
80
80
ENDCHAR

STARTCHAR 30C9
ENCODING 42441
SWIDTH 1000 0
DWIDTH 14 0
BBX 6 9 6 1
BITMAP
84
88
80
E0
90
80
80
80
80
ENDCHAR

STARTCHAR 30CA
ENCODING 42442
SWIDTH 1000 0
DWIDTH 14 0
BBX 7 9 4 2
BITMAP
20
10
20
1E
E0
20
20
20
40
ENDCHAR

STARTCHAR 30CB
ENCODING 42443
SWIDTH 1000 0
DWIDTH 14 0
BBX 7 6 4 4
BITMAP
1C
60
00
00
1E
E0
ENDCHAR

STARTCHAR 30CC
ENCODING 42444
SWIDTH 1000 0
DWIDTH 14 0
BBX 6 8 4 2
BITMAP
0C
F4
08
28
18
24
44
80
ENDCHAR

STARTCHAR 30CD
ENCODING 42445
SWIDTH 1000 0
DWIDTH 14 0
BBX 6 10 5 1
BITMAP
20
10
00
70
A0
70
AC
20
20
20
ENDCHAR

STARTCHAR 30CE
ENCODING 42446
SWIDTH 1000 0
DWIDTH 14 0
BBX 5 7 5 3
BITMAP
18
10
10
20
20
40
80
ENDCHAR

STARTCHAR 30CF
ENCODING 42447
SWIDTH 1000 0
DWIDTH 14 0
BBX 8 5 3 4
BITMAP
20
22
21
41
81
ENDCHAR

STARTCHAR 30D0
ENCODING 42448
SWIDTH 1000 0
DWIDTH 14 0
BBX 9 7 3 4
BITMAP
0080
0100
0400
2200
2100
4100
8100
ENDCHAR

STARTCHAR 30D1
ENCODING 42449
SWIDTH 1000 0
DWIDTH 14 0
BBX 9 7 3 3
BITMAP
0380
0180
2200
2100
4100
4080
8000
ENDCHAR

STARTCHAR 30D2
ENCODING 42450
SWIDTH 1000 0
DWIDTH 14 0
BBX 5 7 5 3
BITMAP
80
88
F0
80
80
80
78
ENDCHAR

STARTCHAR 30D3
ENCODING 42451
SWIDTH 1000 0
DWIDTH 14 0
BBX 7 8 4 2
BITMAP
82
44
88
B0
C0
80
4C
30
ENDCHAR

STARTCHAR 30D4
ENCODING 42452
SWIDTH 1000 0
DWIDTH 14 0
BBX 8 8 4 3
BITMAP
07
85
42
8C
70
80
80
7C
ENDCHAR

STARTCHAR 30D5
ENCODING 42453
SWIDTH 1000 0
DWIDTH 14 0
BBX 6 7 4 3
BITMAP
1C
E4
08
08
10
10
60
ENDCHAR

STARTCHAR 30D6
ENCODING 42454
SWIDTH 1000 0
DWIDTH 14 0
BBX 7 7 4 3
BITMAP
02
0C
F4
08
08
10
20
ENDCHAR

STARTCHAR 30D7
ENCODING 42455
SWIDTH 1000 0
DWIDTH 14 0
BBX 8 9 4 2
BITMAP
03
02
1D
E4
08
08
10
20
40
ENDCHAR

STARTCHAR 30D8
ENCODING 42456
SWIDTH 1000 0
DWIDTH 14 0
BBX 9 4 3 5
BITMAP
7000
8C00
0300
0080
ENDCHAR

STARTCHAR 30D9
ENCODING 42457
SWIDTH 1000 0
DWIDTH 14 0
BBX 9 5 3 5
BITMAP
0080
7200
8800
8400
0300
ENDCHAR

STARTCHAR 30DA
ENCODING 42458
SWIDTH 1000 0
DWIDTH 14 0
BBX 8 5 3 5
BITMAP
23
53
88
84
03
ENDCHAR

STARTCHAR 30DB
ENCODING 42459
SWIDTH 1000 0
DWIDTH 14 0
BBX 8 7 3 3
BITMAP
08
08
7E
08
08
49
D8
ENDCHAR

STARTCHAR 30DC
ENCODING 42460
SWIDTH 1000 0
DWIDTH 14 0
BBX 9 8 3 2
BITMAP
1280
1000
FE00
1000
5000
9100
B000
1000
ENDCHAR

STARTCHAR 30DD
ENCODING 42461
SWIDTH 1000 0
DWIDTH 14 0
BBX 9 9 3 2
BITMAP
0180
1A00
1180
7E00
1000
1000
5300
B000
1000
ENDCHAR

STARTCHAR 30DE
ENCODING 42462
SWIDTH 1000 0
DWIDTH 14 0
BBX 8 6 3 3
BITMAP
0F
F2
04
08
04
04
ENDCHAR

STARTCHAR 30DF
ENCODING 42463
SWIDTH 1000 0
DWIDTH 14 0
BBX 5 8 5 2
BITMAP
70
08
40
30
00
C0
30
10
ENDCHAR

STARTCHAR 30E0
ENCODING 42464
SWIDTH 1000 0
DWIDTH 14 0
BBX 7 7 4 3
BITMAP
10
20
20
40
44
9E
E2
ENDCHAR

STARTCHAR 30E1
ENCODING 42465
SWIDTH 1000 0
DWIDTH 14 0
BBX 6 8 4 2
BITMAP
04
04
28
18
18
24
44
80
ENDCHAR

STARTCHAR 30E2
ENCODING 42466
SWIDTH 1000 0
DWIDTH 14 0
BBX 7 7 4 3
BITMAP
F8
20
22
7C
A0
20
1E
ENDCHAR

STARTCHAR 30E3
ENCODING 42467
SWIDTH 1000 0
DWIDTH 14 0
BBX 6 7 4 3
BITMAP
40
4C
30
E0
10
08
08
ENDCHAR

STARTCHAR 30E4
ENCODING 42468
SWIDTH 1000 0
DWIDTH 14 0
BBX 8 8 3 2
BITMAP
22
25
1A
F0
08
08
04
02
ENDCHAR

STARTCHAR 30E5
ENCODING 42469
SWIDTH 1000 0
DWIDTH 14 0
BBX 7 5 4 4
BITMAP
78
08
10
7E
80
ENDCHAR

STARTCHAR 30E6
ENCODING 42470
SWIDTH 1000 0
DWIDTH 14 0
BBX 9 5 3 4
BITMAP
3E00
0400
0400
0400
FF80
ENDCHAR

STARTCHAR 30E7
ENCODING 42471
SWIDTH 1000 0
DWIDTH 14 0
BBX 4 6 5 4
BITMAP
30
50
30
50
10
E0
ENDCHAR

STARTCHAR 30E8
ENCODING 42472
SWIDTH 1000 0
DWIDTH 14 0
BBX 6 7 4 3
BITMAP
0C
F4
04
38
48
08
F8
ENDCHAR

STARTCHAR 30E9
ENCODING 42473
SWIDTH 1000 0
DWIDTH 14 0
BBX 6 9 4 1
BITMAP
7C
00
0C
F4
04
08
10
10
20
ENDCHAR

STARTCHAR 30EA
ENCODING 42474
SWIDTH 1000 0
DWIDTH 14 0
BBX 5 9 4 1
BITMAP
08
48
88
88
88
08
08
10
20
ENDCHAR

STARTCHAR 30EB
ENCODING 42475
SWIDTH 1000 0
DWIDTH 14 0
BBX 9 7 3 3
BITMAP
0800
2800
2800
4880
4900
4E00
8400
ENDCHAR

STARTCHAR 30EC
ENCODING 42476
SWIDTH 1000 0
DWIDTH 14 0
BBX 6 7 5 3
BITMAP
80
80
80
84
88
B0
C0
ENDCHAR

STARTCHAR 30ED
ENCODING 42477
SWIDTH 1000 0
DWIDTH 14 0
BBX 7 6 4 3
BITMAP
FE
84
84
84
84
78
ENDCHAR

STARTCHAR 30EE
ENCODING 42478
SWIDTH 1000 0
DWIDTH 14 0
BBX 6 7 4 3
BITMAP
04
7C
84
08
08
10
20
ENDCHAR

STARTCHAR 30EF
ENCODING 42479
SWIDTH 1000 0
DWIDTH 14 0
BBX 6 8 4 2
BITMAP
BC
C4
84
88
08
10
20
40
ENDCHAR

STARTCHAR 30F0
ENCODING 42480
SWIDTH 1000 0
DWIDTH 14 0
BBX 8 9 3 2
BITMAP
04
04
06
3C
24
3F
C8
08
04
ENDCHAR

STARTCHAR 30F1
ENCODING 42481
SWIDTH 1000 0
DWIDTH 14 0
BBX 9 7 3 3
BITMAP
0600
7A00
1C00
0800
1000
3F80
C000
ENDCHAR

STARTCHAR 30F2
ENCODING 42482
SWIDTH 1000 0
DWIDTH 14 0
BBX 6 8 4 2
BITMAP
FC
04
04
F8
08
08
10
20
ENDCHAR

STARTCHAR 30F3
ENCODING 42483
SWIDTH 1000 0
DWIDTH 14 0
BBX 8 7 4 3
BITMAP
60
01
02
04
08
F0
40
ENDCHAR

STARTCHAR 30F4
ENCODING 42484
SWIDTH 1000 0
DWIDTH 14 0
BBX 8 10 3 1
BITMAP
11
11
9E
E2
84
84
04
08
10
20
ENDCHAR

STARTCHAR 30F5
ENCODING 42485
SWIDTH 1000 0
DWIDTH 14 0
BBX 5 6 5 4
BITMAP
20
20
D8
48
50
90
ENDCHAR

STARTCHAR 30F6
ENCODING 42486
SWIDTH 1000 0
DWIDTH 14 0
BBX 6 7 4 3
BITMAP
20
44
78
90
10
20
40
ENDCHAR

STARTCHAR 0391
ENCODING 42657
SWIDTH 1000 0
DWIDTH 14 0
BBX 8 8 3 1
BITMAP
10
28
28
24
3C
44
82
C7
ENDCHAR

STARTCHAR 0392
ENCODING 42658
SWIDTH 1000 0
DWIDTH 14 0
BBX 8 9 3 1
BITMAP
FC
42
42
42
3C
42
41
41
FE
ENDCHAR

STARTCHAR 0393
ENCODING 42659
SWIDTH 1000 0
DWIDTH 14 0
BBX 7 9 4 1
BITMAP
FE
42
42
40
40
40
40
40
C0
ENDCHAR

STARTCHAR 0394
ENCODING 42660
SWIDTH 1000 0
DWIDTH 14 0
BBX 7 8 4 1
BITMAP
10
30
50
48
88
84
84
FE
ENDCHAR

STARTCHAR 0395
ENCODING 42661
SWIDTH 1000 0
DWIDTH 14 0
BBX 8 9 3 1
BITMAP
FF
21
24
24
3C
24
24
21
FF
ENDCHAR

STARTCHAR 0396
ENCODING 42662
SWIDTH 1000 0
DWIDTH 14 0
BBX 7 9 4 1
BITMAP
FC
84
08
10
10
20
42
42
FE
ENDCHAR

STARTCHAR 0397
ENCODING 42663
SWIDTH 1000 0
DWIDTH 14 0
BBX 9 9 3 1
BITMAP
E780
4200
4200
4200
7E00
4200
4200
4200
E780
ENDCHAR

STARTCHAR 0398
ENCODING 42664
SWIDTH 1000 0
DWIDTH 14 0
BBX 8 9 3 1
BITMAP
18
66
41
81
9D
85
81
42
24
ENDCHAR

STARTCHAR 0399
ENCODING 42665
SWIDTH 1000 0
DWIDTH 14 0
BBX 4 9 5 1
BITMAP
F0
20
20
20
20
20
20
20
60
ENDCHAR

STARTCHAR 039A
ENCODING 42666
SWIDTH 1000 0
DWIDTH 14 0
BBX 8 9 3 1
BITMAP
E7
44
48
50
50
68
44
42
E7
ENDCHAR

STARTCHAR 039B
ENCODING 42667
SWIDTH 1000 0
DWIDTH 14 0
BBX 8 8 3 1
BITMAP
08
18
28
24
24
44
42
E3
ENDCHAR

STARTCHAR 039C
ENCODING 42668
SWIDTH 1000 0
DWIDTH 14 0
BBX 10 9 2 1
BITMAP
E0C0
6180
7280
5280
5280
4C80
4C80
4880
E1C0
ENDCHAR

STARTCHAR 039D
ENCODING 42669
SWIDTH 1000 0
DWIDTH 14 0
BBX 8 9 3 1
BITMAP
C3
62
62
52
4A
46
46
42
E0
ENDCHAR

STARTCHAR 039E
ENCODING 42670
SWIDTH 1000 0
DWIDTH 14 0
BBX 7 9 4 1
BITMAP
FE
82
02
00
78
40
00
00
FC
ENDCHAR

STARTCHAR 039F
ENCODING 42671
SWIDTH 1000 0
DWIDTH 14 0
BBX 8 9 3 1
BITMAP
18
66
42
41
81
81
41
42
34
ENDCHAR

STARTCHAR 03A0
ENCODING 42672
SWIDTH 1000 0
DWIDTH 14 0
BBX 10 9 2 1
BITMAP
FFC0
2080
2080
2080
2080
2080
2080
2080
F3C0
ENDCHAR

STARTCHAR 03A1
ENCODING 42673
SWIDTH 1000 0
DWIDTH 14 0
BBX 8 9 3 1
BITMAP
FE
21
21
21
3E
20
20
20
70
ENDCHAR

STARTCHAR 03A3
ENCODING 42674
SWIDTH 1000 0
DWIDTH 14 0
BBX 8 9 3 1
BITMAP
FF
61
30
18
08
10
20
41
FF
ENDCHAR

STARTCHAR 03A4
ENCODING 42675
SWIDTH 1000 0
DWIDTH 14 0
BBX 8 9 3 1
BITMAP
FF
89
88
08
08
08
08
08
1C
ENDCHAR

STARTCHAR 03A5
ENCODING 42676
SWIDTH 1000 0
DWIDTH 14 0
BBX 6 9 5 1
BITMAP
98
64
20
20
20
20
20
20
70
ENDCHAR

STARTCHAR 03A6
ENCODING 42677
SWIDTH 1000 0
DWIDTH 14 0
BBX 9 9 3 1
BITMAP
1C00
0800
FF00
8880
8880
8880
8900
7E00
0800
ENDCHAR

STARTCHAR 03A7
ENCODING 42678
SWIDTH 1000 0
DWIDTH 14 0
BBX 9 9 3 1
BITMAP
E380
6200
2400
1800
0800
1800
2400
4200
C780
ENDCHAR

STARTCHAR 03A8
ENCODING 42679
SWIDTH 1000 0
DWIDTH 14 0
BBX 10 9 2 1
BITMAP
CEC0
4480
4480
4480
4480
2480
1F00
0400
0E00
ENDCHAR

STARTCHAR 03A9
ENCODING 42680
SWIDTH 1000 0
DWIDTH 14 0
BBX 7 9 4 1
BITMAP
38
C4
82
82
82
82
44
3A
EE
ENDCHAR

STARTCHAR 03B1
ENCODING 42689
SWIDTH 1000 0
DWIDTH 14 0
BBX 5 6 4 1
BITMAP
F8
88
88
88
98
68
ENDCHAR

STARTCHAR 03B2
ENCODING 42690
SWIDTH 1000 0
DWIDTH 14 0
BBX 6 10 4 0
BITMAP
78
88
88
A8
98
84
84
C4
B8
80
ENDCHAR

STARTCHAR 03B3
ENCODING 42691
SWIDTH 1000 0
DWIDTH 14 0
BBX 5 8 5 -1
BITMAP
88
90
60
60
20
60
A0
40
ENDCHAR

STARTCHAR 03B4
ENCODING 42692
SWIDTH 1000 0
DWIDTH 14 0
BBX 5 10 5 1
BITMAP
20
D0
40
40
B0
88
88
88
90
60
ENDCHAR

STARTCHAR 03B5
ENCODING 42693
SWIDTH 1000 0
DWIDTH 14 0
BBX 4 6 5 1
BITMAP
F0
80
60
80
90
60
ENDCHAR

STARTCHAR 03B6
ENCODING 42694
SWIDTH 1000 0
DWIDTH 14 0
BBX 6 10 4 0
BITMAP
38
50
20
40
40
80
40
78
04
38
ENDCHAR

STARTCHAR 03B7
ENCODING 42695
SWIDTH 1000 0
DWIDTH 14 0
BBX 5 9 6 -1
BITMAP
20
D0
90
90
90
90
10
10
18
ENDCHAR

STARTCHAR 03B8
ENCODING 42696
SWIDTH 1000 0
DWIDTH 14 0
BBX 4 9 5 1
BITMAP
70
90
90
90
F0
90
90
90
60
ENDCHAR

STARTCHAR 03B9
ENCODING 42697
SWIDTH 1000 0
DWIDTH 14 0
BBX 1 5 6 2
BITMAP
80
80
80
80
80
ENDCHAR

STARTCHAR 03BA
ENCODING 42698
SWIDTH 1000 0
DWIDTH 14 0
BBX 5 6 4 1
BITMAP
18
A0
60
A0
10
08
ENDCHAR

STARTCHAR 03BB
ENCODING 42699
SWIDTH 1000 0
DWIDTH 14 0
BBX 5 8 5 2
BITMAP
C0
40
40
20
60
A0
90
18
ENDCHAR

STARTCHAR 03BC
ENCODING 42700
SWIDTH 1000 0
DWIDTH 14 0
BBX 5 7 4 0
BITMAP
88
88
88
88
98
E8
80
ENDCHAR

STARTCHAR 03BD
ENCODING 42701
SWIDTH 1000 0
DWIDTH 14 0
BBX 5 6 5 1
BITMAP
88
50
50
60
20
20
ENDCHAR

STARTCHAR 03BE
ENCODING 42702
SWIDTH 1000 0
DWIDTH 14 0
BBX 5 11 5 -1
BITMAP
E0
80
80
C0
80
80
80
C0
38
08
30
ENDCHAR

STARTCHAR 03BF
ENCODING 42703
SWIDTH 1000 0
DWIDTH 14 0
BBX 6 6 4 1
BITMAP
78
48
84
44
48
30
ENDCHAR

STARTCHAR 03C0
ENCODING 42704
SWIDTH 1000 0
DWIDTH 14 0
BBX 5 6 4 1
BITMAP
F8
28
28
28
28
48
ENDCHAR

STARTCHAR 03C1
ENCODING 42705
SWIDTH 1000 0
DWIDTH 14 0
BBX 6 6 4 1
BITMAP
78
84
84
84
48
B0
ENDCHAR

STARTCHAR 03C3
ENCODING 42706
SWIDTH 1000 0
DWIDTH 14 0
BBX 5 6 4 1
BITMAP
78
88
88
88
88
70
ENDCHAR

STARTCHAR 03C4
ENCODING 42707
SWIDTH 1000 0
DWIDTH 14 0
BBX 5 6 5 1
BITMAP
F8
20
20
20
20
20
ENDCHAR

STARTCHAR 03C5
ENCODING 42708
SWIDTH 1000 0
DWIDTH 14 0
BBX 5 6 5 1
BITMAP
88
88
88
88
90
60
ENDCHAR

STARTCHAR 03C6
ENCODING 42709
SWIDTH 1000 0
DWIDTH 14 0
BBX 7 10 4 0
BITMAP
30
10
10
7C
92
92
92
94
78
10
ENDCHAR

STARTCHAR 03C7
ENCODING 42710
SWIDTH 1000 0
DWIDTH 14 0
BBX 6 6 4 1
BITMAP
40
38
10
30
48
84
ENDCHAR

STARTCHAR 03C8
ENCODING 42711
SWIDTH 1000 0
DWIDTH 14 0
BBX 6 8 5 0
BITMAP
24
A8
A8
A8
A8
A8
70
20
ENDCHAR

STARTCHAR 03C9
ENCODING 42712
SWIDTH 1000 0
DWIDTH 14 0
BBX 8 6 3 1
BITMAP
42
81
89
89
49
36
ENDCHAR

STARTCHAR 0410
ENCODING 42913
SWIDTH 1000 0
DWIDTH 14 0
BBX 8 8 3 1
BITMAP
10
28
28
44
3C
42
82
C7
ENDCHAR

STARTCHAR 0411
ENCODING 42914
SWIDTH 1000 0
DWIDTH 14 0
BBX 8 9 3 1
BITMAP
7E
42
40
40
7E
42
41
42
FC
ENDCHAR

STARTCHAR 0412
ENCODING 42915
SWIDTH 1000 0
DWIDTH 14 0
BBX 8 9 3 1
BITMAP
7C
42
42
42
7E
41
41
42
FC
ENDCHAR

STARTCHAR 0413
ENCODING 42916
SWIDTH 1000 0
DWIDTH 14 0
BBX 7 9 3 1
BITMAP
7E
42
40
40
40
40
40
40
F0
ENDCHAR

STARTCHAR 0414
ENCODING 42917
SWIDTH 1000 0
DWIDTH 14 0
BBX 8 9 3 1
BITMAP
7F
22
22
22
42
42
42
42
FF
ENDCHAR

STARTCHAR 0415
ENCODING 42918
SWIDTH 1000 0
DWIDTH 14 0
BBX 8 9 3 1
BITMAP
7F
41
41
48
78
40
41
41
FF
ENDCHAR

STARTCHAR 0401
ENCODING 42919
SWIDTH 1000 0
DWIDTH 14 0
BBX 8 10 3 1
BITMAP
22
FF
21
24
24
3C
24
20
21
FF
ENDCHAR

STARTCHAR 0416
ENCODING 42920
SWIDTH 1000 0
DWIDTH 14 0
BBX 11 9 2 1
BITMAP
CE40
4480
4500
2500
3F00
4480
4480
4460
0040
ENDCHAR

STARTCHAR 0417
ENCODING 42921
SWIDTH 1000 0
DWIDTH 14 0
BBX 6 9 4 1
BITMAP
38
84
04
08
18
04
84
84
78
ENDCHAR

STARTCHAR 0418
ENCODING 42922
SWIDTH 1000 0
DWIDTH 14 0
BBX 9 9 3 1
BITMAP
E380
4300
4500
4900
5100
6100
6100
4100
E780
ENDCHAR

STARTCHAR 0419
ENCODING 42923
SWIDTH 1000 0
DWIDTH 14 0
BBX 9 10 3 1
BITMAP
0400
FB80
4300
4500
4900
5100
5100
6100
4100
E780
ENDCHAR

STARTCHAR 041A
ENCODING 42924
SWIDTH 1000 0
DWIDTH 14 0
BBX 8 9 3 1
BITMAP
E2
4E
48
50
68
44
44
45
E2
ENDCHAR

STARTCHAR 041B
ENCODING 42925
SWIDTH 1000 0
DWIDTH 14 0
BBX 8 9 3 1
BITMAP
1F
21
21
21
21
21
21
A1
C2
ENDCHAR

STARTCHAR 041C
ENCODING 42926
SWIDTH 1000 0
DWIDTH 14 0
BBX 10 9 2 1
BITMAP
E0C0
6180
7280
5280
5280
4C80
4C80
4880
E1C0
ENDCHAR

STARTCHAR 041D
ENCODING 42927
SWIDTH 1000 0
DWIDTH 14 0
BBX 9 9 3 1
BITMAP
E780
4200
4200
4200
7E00
4200
4200
4200
E780
ENDCHAR

STARTCHAR 041E
ENCODING 42928
SWIDTH 1000 0
DWIDTH 14 0
BBX 8 9 3 1
BITMAP
1C
62
41
81
81
81
41
42
3C
ENDCHAR

STARTCHAR 041F
ENCODING 42929
SWIDTH 1000 0
DWIDTH 14 0
BBX 10 9 2 1
BITMAP
7FC0
2100
2100
2100
2100
2100
2100
2100
F3C0
ENDCHAR

STARTCHAR 0420
ENCODING 42930
SWIDTH 1000 0
DWIDTH 14 0
BBX 8 9 3 1
BITMAP
FE
21
21
21
3E
20
20
20
F0
ENDCHAR

STARTCHAR 0421
ENCODING 42931
SWIDTH 1000 0
DWIDTH 14 0
BBX 7 9 4 1
BITMAP
3A
46
82
80
80
80
80
44
38
ENDCHAR

STARTCHAR 0422
ENCODING 42932
SWIDTH 1000 0
DWIDTH 14 0
BBX 8 9 3 1
BITMAP
FF
89
88
08
08
08
08
08
3C
ENDCHAR

STARTCHAR 0423
ENCODING 42933
SWIDTH 1000 0
DWIDTH 14 0
BBX 8 9 3 1
BITMAP
E3
42
24
24
18
18
10
50
60
ENDCHAR

STARTCHAR 0424
ENCODING 42934
SWIDTH 1000 0
DWIDTH 14 0
BBX 9 9 3 1
BITMAP
1800
3C00
CB00
8880
8880
8880
4900
3E00
1C00
ENDCHAR

STARTCHAR 0425
ENCODING 42935
SWIDTH 1000 0
DWIDTH 14 0
BBX 9 9 3 1
BITMAP
F380
2200
3400
1800
0800
3C00
2600
4200
8100
ENDCHAR

STARTCHAR 0426
ENCODING 42936
SWIDTH 1000 0
DWIDTH 14 0
BBX 9 10 3 0
BITMAP
C300
4200
4200
4200
4200
4200
4200
4200
FF80
0080
ENDCHAR

STARTCHAR 0427
ENCODING 42937
SWIDTH 1000 0
DWIDTH 14 0
BBX 9 9 3 1
BITMAP
C700
4200
4200
4200
6200
1E00
0200
0200
0780
ENDCHAR

STARTCHAR 0428
ENCODING 42938
SWIDTH 1000 0
DWIDTH 14 0
BBX 13 9 1 1
BITMAP
E778
4220
4220
4220
4220
4220
4220
4220
FFF0
ENDCHAR

STARTCHAR 0429
ENCODING 42939
SWIDTH 1000 0
DWIDTH 14 0
BBX 12 10 1 0
BITMAP
E730
4220
4220
4220
4220
4220
4220
4220
FFF0
0010
ENDCHAR

STARTCHAR 042A
ENCODING 42940
SWIDTH 1000 0
DWIDTH 14 0
BBX 10 9 2 1
BITMAP
F800
8800
8800
0800
0F80
0840
0840
0840
3F80
ENDCHAR

STARTCHAR 042B
ENCODING 42941
SWIDTH 1000 0
DWIDTH 14 0
BBX 11 9 2 1
BITMAP
E1C0
4080
4080
4080
7C80
4280
4280
4280
FDE0
ENDCHAR

STARTCHAR 042C
ENCODING 42942
SWIDTH 1000 0
DWIDTH 14 0
BBX 8 9 3 1
BITMAP
60
20
20
20
3E
21
21
21
FE
ENDCHAR

STARTCHAR 042D
ENCODING 42943
SWIDTH 1000 0
DWIDTH 14 0
BBX 6 9 4 1
BITMAP
30
CC
84
04
3C
04
84
88
70
ENDCHAR

STARTCHAR 042E
ENCODING 42944
SWIDTH 1000 0
DWIDTH 14 0
BBX 12 9 1 1
BITMAP
63C0
4420
4810
4810
7810
4810
4820
4420
E3C0
ENDCHAR

STARTCHAR 042F
ENCODING 42945
SWIDTH 1000 0
DWIDTH 14 0
BBX 8 9 3 1
BITMAP
3E
42
42
42
22
1E
22
A2
C7
ENDCHAR

STARTCHAR 0430
ENCODING 42961
SWIDTH 1000 0
DWIDTH 14 0
BBX 5 6 5 1
BITMAP
E0
A0
60
A0
A8
50
ENDCHAR

STARTCHAR 0431
ENCODING 42962
SWIDTH 1000 0
DWIDTH 14 0
BBX 6 8 4 1
BITMAP
30
40
F8
84
84
84
48
30
ENDCHAR

STARTCHAR 0432
ENCODING 42963
SWIDTH 1000 0
DWIDTH 14 0
BBX 6 7 4 1
BITMAP
F8
44
44
78
44
44
F8
ENDCHAR

STARTCHAR 0433
ENCODING 42964
SWIDTH 1000 0
DWIDTH 14 0
BBX 5 6 5 1
BITMAP
F8
80
80
80
80
C0
ENDCHAR

STARTCHAR 0434
ENCODING 42965
SWIDTH 1000 0
DWIDTH 14 0
BBX 6 7 4 0
BITMAP
78
48
48
48
48
FC
80
ENDCHAR

STARTCHAR 0435
ENCODING 42966
SWIDTH 1000 0
DWIDTH 14 0
BBX 5 6 5 1
BITMAP
F0
88
F0
80
80
70
ENDCHAR

STARTCHAR 0451
ENCODING 42967
SWIDTH 1000 0
DWIDTH 14 0
BBX 5 6 5 1
BITMAP
F0
90
F8
80
80
70
ENDCHAR

STARTCHAR 0436
ENCODING 42968
SWIDTH 1000 0
DWIDTH 14 0
BBX 7 6 4 1
BITMAP
92
94
78
58
94
BA
ENDCHAR

STARTCHAR 0437
ENCODING 42969
SWIDTH 1000 0
DWIDTH 14 0
BBX 4 6 5 1
BITMAP
F0
10
60
10
90
70
ENDCHAR

STARTCHAR 0438
ENCODING 42970
SWIDTH 1000 0
DWIDTH 14 0
BBX 6 6 4 1
BITMAP
44
5C
54
64
44
EC
ENDCHAR

STARTCHAR 0439
ENCODING 42971
SWIDTH 1000 0
DWIDTH 14 0
BBX 5 7 5 2
BITMAP
50
20
88
B8
A8
C8
88
ENDCHAR

STARTCHAR 043A
ENCODING 42972
SWIDTH 1000 0
DWIDTH 14 0
BBX 6 6 4 1
BITMAP
4C
50
70
50
48
EC
ENDCHAR

STARTCHAR 043B
ENCODING 42973
SWIDTH 1000 0
DWIDTH 14 0
BBX 6 6 4 1
BITMAP
38
48
48
48
48
CC
ENDCHAR

STARTCHAR 043C
ENCODING 42974
SWIDTH 1000 0
DWIDTH 14 0
BBX 7 6 4 1
BITMAP
84
C4
DC
B4
B4
C6
ENDCHAR

STARTCHAR 043D
ENCODING 42975
SWIDTH 1000 0
DWIDTH 14 0
BBX 7 6 4 1
BITMAP
CE
84
84
7C
84
04
ENDCHAR

STARTCHAR 043E
ENCODING 42976
SWIDTH 1000 0
DWIDTH 14 0
BBX 6 6 4 1
BITMAP
78
84
84
84
48
30
ENDCHAR

STARTCHAR 043F
ENCODING 42977
SWIDTH 1000 0
DWIDTH 14 0
BBX 6 6 4 1
BITMAP
78
48
48
48
48
CC
ENDCHAR

STARTCHAR 0440
ENCODING 42978
SWIDTH 1000 0
DWIDTH 14 0
BBX 5 7 5 0
BITMAP
F8
88
88
88
88
F0
80
ENDCHAR

STARTCHAR 0441
ENCODING 42979
SWIDTH 1000 0
DWIDTH 14 0
BBX 4 6 5 1
BITMAP
F0
80
80
80
80
70
ENDCHAR

STARTCHAR 0442
ENCODING 42980
SWIDTH 1000 0
DWIDTH 14 0
BBX 6 6 4 1
BITMAP
FC
90
10
10
10
30
ENDCHAR

STARTCHAR 0443
ENCODING 42981
SWIDTH 1000 0
DWIDTH 14 0
BBX 7 9 4 -1
BITMAP
CE
44
48
28
30
10
20
A0
C0
ENDCHAR

STARTCHAR 0444
ENCODING 42982
SWIDTH 1000 0
DWIDTH 14 0
BBX 8 10 3 0
BITMAP
08
08
08
7E
89
89
89
49
3E
08
ENDCHAR

STARTCHAR 0445
ENCODING 42983
SWIDTH 1000 0
DWIDTH 14 0
BBX 7 6 4 1
BITMAP
48
30
10
30
48
CE
ENDCHAR

STARTCHAR 0446
ENCODING 42984
SWIDTH 1000 0
DWIDTH 14 0
BBX 6 7 4 0
BITMAP
40
48
48
48
48
FC
04
ENDCHAR

STARTCHAR 0447
ENCODING 42985
SWIDTH 1000 0
DWIDTH 14 0
BBX 6 7 4 1
BITMAP
CC
44
44
44
3C
04
0C
ENDCHAR

STARTCHAR 0448
ENCODING 42986
SWIDTH 1000 0
DWIDTH 14 0
BBX 10 6 2 1
BITMAP
4400
4480
4480
4480
4480
FFC0
ENDCHAR

STARTCHAR 0449
ENCODING 42987
SWIDTH 1000 0
DWIDTH 14 0
BBX 10 7 2 0
BITMAP
4480
4480
4480
4480
4480
FFC0
0040
ENDCHAR

STARTCHAR 044A
ENCODING 42988
SWIDTH 1000 0
DWIDTH 14 0
BBX 8 6 3 1
BITMAP
B0
10
1C
13
11
3E
ENDCHAR

STARTCHAR 044B
ENCODING 42989
SWIDTH 1000 0
DWIDTH 14 0
BBX 8 6 3 1
BITMAP
42
42
52
6A
46
FB
ENDCHAR

STARTCHAR 044C
ENCODING 42990
SWIDTH 1000 0
DWIDTH 14 0
BBX 5 6 5 1
BITMAP
80
80
80
F8
88
F0
ENDCHAR

STARTCHAR 044D
ENCODING 42991
SWIDTH 1000 0
DWIDTH 14 0
BBX 5 6 5 1
BITMAP
F0
10
38
08
10
E0
ENDCHAR

STARTCHAR 044E
ENCODING 42992
SWIDTH 1000 0
DWIDTH 14 0
BBX 8 6 3 1
BITMAP
5E
51
51
71
51
EA
ENDCHAR

STARTCHAR 044F
ENCODING 42993
SWIDTH 1000 0
DWIDTH 14 0
BBX 5 6 5 1
BITMAP
F0
90
70
50
90
98
ENDCHAR

STARTCHAR 0101
ENCODING 43169
SWIDTH 500 0
DWIDTH 7 0
BBX 5 8 1 0
BITMAP
20
00
F8
88
88
88
88
78
ENDCHAR

STARTCHAR 00E1
ENCODING 43170
SWIDTH 500 0
DWIDTH 7 0
BBX 5 9 1 0
BITMAP
10
20
00
F8
88
88
88
88
78
ENDCHAR

STARTCHAR 01CE
ENCODING 43171
SWIDTH 500 0
DWIDTH 7 0
BBX 5 9 1 0
BITMAP
50
20
00
78
88
88
88
88
78
ENDCHAR

STARTCHAR 00E0
ENCODING 43172
SWIDTH 500 0
DWIDTH 7 0
BBX 5 9 1 0
BITMAP
40
20
00
F8
88
88
88
88
78
ENDCHAR

STARTCHAR 0113
ENCODING 43173
SWIDTH 500 0
DWIDTH 7 0
BBX 5 8 1 0
BITMAP
20
00
78
88
F8
80
80
70
ENDCHAR

STARTCHAR 00E9
ENCODING 43174
SWIDTH 500 0
DWIDTH 7 0
BBX 5 9 1 0
BITMAP
10
20
00
78
88
F8
80
80
70
ENDCHAR

STARTCHAR 011B
ENCODING 43175
SWIDTH 500 0
DWIDTH 7 0
BBX 5 9 1 0
BITMAP
50
20
00
78
88
F8
80
80
70
ENDCHAR

STARTCHAR 00E8
ENCODING 43176
SWIDTH 500 0
DWIDTH 7 0
BBX 5 9 1 0
BITMAP
40
20
00
78
88
F8
80
80
70
ENDCHAR

STARTCHAR 012B
ENCODING 43177
SWIDTH 500 0
DWIDTH 7 0
BBX 3 8 1 0
BITMAP
60
00
40
40
40
40
40
E0
ENDCHAR

STARTCHAR 00ED
ENCODING 43178
SWIDTH 500 0
DWIDTH 7 0
BBX 3 9 1 0
BITMAP
20
40
00
40
40
40
40
40
E0
ENDCHAR

STARTCHAR 01D0
ENCODING 43179
SWIDTH 500 0
DWIDTH 7 0
BBX 3 8 1 0
BITMAP
40
00
40
40
40
40
40
E0
ENDCHAR

STARTCHAR 00EC
ENCODING 43180
SWIDTH 500 0
DWIDTH 7 0
BBX 3 9 1 0
BITMAP
40
40
00
40
40
40
40
40
E0
ENDCHAR

STARTCHAR 014D
ENCODING 43181
SWIDTH 500 0
DWIDTH 7 0
BBX 5 8 1 0
BITMAP
20
00
78
88
88
88
88
70
ENDCHAR

STARTCHAR 00F3
ENCODING 43182
SWIDTH 500 0
DWIDTH 7 0
BBX 5 9 1 0
BITMAP
10
20
00
F8
88
88
88
88
70
ENDCHAR

STARTCHAR 01D2
ENCODING 43183
SWIDTH 500 0
DWIDTH 7 0
BBX 5 9 1 0
BITMAP
50
20
00
78
88
88
88
88
70
ENDCHAR

STARTCHAR 00F2
ENCODING 43184
SWIDTH 500 0
DWIDTH 7 0
BBX 5 9 1 0
BITMAP
40
20
00
70
88
88
88
88
70
ENDCHAR

STARTCHAR 016B
ENCODING 43185
SWIDTH 500 0
DWIDTH 7 0
BBX 6 8 0 0
BITMAP
10
CC
44
44
44
44
44
3C
ENDCHAR

STARTCHAR 00FA
ENCODING 43186
SWIDTH 500 0
DWIDTH 7 0
BBX 6 9 0 0
BITMAP
08
10
CC
44
44
44
44
44
3C
ENDCHAR

STARTCHAR 01D4
ENCODING 43187
SWIDTH 500 0
DWIDTH 7 0
BBX 6 9 0 0
BITMAP
28
10
CC
44
44
44
44
44
3C
ENDCHAR

STARTCHAR 00F9
ENCODING 43188
SWIDTH 500 0
DWIDTH 7 0
BBX 6 9 0 0
BITMAP
20
10
CC
44
44
44
44
44
3C
ENDCHAR

STARTCHAR 01D6
ENCODING 43189
SWIDTH 500 0
DWIDTH 7 0
BBX 6 10 0 0
BITMAP
38
00
68
CC
44
44
44
44
44
3C
ENDCHAR

STARTCHAR 01D8
ENCODING 43190
SWIDTH 500 0
DWIDTH 7 0
BBX 6 11 0 0
BITMAP
08
10
00
68
CC
44
44
44
44
44
3C
ENDCHAR

STARTCHAR 01DA
ENCODING 43191
SWIDTH 500 0
DWIDTH 7 0
BBX 6 10 0 0
BITMAP
38
00
68
CC
44
44
44
44
44
3C
ENDCHAR

STARTCHAR 01DC
ENCODING 43192
SWIDTH 500 0
DWIDTH 7 0
BBX 6 11 0 0
BITMAP
20
10
00
68
CC
44
44
44
44
44
3C
ENDCHAR

STARTCHAR 00FC
ENCODING 43193
SWIDTH 500 0
DWIDTH 7 0
BBX 6 8 0 0
BITMAP
68
CC
44
44
44
44
44
3C
ENDCHAR

STARTCHAR 00EA
ENCODING 43194
SWIDTH 500 0
DWIDTH 7 0
BBX 5 9 1 0
BITMAP
70
00
00
78
88
F8
80
80
70
ENDCHAR

STARTCHAR 3105
ENCODING 43205
SWIDTH 1000 0
DWIDTH 14 0
BBX 9 12 2 -1
BITMAP
2000
3000
2000
4780
F880
0080
0080
0100
0100
0100
0600
0400
ENDCHAR

STARTCHAR 3106
ENCODING 43206
SWIDTH 1000 0
DWIDTH 14 0
BBX 7 11 4 0
BITMAP
20
40
40
BE
42
04
24
18
18
24
C0
ENDCHAR

STARTCHAR 3107
ENCODING 43207
SWIDTH 1000 0
DWIDTH 14 0
BBX 8 7 3 1
BITMAP
FF
81
81
81
81
82
80
ENDCHAR

STARTCHAR 3108
ENCODING 43208
SWIDTH 1000 0
DWIDTH 14 0
BBX 10 10 2 0
BITMAP
0380
FC00
4000
4000
4000
4000
4000
4000
4040
3F80
ENDCHAR

STARTCHAR 3109
ENCODING 43209
SWIDTH 1000 0
DWIDTH 14 0
BBX 10 11 2 -1
BITMAP
1000
2000
4FC0
7C40
0880
0880
1080
2080
4100
8300
0200
ENDCHAR

STARTCHAR 310A
ENCODING 43210
SWIDTH 1000 0
DWIDTH 14 0
BBX 10 10 2 0
BITMAP
0800
0800
0800
3FC0
C800
1000
1000
2000
4F00
7080
ENDCHAR

STARTCHAR 310B
ENCODING 43211
SWIDTH 1000 0
DWIDTH 14 0
BBX 8 10 3 0
BITMAP
FC
04
08
13
0D
01
01
02
02
0C
ENDCHAR

STARTCHAR 310C
ENCODING 43212
SWIDTH 1000 0
DWIDTH 14 0
BBX 9 12 3 -1
BITMAP
0C00
4800
4800
8800
8F80
7100
1100
2100
2100
4200
8600
0400
ENDCHAR

STARTCHAR 310D
ENCODING 43213
SWIDTH 1000 0
DWIDTH 14 0
BBX 7 10 3 0
BITMAP
22
22
44
84
88
88
44
42
22
22
ENDCHAR

STARTCHAR 310E
ENCODING 43214
SWIDTH 1000 0
DWIDTH 14 0
BBX 10 11 2 -1
BITMAP
01C0
FE00
0800
1000
1F80
0100
0100
0100
0100
0600
0400
ENDCHAR

STARTCHAR 310F
ENCODING 43215
SWIDTH 1000 0
DWIDTH 14 0
BBX 10 10 2 0
BITMAP
07C0
7800
2000
4000
4000
4000
4000
4000
4000
8000
ENDCHAR

STARTCHAR 3110
ENCODING 43216
SWIDTH 1000 0
DWIDTH 14 0
BBX 5 12 4 -1
BITMAP
08
08
88
88
88
88
88
F8
08
08
08
08
ENDCHAR

STARTCHAR 3111
ENCODING 43217
SWIDTH 1000 0
DWIDTH 14 0
BBX 5 10 4 0
BITMAP
10
20
20
40
80
80
40
30
18
08
ENDCHAR

STARTCHAR 3112
ENCODING 43218
SWIDTH 1000 0
DWIDTH 14 0
BBX 10 10 2 0
BITMAP
03C0
FC00
0800
0800
0800
0800
0800
0800
0800
0800
ENDCHAR

STARTCHAR 3113
ENCODING 43219
SWIDTH 1000 0
DWIDTH 14 0
BBX 10 12 2 -1
BITMAP
0800
0400
0800
4880
4880
4880
4880
7F00
0800
0800
0FC0
F000
ENDCHAR

STARTCHAR 3114
ENCODING 43220
SWIDTH 1000 0
DWIDTH 14 0
BBX 6 11 4 0
BITMAP
08
18
20
4C
90
10
70
90
10
10
10
ENDCHAR

STARTCHAR 3115
ENCODING 43221
SWIDTH 1000 0
DWIDTH 14 0
BBX 9 10 2 0
BITMAP
3F80
0100
0100
3E00
2000
2000
2000
4000
4000
8000
ENDCHAR

STARTCHAR 3116
ENCODING 43222
SWIDTH 1000 0
DWIDTH 14 0
BBX 7 10 3 0
BITMAP
06
7A
82
82
92
8A
82
82
8E
72
ENDCHAR

STARTCHAR 3117
ENCODING 43223
SWIDTH 1000 0
DWIDTH 14 0
BBX 7 11 4 -1
BITMAP
3E
C2
42
44
44
54
48
40
40
40
40
ENDCHAR

STARTCHAR 3118
ENCODING 43224
SWIDTH 1000 0
DWIDTH 14 0
BBX 11 12 1 -1
BITMAP
0400
0600
0400
FFE0
0800
1080
1F80
0080
0080
0100
0100
0200
ENDCHAR

STARTCHAR 3119
ENCODING 43225
SWIDTH 1000 0
DWIDTH 14 0
BBX 10 10 2 0
BITMAP
0400
0400
0800
0800
1000
1000
2000
4100
47C0
F840
ENDCHAR

STARTCHAR 311A
ENCODING 43226
SWIDTH 1000 0
DWIDTH 14 0
BBX 8 11 3 -1
BITMAP
83
44
28
10
10
10
10
10
10
10
10
ENDCHAR

STARTCHAR 311B
ENCODING 43227
SWIDTH 1000 0
DWIDTH 14 0
BBX 10 10 2 0
BITMAP
01C0
FE00
0400
0400
7800
4000
4000
4000
4000
3F00
ENDCHAR

STARTCHAR 311C
ENCODING 43228
SWIDTH 1000 0
DWIDTH 14 0
BBX 10 12 2 -1
BITMAP
0C00
0400
0400
FFC0
0400
0400
3800
4000
4000
4000
3080
0F00
ENDCHAR

STARTCHAR 311D
ENCODING 43229
SWIDTH 1000 0
DWIDTH 14 0
BBX 11 11 1 0
BITMAP
0100
1180
1100
1100
11E0
FF00
1100
1200
1200
1000
0FE0
ENDCHAR

STARTCHAR 311E
ENCODING 43230
SWIDTH 1000 0
DWIDTH 14 0
BBX 10 10 2 0
BITMAP
FF80
4400
4400
4800
FFC0
0880
0880
1080
2100
4100
ENDCHAR

STARTCHAR 311F
ENCODING 43231
SWIDTH 1000 0
DWIDTH 14 0
BBX 9 11 3 -1
BITMAP
3000
D000
1000
1000
1000
1000
0800
0800
0400
0300
0080
ENDCHAR

STARTCHAR 3120
ENCODING 43232
SWIDTH 1000 0
DWIDTH 14 0
BBX 9 11 3 0
BITMAP
1000
1000
2000
2000
4200
8400
F800
1000
2200
4100
FF80
ENDCHAR

STARTCHAR 3121
ENCODING 43233
SWIDTH 1000 0
DWIDTH 14 0
BBX 8 10 3 0
BITMAP
0E
72
02
42
24
18
0C
12
23
C0
ENDCHAR

STARTCHAR 3122
ENCODING 43234
SWIDTH 1000 0
DWIDTH 14 0
BBX 9 11 3 -1
BITMAP
FE00
4200
4400
8400
8100
FF80
0100
0100
0200
0200
0400
ENDCHAR

STARTCHAR 3123
ENCODING 43235
SWIDTH 1000 0
DWIDTH 14 0
BBX 10 10 2 0
BITMAP
4000
4000
4000
4000
8000
FFC0
0040
0080
0080
0080
ENDCHAR

STARTCHAR 3124
ENCODING 43236
SWIDTH 1000 0
DWIDTH 14 0
BBX 11 12 2 -1
BITMAP
0800
0800
0800
0FC0
FA00
1200
1400
1400
2400
4400
8260
0180
ENDCHAR

STARTCHAR 3125
ENCODING 43237
SWIDTH 1000 0
DWIDTH 14 0
BBX 9 10 2 0
BITMAP
0800
0800
1000
1000
2000
2000
4000
4000
8000
FF80
ENDCHAR

STARTCHAR 3126
ENCODING 43238
SWIDTH 1000 0
DWIDTH 14 0
BBX 11 10 2 0
BITMAP
3400
2400
2400
2400
2400
2400
2400
2400
4400
83E0
ENDCHAR

STARTCHAR 3127
ENCODING 43239
SWIDTH 1000 0
DWIDTH 14 0
BBX 1 11 6 -1
BITMAP
80
80
80
80
80
80
80
80
80
80
80
ENDCHAR

STARTCHAR 3128
ENCODING 43240
SWIDTH 1000 0
DWIDTH 14 0
BBX 9 10 2 0
BITMAP
0080
0080
0100
3100
0A00
0400
0A00
1100
2080
C000
ENDCHAR

STARTCHAR 3129
ENCODING 43241
SWIDTH 1000 0
DWIDTH 14 0
BBX 9 8 2 1
BITMAP
0080
8080
8080
8080
8080
8080
8780
F880
ENDCHAR

STARTCHAR 2500
ENCODING 43428
SWIDTH 1000 0
DWIDTH 14 0
BBX 14 2 0 4
BITMAP
FFFC
FFFC
ENDCHAR

STARTCHAR 2501
ENCODING 43429
SWIDTH 1000 0
DWIDTH 14 0
BBX 14 2 0 4
BITMAP
FFFC
FFFC
ENDCHAR

STARTCHAR 2502
ENCODING 43430
SWIDTH 1000 0
DWIDTH 14 0
BBX 2 14 6 -2
BITMAP
C0
C0
C0
C0
C0
C0
C0
C0
C0
C0
C0
C0
C0
C0
ENDCHAR

STARTCHAR 2503
ENCODING 43431
SWIDTH 1000 0
DWIDTH 14 0
BBX 2 14 6 -2
BITMAP
C0
C0
C0
C0
C0
C0
C0
C0
C0
C0
C0
C0
C0
C0
ENDCHAR

STARTCHAR 2504
ENCODING 43432
SWIDTH 1000 0
DWIDTH 14 0
BBX 14 2 0 4
BITMAP
E7BC
E7BC
ENDCHAR

STARTCHAR 2505
ENCODING 43433
SWIDTH 1000 0
DWIDTH 14 0
BBX 14 2 0 4
BITMAP
E7BC
E7BC
ENDCHAR

STARTCHAR 2506
ENCODING 43434
SWIDTH 1000 0
DWIDTH 14 0
BBX 2 14 6 -2
BITMAP
C0
C0
C0
00
00
C0
C0
C0
C0
00
00
C0
C0
C0
ENDCHAR

STARTCHAR 2507
ENCODING 43435
SWIDTH 1000 0
DWIDTH 14 0
BBX 2 14 6 -2
BITMAP
C0
C0
C0
00
00
C0
C0
C0
C0
00
00
C0
C0
C0
ENDCHAR

STARTCHAR 2508
ENCODING 43436
SWIDTH 1000 0
DWIDTH 14 0
BBX 14 2 0 4
BITMAP
EFDC
EFDC
ENDCHAR

STARTCHAR 2509
ENCODING 43437
SWIDTH 1000 0
DWIDTH 14 0
BBX 14 2 0 4
BITMAP
EFDC
EFDC
ENDCHAR

STARTCHAR 250A
ENCODING 43438
SWIDTH 1000 0
DWIDTH 14 0
BBX 2 14 6 -2
BITMAP
C0
C0
C0
00
C0
C0
C0
C0
C0
C0
00
C0
C0
C0
ENDCHAR

STARTCHAR 250B
ENCODING 43439
SWIDTH 1000 0
DWIDTH 14 0
BBX 2 14 6 -2
BITMAP
C0
C0
C0
00
C0
C0
C0
C0
C0
C0
00
C0
C0
C0
ENDCHAR

STARTCHAR 250C
ENCODING 43440
SWIDTH 1000 0
DWIDTH 14 0
BBX 8 8 6 -2
BITMAP
FF
FF
C0
C0
C0
C0
C0
C0
ENDCHAR

STARTCHAR 250D
ENCODING 43441
SWIDTH 1000 0
DWIDTH 14 0
BBX 8 8 6 -2
BITMAP
FF
FF
C0
C0
C0
C0
C0
C0
ENDCHAR

STARTCHAR 250E
ENCODING 43442
SWIDTH 1000 0
DWIDTH 14 0
BBX 8 8 6 -2
BITMAP
FF
FF
C0
C0
C0
C0
C0
C0
ENDCHAR

STARTCHAR 250F
ENCODING 43443
SWIDTH 1000 0
DWIDTH 14 0
BBX 8 8 6 -2
BITMAP
FF
FF
C0
C0
C0
C0
C0
C0
ENDCHAR

STARTCHAR 2510
ENCODING 43444
SWIDTH 1000 0
DWIDTH 14 0
BBX 8 8 0 -2
BITMAP
FF
FF
03
03
03
03
03
03
ENDCHAR

STARTCHAR 2511
ENCODING 43445
SWIDTH 1000 0
DWIDTH 14 0
BBX 8 8 0 -2
BITMAP
FF
FF
03
03
03
03
03
03
ENDCHAR

STARTCHAR 2512
ENCODING 43446
SWIDTH 1000 0
DWIDTH 14 0
BBX 8 8 0 -2
BITMAP
FF
FF
03
03
03
03
03
03
ENDCHAR

STARTCHAR 2513
ENCODING 43447
SWIDTH 1000 0
DWIDTH 14 0
BBX 8 8 0 -2
BITMAP
FF
FF
03
03
03
03
03
03
ENDCHAR

STARTCHAR 2514
ENCODING 43448
SWIDTH 1000 0
DWIDTH 14 0
BBX 8 8 6 4
BITMAP
C0
C0
C0
C0
C0
C0
FF
FF
ENDCHAR

STARTCHAR 2515
ENCODING 43449
SWIDTH 1000 0
DWIDTH 14 0
BBX 8 8 6 4
BITMAP
C0
C0
C0
C0
C0
C0
FF
FF
ENDCHAR

STARTCHAR 2516
ENCODING 43450
SWIDTH 1000 0
DWIDTH 14 0
BBX 8 8 6 4
BITMAP
C0
C0
C0
C0
C0
C0
FF
FF
ENDCHAR

STARTCHAR 2517
ENCODING 43451
SWIDTH 1000 0
DWIDTH 14 0
BBX 8 8 6 4
BITMAP
C0
C0
C0
C0
C0
C0
FF
FF
ENDCHAR

STARTCHAR 2518
ENCODING 43452
SWIDTH 1000 0
DWIDTH 14 0
BBX 8 8 0 4
BITMAP
03
03
03
03
03
03
FF
FF
ENDCHAR

STARTCHAR 2519
ENCODING 43453
SWIDTH 1000 0
DWIDTH 14 0
BBX 8 8 0 4
BITMAP
03
03
03
03
03
03
FF
FF
ENDCHAR

STARTCHAR 251A
ENCODING 43454
SWIDTH 1000 0
DWIDTH 14 0
BBX 8 8 0 4
BITMAP
03
03
03
03
03
03
FF
FF
ENDCHAR

STARTCHAR 251B
ENCODING 43455
SWIDTH 1000 0
DWIDTH 14 0
BBX 8 8 0 4
BITMAP
03
03
03
03
03
03
FF
FF
ENDCHAR

STARTCHAR 251C
ENCODING 43456
SWIDTH 1000 0
DWIDTH 14 0
BBX 8 14 6 -2
BITMAP
C0
C0
C0
C0
C0
C0
FF
FF
C0
C0
C0
C0
C0
C0
ENDCHAR

STARTCHAR 251D
ENCODING 43457
SWIDTH 1000 0
DWIDTH 14 0
BBX 8 14 6 -2
BITMAP
C0
C0
C0
C0
C0
C0
FF
FF
C0
C0
C0
C0
C0
C0
ENDCHAR

STARTCHAR 251E
ENCODING 43458
SWIDTH 1000 0
DWIDTH 14 0
BBX 8 14 6 -2
BITMAP
C0
C0
C0
C0
C0
C0
FF
FF
C0
C0
C0
C0
C0
C0
ENDCHAR

STARTCHAR 251F
ENCODING 43459
SWIDTH 1000 0
DWIDTH 14 0
BBX 8 14 6 -2
BITMAP
C0
C0
C0
C0
C0
C0
FF
FF
C0
C0
C0
C0
C0
C0
ENDCHAR

STARTCHAR 2520
ENCODING 43460
SWIDTH 1000 0
DWIDTH 14 0
BBX 8 14 6 -2
BITMAP
C0
C0
C0
C0
C0
C0
FF
FF
C0
C0
C0
C0
C0
C0
ENDCHAR

STARTCHAR 2521
ENCODING 43461
SWIDTH 1000 0
DWIDTH 14 0
BBX 8 14 6 -2
BITMAP
C0
C0
C0
C0
C0
C0
FF
FF
C0
C0
C0
C0
C0
C0
ENDCHAR

STARTCHAR 2522
ENCODING 43462
SWIDTH 1000 0
DWIDTH 14 0
BBX 8 14 6 -2
BITMAP
C0
C0
C0
C0
C0
C0
FF
FF
C0
C0
C0
C0
C0
C0
ENDCHAR

STARTCHAR 2523
ENCODING 43463
SWIDTH 1000 0
DWIDTH 14 0
BBX 8 14 6 -2
BITMAP
C0
C0
C0
C0
C0
C0
FF
FF
C0
C0
C0
C0
C0
C0
ENDCHAR

STARTCHAR 2524
ENCODING 43464
SWIDTH 1000 0
DWIDTH 14 0
BBX 8 14 0 -2
BITMAP
03
03
03
03
03
03
FF
FF
03
03
03
03
03
03
ENDCHAR

STARTCHAR 2525
ENCODING 43465
SWIDTH 1000 0
DWIDTH 14 0
BBX 8 14 0 -2
BITMAP
03
03
03
03
03
03
FF
FF
03
03
03
03
03
03
ENDCHAR

STARTCHAR 2526
ENCODING 43466
SWIDTH 1000 0
DWIDTH 14 0
BBX 8 14 0 -2
BITMAP
03
03
03
03
03
03
FF
FF
03
03
03
03
03
03
ENDCHAR

STARTCHAR 2527
ENCODING 43467
SWIDTH 1000 0
DWIDTH 14 0
BBX 8 14 0 -2
BITMAP
03
03
03
03
03
03
FF
FF
03
03
03
03
03
03
ENDCHAR

STARTCHAR 2528
ENCODING 43468
SWIDTH 1000 0
DWIDTH 14 0
BBX 8 14 0 -2
BITMAP
03
03
03
03
03
03
FF
FF
03
03
03
03
03
03
ENDCHAR

STARTCHAR 2529
ENCODING 43469
SWIDTH 1000 0
DWIDTH 14 0
BBX 8 14 0 -2
BITMAP
03
03
03
03
03
03
FF
FF
03
03
03
03
03
03
ENDCHAR

STARTCHAR 252A
ENCODING 43470
SWIDTH 1000 0
DWIDTH 14 0
BBX 8 14 0 -2
BITMAP
03
03
03
03
03
03
FF
FF
03
03
03
03
03
03
ENDCHAR

STARTCHAR 252B
ENCODING 43471
SWIDTH 1000 0
DWIDTH 14 0
BBX 8 14 0 -2
BITMAP
03
03
03
03
03
03
FF
FF
03
03
03
03
03
03
ENDCHAR

STARTCHAR 252C
ENCODING 43472
SWIDTH 1000 0
DWIDTH 14 0
BBX 14 8 0 -2
BITMAP
FFFC
FFFC
0300
0300
0300
0300
0300
0300
ENDCHAR

STARTCHAR 252D
ENCODING 43473
SWIDTH 1000 0
DWIDTH 14 0
BBX 14 8 0 -2
BITMAP
FFFC
FFFC
0300
0300
0300
0300
0300
0300
ENDCHAR

STARTCHAR 252E
ENCODING 43474
SWIDTH 1000 0
DWIDTH 14 0
BBX 14 8 0 -2
BITMAP
FFFC
FFFC
0300
0300
0300
0300
0300
0300
ENDCHAR

STARTCHAR 252F
ENCODING 43475
SWIDTH 1000 0
DWIDTH 14 0
BBX 14 8 0 -2
BITMAP
FFFC
FFFC
0300
0300
0300
0300
0300
0300
ENDCHAR

STARTCHAR 2530
ENCODING 43476
SWIDTH 1000 0
DWIDTH 14 0
BBX 14 8 0 -2
BITMAP
FFFC
FFFC
0300
0300
0300
0300
0300
0300
ENDCHAR

STARTCHAR 2531
ENCODING 43477
SWIDTH 1000 0
DWIDTH 14 0
BBX 14 8 0 -2
BITMAP
FFFC
FFFC
0300
0300
0300
0300
0300
0300
ENDCHAR

STARTCHAR 2532
ENCODING 43478
SWIDTH 1000 0
DWIDTH 14 0
BBX 14 8 0 -2
BITMAP
FFFC
FFFC
0300
0300
0300
0300
0300
0300
ENDCHAR

STARTCHAR 2533
ENCODING 43479
SWIDTH 1000 0
DWIDTH 14 0
BBX 14 8 0 -2
BITMAP
FFFC
FFFC
0300
0300
0300
0300
0300
0300
ENDCHAR

STARTCHAR 2534
ENCODING 43480
SWIDTH 1000 0
DWIDTH 14 0
BBX 14 8 0 4
BITMAP
0300
0300
0300
0300
0300
0300
FFFC
FFFC
ENDCHAR

STARTCHAR 2535
ENCODING 43481
SWIDTH 1000 0
DWIDTH 14 0
BBX 14 8 0 4
BITMAP
0300
0300
0300
0300
0300
0300
FFFC
FFFC
ENDCHAR

STARTCHAR 2536
ENCODING 43482
SWIDTH 1000 0
DWIDTH 14 0
BBX 14 8 0 4
BITMAP
0300
0300
0300
0300
0300
0300
FFFC
FFFC
ENDCHAR

STARTCHAR 2537
ENCODING 43483
SWIDTH 1000 0
DWIDTH 14 0
BBX 14 8 0 4
BITMAP
0300
0300
0300
0300
0300
0300
FFFC
FFFC
ENDCHAR

STARTCHAR 2538
ENCODING 43484
SWIDTH 1000 0
DWIDTH 14 0
BBX 14 8 0 4
BITMAP
0300
0300
0300
0300
0300
0300
FFFC
FFFC
ENDCHAR

STARTCHAR 2539
ENCODING 43485
SWIDTH 1000 0
DWIDTH 14 0
BBX 14 8 0 4
BITMAP
0300
0300
0300
0300
0300
0300
FFFC
FFFC
ENDCHAR

STARTCHAR 253A
ENCODING 43486
SWIDTH 1000 0
DWIDTH 14 0
BBX 14 8 0 4
BITMAP
0300
0300
0300
0300
0300
0300
FFFC
FFFC
ENDCHAR

STARTCHAR 253B
ENCODING 43487
SWIDTH 1000 0
DWIDTH 14 0
BBX 14 8 0 4
BITMAP
0300
0300
0300
0300
0300
0300
FFFC
FFFC
ENDCHAR

STARTCHAR 253C
ENCODING 43488
SWIDTH 1000 0
DWIDTH 14 0
BBX 14 14 0 -2
BITMAP
0300
0300
0300
0300
0300
0300
FFFC
FFFC
0300
0300
0300
0300
0300
0300
ENDCHAR

STARTCHAR 253D
ENCODING 43489
SWIDTH 1000 0
DWIDTH 14 0
BBX 14 14 0 -2
BITMAP
0300
0300
0300
0300
0300
0300
FFFC
FFFC
0300
0300
0300
0300
0300
0300
ENDCHAR

STARTCHAR 253E
ENCODING 43490
SWIDTH 1000 0
DWIDTH 14 0
BBX 14 14 0 -2
BITMAP
0300
0300
0300
0300
0300
0300
FFFC
FFFC
0300
0300
0300
0300
0300
0300
ENDCHAR

STARTCHAR 253F
ENCODING 43491
SWIDTH 1000 0
DWIDTH 14 0
BBX 14 14 0 -2
BITMAP
0300
0300
0300
0300
0300
0300
FFFC
FFFC
0300
0300
0300
0300
0300
0300
ENDCHAR

STARTCHAR 2540
ENCODING 43492
SWIDTH 1000 0
DWIDTH 14 0
BBX 14 14 0 -2
BITMAP
0300
0300
0300
0300
0300
0300
FFFC
FFFC
0300
0300
0300
0300
0300
0300
ENDCHAR

STARTCHAR 2541
ENCODING 43493
SWIDTH 1000 0
DWIDTH 14 0
BBX 14 14 0 -2
BITMAP
0300
0300
0300
0300
0300
0300
FFFC
FFFC
0300
0300
0300
0300
0300
0300
ENDCHAR

STARTCHAR 2542
ENCODING 43494
SWIDTH 1000 0
DWIDTH 14 0
BBX 14 14 0 -2
BITMAP
0300
0300
0300
0300
0300
0300
FFFC
FFFC
0300
0300
0300
0300
0300
0300
ENDCHAR

STARTCHAR 2543
ENCODING 43495
SWIDTH 1000 0
DWIDTH 14 0
BBX 14 14 0 -2
BITMAP
0300
0300
0300
0300
0300
0300
FFFC
FFFC
0300
0300
0300
0300
0300
0300
ENDCHAR

STARTCHAR 2544
ENCODING 43496
SWIDTH 1000 0
DWIDTH 14 0
BBX 14 14 0 -2
BITMAP
0300
0300
0300
0300
0300
0300
FFFC
FFFC
0300
0300
0300
0300
0300
0300
ENDCHAR

STARTCHAR 2545
ENCODING 43497
SWIDTH 1000 0
DWIDTH 14 0
BBX 14 14 0 -2
BITMAP
0300
0300
0300
0300
0300
0300
FFFC
FFFC
0300
0300
0300
0300
0300
0300
ENDCHAR

STARTCHAR 2546
ENCODING 43498
SWIDTH 1000 0
DWIDTH 14 0
BBX 14 14 0 -2
BITMAP
0300
0300
0300
0300
0300
0300
FFFC
FFFC
0300
0300
0300
0300
0300
0300
ENDCHAR

STARTCHAR 2547
ENCODING 43499
SWIDTH 1000 0
DWIDTH 14 0
BBX 14 14 0 -2
BITMAP
0300
0300
0300
0300
0300
0300
FFFC
FFFC
0300
0300
0300
0300
0300
0300
ENDCHAR

STARTCHAR 2548
ENCODING 43500
SWIDTH 1000 0
DWIDTH 14 0
BBX 14 14 0 -2
BITMAP
0300
0300
0300
0300
0300
0300
FFFC
FFFC
0300
0300
0300
0300
0300
0300
ENDCHAR

STARTCHAR 2549
ENCODING 43501
SWIDTH 1000 0
DWIDTH 14 0
BBX 14 14 0 -2
BITMAP
0300
0300
0300
0300
0300
0300
FFFC
FFFC
0300
0300
0300
0300
0300
0300
ENDCHAR

STARTCHAR 254A
ENCODING 43502
SWIDTH 1000 0
DWIDTH 14 0
BBX 14 14 0 -2
BITMAP
0300
0300
0300
0300
0300
0300
FFFC
FFFC
0300
0300
0300
0300
0300
0300
ENDCHAR

STARTCHAR 254B
ENCODING 43503
SWIDTH 1000 0
DWIDTH 14 0
BBX 14 14 0 -2
BITMAP
0300
0300
0300
0300
0300
0300
FFFC
FFFC
0300
0300
0300
0300
0300
0300
ENDCHAR

STARTCHAR 554A
ENCODING 45217
SWIDTH 1000 0
DWIDTH 14 0
BBX 12 11 1 -1
BITMAP
EFF0
AA10
ADD0
AD50
AD50
AB50
AB50
EBD0
AC10
8810
0820
ENDCHAR

STARTCHAR 963F
ENCODING 45218
SWIDTH 1000 0
DWIDTH 14 0
BBX 11 12 2 -1
BITMAP
0FE0
E040
A040
CF40
C940
A940
A940
9F40
E940
8040
8040
8080
ENDCHAR

STARTCHAR 57C3
ENCODING 45219
SWIDTH 1000 0
DWIDTH 14 0
BBX 12 12 1 -1
BITMAP
4100
4240
45A0
4250
7600
47E0
4500
4100
37E0
C340
0660
0C10
ENDCHAR

STARTCHAR 6328
ENCODING 45220
SWIDTH 1000 0
DWIDTH 14 0
BBX 12 12 1 -1
BITMAP
2100
2240
2420
F3D0
2200
27E0
3500
E100
27E0
2140
2260
6C30
ENDCHAR

STARTCHAR 54CE
ENCODING 45221
SWIDTH 1000 0
DWIDTH 14 0
BBX 12 12 1 -1
BITMAP
0240
8240
B7F0
9240
9000
9240
9240
9240
F180
9180
83C0
0C30
ENDCHAR

STARTCHAR 5509
ENCODING 45222
SWIDTH 1000 0
DWIDTH 14 0
BBX 12 12 1 -1
BITMAP
0100
F260
9460
9390
9200
97E0
9500
F100
9FF0
8140
0260
0C30
ENDCHAR

STARTCHAR 54C0
ENCODING 45223
SWIDTH 1000 0
DWIDTH 14 0
BBX 12 12 1 -1
BITMAP
0200
FFF0
0000
3FC0
2040
2040
3FC0
0840
3140
F180
14E0
1830
ENDCHAR

STARTCHAR 7691
ENCODING 45224
SWIDTH 1000 0
DWIDTH 14 0
BBX 12 12 1 -1
BITMAP
2080
2090
F490
97F0
9000
97F0
F030
9030
93F0
F200
9210
83F0
ENDCHAR

STARTCHAR 764C
ENCODING 45225
SWIDTH 1000 0
DWIDTH 14 0
BBX 12 12 1 -1
BITMAP
0100
3FF0
A000
A7C0
A7C0
2000
6EF0
A290
4400
4910
4910
8FF0
ENDCHAR

STARTCHAR 853C
ENCODING 45226
SWIDTH 1000 0
DWIDTH 14 0
BBX 12 12 1 -1
BITMAP
0100
FFF0
0000
67E0
07E0
0420
E380
27E0
3920
26E0
3420
07E0
ENDCHAR

STARTCHAR 77EE
ENCODING 45227
SWIDTH 1000 0
DWIDTH 14 0
BBX 12 12 1 -1
BITMAP
40E0
4380
7080
A7F0
A2C0
24B0
F080
27F0
6100
5340
40E0
8730
ENDCHAR

STARTCHAR 827E
ENCODING 45228
SWIDTH 1000 0
DWIDTH 14 0
BBX 12 12 1 -1
BITMAP
0900
0900
FFF0
0900
0000
1080
1180
0900
0E00
0600
1980
E070
ENDCHAR

STARTCHAR 788D
ENCODING 45229
SWIDTH 1000 0
DWIDTH 14 0
BBX 11 12 1 -1
BITMAP
03E0
FA20
43E0
4220
73E0
D000
53E0
5040
53E0
7240
4340
00C0
ENDCHAR

STARTCHAR 7231
ENCODING 45230
SWIDTH 1000 0
DWIDTH 14 0
BBX 12 12 1 -1
BITMAP
01E0
7E00
3240
0080
BF70
8410
3FC0
1000
3FC0
6C80
0700
1DF0
ENDCHAR

STARTCHAR 9698
ENCODING 45231
SWIDTH 1000 0
DWIDTH 14 0
BBX 12 12 1 -1
BITMAP
0240
F340
A890
A760
A240
A430
9000
97E0
96A0
A6A0
86A0
9FF0
ENDCHAR

STARTCHAR 978D
ENCODING 45232
SWIDTH 1000 0
DWIDTH 14 0
BBX 13 12 0 -1
BITMAP
2040
7E00
29F8
3908
1040
7C40
55F8
7C90
1090
FE60
1050
1388
ENDCHAR

STARTCHAR 6C28
ENCODING 45233
SWIDTH 1000 0
DWIDTH 14 0
BBX 12 12 1 -1
BITMAP
3000
2FC0
5FC0
8000
7FC0
0840
7F40
1040
7FC0
2240
1C30
73B0
ENDCHAR

STARTCHAR 5B89
ENCODING 45234
SWIDTH 1000 0
DWIDTH 14 0
BBX 12 12 1 -1
BITMAP
0600
0200
7FE0
4020
0C00
0800
FFF0
1080
3900
0700
0DC0
7060
ENDCHAR

STARTCHAR 4FFA
ENCODING 45235
SWIDTH 1000 0
DWIDTH 14 0
BBX 13 12 0 -1
BITMAP
1080
17F8
2140
2220
6498
EFF8
2490
27F0
2490
27E0
2088
20F8
ENDCHAR

STARTCHAR 6309
ENCODING 45236
SWIDTH 1000 0
DWIDTH 14 0
BBX 12 12 1 -1
BITMAP
2100
2080
27F0
F810
2900
2100
37F0
E240
2640
2180
2160
4E30
ENDCHAR

STARTCHAR 6697
ENCODING 45237
SWIDTH 1000 0
DWIDTH 14 0
BBX 11 12 1 -1
BITMAP
0180
F7E0
9000
9240
9000
FFE0
9000
97E0
9420
95A0
8420
07E0
ENDCHAR

STARTCHAR 5CB8
ENCODING 45238
SWIDTH 1000 0
DWIDTH 14 0
BBX 12 12 1 -1
BITMAP
0200
4220
3FE0
0000
7FF0
4000
5FE0
4000
4200
5FF0
4200
8000
ENDCHAR

STARTCHAR 80FA
ENCODING 45239
SWIDTH 1000 0
DWIDTH 14 0
BBX 12 12 1 -1
BITMAP
0080
F000
97F0
9410
F080
9100
97F0
F240
9340
90C0
91E0
B610
ENDCHAR

STARTCHAR 6848
ENCODING 45240
SWIDTH 1000 0
DWIDTH 14 0
BBX 12 12 1 -1
BITMAP
0600
FFF0
8800
FFF0
1080
0F00
0EE0
7200
FFF0
0D00
34C0
C030
ENDCHAR

STARTCHAR 80AE
ENCODING 45241
SWIDTH 1000 0
DWIDTH 14 0
BBX 12 12 1 -1
BITMAP
0080
7080
97F0
9000
7000
93C0
9240
7240
9240
9240
9650
B470
ENDCHAR

STARTCHAR 6602
ENCODING 45242
SWIDTH 1000 0
DWIDTH 14 0
BBX 10 12 2 -1
BITMAP
7F80
4080
7F80
4080
7F80
0000
F7C0
8440
8440
9440
E4C0
0400
ENDCHAR

STARTCHAR 76CE
ENCODING 45243
SWIDTH 1000 0
DWIDTH 14 0
BBX 12 12 1 -1
BITMAP
0400
3FC0
2440
2440
FFF0
0880
3060
C010
3FC0
2940
2940
FFF0
ENDCHAR

STARTCHAR 51F9
ENCODING 45244
SWIDTH 1000 0
DWIDTH 14 0
BBX 10 11 2 -1
BITMAP
F3C0
9240
9240
9240
9240
9E40
8040
8040
8040
FFC0
8040
ENDCHAR

STARTCHAR 6556
ENCODING 45245
SWIDTH 1000 0
DWIDTH 14 0
BBX 12 12 1 -1
BITMAP
1080
FE80
11F0
7D20
1120
FD20
2120
3CC0
24C0
44C0
48A0
9B10
ENDCHAR

STARTCHAR 71AC
ENCODING 45246
SWIDTH 1000 0
DWIDTH 14 0
BBX 12 12 1 -1
BITMAP
1080
FD00
11F0
7F20
1120
68C0
3CC0
44E0
DD30
0000
4920
C910
ENDCHAR

STARTCHAR 7FF1
ENCODING 45247
SWIDTH 1000 0
DWIDTH 14 0
BBX 12 12 1 -1
BITMAP
2000
7B70
8910
BB50
7B50
2350
FD10
4930
AF50
2110
3110
2130
ENDCHAR

STARTCHAR 8884
ENCODING 45248
SWIDTH 1000 0
DWIDTH 14 0
BBX 12 12 1 -1
BITMAP
6020
27C0
0100
7100
2100
27F0
F980
B180
2940
2240
2420
2C10
ENDCHAR

STARTCHAR 50B2
ENCODING 45249
SWIDTH 1000 0
DWIDTH 14 0
BBX 12 12 1 -1
BITMAP
2440
2440
4C80
5EA0
C4A0
DEA0
48A0
4EA0
4A60
5240
56E0
4190
ENDCHAR

STARTCHAR 5965
ENCODING 45250
SWIDTH 1000 0
DWIDTH 14 0
BBX 12 12 1 -1
BITMAP
0400
7FE0
4420
4D20
5FA0
4520
58A0
4020
FFF0
0600
0980
F070
ENDCHAR

STARTCHAR 61CA
ENCODING 45251
SWIDTH 1000 0
DWIDTH 14 0
BBX 12 12 1 -1
BITMAP
0100
4FE0
4B20
DB60
DBE0
C920
4A60
4800
5FF0
4180
42C0
1C30
ENDCHAR

STARTCHAR 6FB3
ENCODING 45252
SWIDTH 1000 0
DWIDTH 14 0
BBX 12 12 1 -1
BITMAP
4200
6FE0
0920
0B60
4FE0
0B20
0B60
2820
4100
4FE0
86C0
9870
ENDCHAR

STARTCHAR 82AD
ENCODING 45253
SWIDTH 1000 0
DWIDTH 14 0
BBX 12 12 1 -1
BITMAP
0900
FFF0
0900
0900
3FC0
2240
2240
3FC0
2040
2000
2030
3FE0
ENDCHAR

STARTCHAR 634C
ENCODING 45254
SWIDTH 1000 0
DWIDTH 14 0
BBX 11 12 1 -1
BITMAP
4000
4F20
4960
E960
4060
4460
EF60
4560
4560
4920
4920
D260
ENDCHAR

STARTCHAR 6252
ENCODING 45255
SWIDTH 1000 0
DWIDTH 14 0
BBX 12 12 1 -1
BITMAP
2000
2240
2240
F240
2240
2240
3240
E440
2420
2420
2830
4800
ENDCHAR

STARTCHAR 53ED
ENCODING 45256
SWIDTH 1000 0
DWIDTH 14 0
BBX 12 11 1 -1
BITMAP
F280
9280
9240
9240
9240
9240
F440
9460
8820
1830
3010
ENDCHAR

STARTCHAR 5427
ENCODING 45257
SWIDTH 1000 0
DWIDTH 14 0
BBX 12 11 1 -1
BITMAP
F7E0
94A0
94A0
94A0
94A0
97E0
9420
9400
8400
0410
03E0
ENDCHAR

STARTCHAR 7B06
ENCODING 45258
SWIDTH 1000 0
DWIDTH 14 0
BBX 12 12 1 -1
BITMAP
6100
7DF0
9240
9A20
0000
7FC0
4440
4440
7FC0
4000
4030
3FE0
ENDCHAR

STARTCHAR 516B
ENCODING 45259
SWIDTH 1000 0
DWIDTH 14 0
BBX 12 10 1 0
BITMAP
1900
1900
1100
1080
1080
1080
20C0
2040
6060
C030
ENDCHAR

STARTCHAR 75A4
ENCODING 45260
SWIDTH 1000 0
DWIDTH 14 0
BBX 12 12 1 -1
BITMAP
0200
0300
3CE0
A000
AFE0
2920
6920
AFE0
4820
4800
4810
CFF0
ENDCHAR

STARTCHAR 5DF4
ENCODING 45261
SWIDTH 1000 0
DWIDTH 14 0
BBX 11 11 2 -1
BITMAP
FFC0
88C0
88C0
88C0
FFC0
80C0
8000
8000
8020
C060
7FC0
ENDCHAR

STARTCHAR 62D4
ENCODING 45262
SWIDTH 1000 0
DWIDTH 14 0
BBX 12 12 1 -1
BITMAP
2140
2320
2200
F7F0
2200
33E0
E620
A640
2D40
3880
2140
CE30
ENDCHAR

STARTCHAR 8DCB
ENCODING 45263
SWIDTH 1000 0
DWIDTH 14 0
BBX 12 12 1 -1
BITMAP
0140
F120
9510
93E0
F300
23E0
A220
A740
A540
A480
F1E0
8630
ENDCHAR

STARTCHAR 9776
ENCODING 45264
SWIDTH 1000 0
DWIDTH 14 0
BBX 13 12 0 -1
BITMAP
2800
7FF0
2950
3950
1150
7D50
55F0
7D10
1100
FD08
1108
11F8
ENDCHAR

STARTCHAR 628A
ENCODING 45265
SWIDTH 1000 0
DWIDTH 14 0
BBX 12 12 1 -1
BITMAP
2000
27E0
24A0
F4A0
24A0
24A0
77E0
A420
2400
2410
2410
C3F0
ENDCHAR

STARTCHAR 8019
ENCODING 45266
SWIDTH 1000 0
DWIDTH 14 0
BBX 12 12 1 -1
BITMAP
2000
23E0
72A0
22A0
72A0
22A0
FBE0
2220
6A00
A210
A210
23F0
ENDCHAR

STARTCHAR 575D
ENCODING 45267
SWIDTH 1000 0
DWIDTH 14 0
BBX 12 12 1 -1
BITMAP
4000
47E0
4420
F4A0
44A0
44A0
44A0
4520
3120
C140
0620
0C10
ENDCHAR

STARTCHAR 9738
ENCODING 45268
SWIDTH 1000 0
DWIDTH 14 0
BBX 12 12 1 -1
BITMAP
7FE0
FFF0
8410
1080
1080
FDE0
4920
11E0
7D20
7DE0
2220
5A60
ENDCHAR

STARTCHAR 7F62
ENCODING 45269
SWIDTH 1000 0
DWIDTH 14 0
BBX 12 11 1 -1
BITMAP
7FE0
4920
4920
1680
0400
7FC0
0400
FFF0
0C00
1080
7FE0
ENDCHAR

STARTCHAR 7238
ENCODING 45270
SWIDTH 1000 0
DWIDTH 14 0
BBX 12 12 1 -1
BITMAP
1980
6060
4920
0600
1BC0
E070
3FC0
2440
2440
3B40
2030
3FE0
ENDCHAR

STARTCHAR 767D
ENCODING 45271
SWIDTH 1000 0
DWIDTH 14 0
BBX 10 12 2 -1
BITMAP
1000
1000
FFC0
8040
8040
8040
FFC0
8040
8040
8040
FFC0
8040
ENDCHAR

STARTCHAR 67CF
ENCODING 45272
SWIDTH 1000 0
DWIDTH 14 0
BBX 12 12 1 -1
BITMAP
2080
2100
23F0
FA10
2210
7210
6BF0
A210
A210
2210
23F0
2210
ENDCHAR

STARTCHAR 767E
ENCODING 45273
SWIDTH 1000 0
DWIDTH 14 0
BBX 12 11 1 -1
BITMAP
FFF0
0400
0400
3FC0
2040
2040
3FC0
2040
2040
3FC0
2040
ENDCHAR

STARTCHAR 6446
ENCODING 45274
SWIDTH 1000 0
DWIDTH 14 0
BBX 11 12 1 -1
BITMAP
2800
2BE0
2AA0
F7E0
2000
3100
63C0
A000
27E0
2340
2420
47E0
ENDCHAR

STARTCHAR 4F70
ENCODING 45275
SWIDTH 1000 0
DWIDTH 14 0
BBX 12 12 1 -1
BITMAP
3000
2FF0
2100
6100
67E0
A420
A420
27E0
2420
2420
27E0
2420
ENDCHAR

STARTCHAR 8D25
ENCODING 45276
SWIDTH 1000 0
DWIDTH 14 0
BBX 12 12 1 -1
BITMAP
0080
7880
8900
A9F0
AB20
AB20
AB20
2940
2140
5880
C5C0
0730
ENDCHAR

STARTCHAR 62DC
ENCODING 45277
SWIDTH 1000 0
DWIDTH 14 0
BBX 12 12 1 -1
BITMAP
3BF0
E080
2080
23E0
F880
2080
21C0
F880
27F0
2080
4080
C080
ENDCHAR

STARTCHAR 7A17
ENCODING 45278
SWIDTH 1000 0
DWIDTH 14 0
BBX 12 13 1 -2
BITMAP
0100
E500
26E0
24A0
F7E0
6520
67E0
B140
A240
2FF0
2040
2040
2000
ENDCHAR

STARTCHAR 6591
ENCODING 45279
SWIDTH 1000 0
DWIDTH 14 0
BBX 12 12 1 -1
BITMAP
0400
F2F0
4040
4F40
4240
F6F0
4640
4240
4640
5540
E840
09F0
ENDCHAR

STARTCHAR 73ED
ENCODING 45280
SWIDTH 1000 0
DWIDTH 14 0
BBX 12 12 1 -1
BITMAP
0200
F2F0
0240
4A40
4A40
FA50
4A60
4240
4440
0440
E440
09F0
ENDCHAR

STARTCHAR 642C
ENCODING 45281
SWIDTH 1000 0
DWIDTH 14 0
BBX 12 12 1 -1
BITMAP
4400
4F20
49A0
4DA0
4D90
4900
EDF0
CDA0
4D60
5160
5160
D290
ENDCHAR

STARTCHAR 6273
ENCODING 45282
SWIDTH 1000 0
DWIDTH 14 0
BBX 12 12 1 -1
BITMAP
2020
27E0
2400
F400
27E0
3520
E520
A540
24C0
24C0
29E0
5A30
ENDCHAR

STARTCHAR 822C
ENCODING 45283
SWIDTH 1000 0
DWIDTH 14 0
BBX 12 12 1 -1
BITMAP
3000
21C0
7940
4940
5B30
4800
FBE0
4920
5920
58C0
C8C0
9B30
ENDCHAR

STARTCHAR 9881
ENCODING 45284
SWIDTH 1000 0
DWIDTH 14 0
BBX 12 11 1 -1
BITMAP
4BF0
4880
4FF0
8610
FA90
2A90
2A90
4A90
4880
7960
8630
ENDCHAR

STARTCHAR 677F
ENCODING 45285
SWIDTH 1000 0
DWIDTH 14 0
BBX 12 12 1 -1
BITMAP
2060
2780
2400
F400
65E0
6520
B520
A540
24C0
2CC0
29E0
2B30
ENDCHAR

STARTCHAR 7248
ENCODING 45286
SWIDTH 1000 0
DWIDTH 14 0
BBX 12 12 1 -1
BITMAP
1000
53F0
5200
5200
7BE0
4320
4320
72A0
52C0
9440
94C0
8530
ENDCHAR

STARTCHAR 626E
ENCODING 45287
SWIDTH 1000 0
DWIDTH 14 0
BBX 12 12 1 -1
BITMAP
2280
2240
2240
F460
2430
2BD0
7240
E240
2240
2240
2440
CCC0
ENDCHAR

STARTCHAR 62CC
ENCODING 45288
SWIDTH 1000 0
DWIDTH 14 0
BBX 12 12 1 -1
BITMAP
2080
2490
24A0
F4A0
2080
27F0
7080
E080
2FF0
2080
2080
C080
ENDCHAR

STARTCHAR 4F34
ENCODING 45289
SWIDTH 1000 0
DWIDTH 14 0
BBX 12 12 1 -1
BITMAP
3100
2D30
2520
6120
6100
AFE0
A100
2100
2FF0
2100
2100
2100
ENDCHAR

STARTCHAR 74E3
ENCODING 45290
SWIDTH 1000 0
DWIDTH 14 0
BBX 12 13 1 -2
BITMAP
4000
0E00
FEF0
2E00
AE20
2D20
FDF0
4D20
F5F0
5520
56A0
9020
0020
ENDCHAR

STARTCHAR 534A
ENCODING 45291
SWIDTH 1000 0
DWIDTH 14 0
BBX 12 12 1 -1
BITMAP
0400
6460
34C0
0480
0400
7FE0
0400
0400
FFF0
0400
0400
0400
ENDCHAR

STARTCHAR 529E
ENCODING 45292
SWIDTH 1000 0
DWIDTH 14 0
BBX 12 12 1 -1
BITMAP
0400
0400
0400
7FC0
0480
64A0
48B0
C890
0890
1080
3180
E300
ENDCHAR

STARTCHAR 7ECA
ENCODING 45293
SWIDTH 1000 0
DWIDTH 14 0
BBX 12 12 1 -1
BITMAP
0080
6090
46A0
92A0
B080
67F0
4080
F080
07F0
0080
F080
0080
ENDCHAR

STARTCHAR 90A6
ENCODING 45294
SWIDTH 1000 0
DWIDTH 14 0
BBX 12 12 1 -1
BITMAP
1000
11F0
FD20
1120
1120
FD40
1120
1110
6910
2170
6140
C100
ENDCHAR

STARTCHAR 5E2E
ENCODING 45295
SWIDTH 1000 0
DWIDTH 14 0
BBX 11 12 1 -1
BITMAP
1100
FD60
1120
7D20
1120
7960
2140
C200
2FE0
2260
2260
22C0
ENDCHAR

STARTCHAR 6886
ENCODING 45296
SWIDTH 1000 0
DWIDTH 14 0
BBX 12 12 1 -1
BITMAP
4000
4470
5F90
64A0
44A0
6FA0
D490
C490
4690
44B0
4880
4800
ENDCHAR

STARTCHAR 699C
ENCODING 45297
SWIDTH 1000 0
DWIDTH 14 0
BBX 12 13 1 -2
BITMAP
2080
27F0
2000
F240
67F0
7410
7080
A7F0
A200
23E0
2220
2C60
2000
ENDCHAR

STARTCHAR 8180
ENCODING 45298
SWIDTH 1000 0
DWIDTH 14 0
BBX 12 12 1 -1
BITMAP
0080
37F0
9240
9040
B7B0
9480
9080
7360
9100
92E0
9220
A460
ENDCHAR

STARTCHAR 7ED1
ENCODING 45299
SWIDTH 1000 0
DWIDTH 14 0
BBX 12 11 1 -1
BITMAP
44F0
4F90
94A0
E4A0
2FA0
44A0
C490
CF90
04B0
F4A0
0800
ENDCHAR

STARTCHAR 68D2
ENCODING 45300
SWIDTH 1000 0
DWIDTH 14 0
BBX 12 12 1 -1
BITMAP
2100
27E0
2100
67E0
6100
7FF0
B240
AD30
2980
2100
27E0
2100
ENDCHAR

STARTCHAR 78C5
ENCODING 45301
SWIDTH 1000 0
DWIDTH 14 0
BBX 13 12 0 -1
BITMAP
0040
7BF8
2000
2020
23F8
7A40
EA40
29B0
2880
38F0
2910
2630
ENDCHAR

STARTCHAR 868C
ENCODING 45302
SWIDTH 1000 0
DWIDTH 14 0
BBX 12 12 1 -1
BITMAP
2080
2080
FBF0
A880
A880
ABF0
B880
2080
2BF0
3880
CC80
0080
ENDCHAR

STARTCHAR 9551
ENCODING 45303
SWIDTH 1000 0
DWIDTH 14 0
BBX 12 12 1 -1
BITMAP
2080
47F0
7040
8040
F7F0
2480
2080
F360
2100
22E0
3220
24E0
ENDCHAR

STARTCHAR 508D
ENCODING 45304
SWIDTH 1000 0
DWIDTH 14 0
BBX 13 12 0 -1
BITMAP
1080
17F8
3100
3000
77F8
D480
10C0
1330
1100
11F0
1210
1460
ENDCHAR

STARTCHAR 8C24
ENCODING 45305
SWIDTH 1000 0
DWIDTH 14 0
BBX 12 12 1 -1
BITMAP
4100
4FF0
4000
0200
CFF0
4810
4100
5FF0
4200
53E0
6420
48C0
ENDCHAR

STARTCHAR 82DE
ENCODING 45306
SWIDTH 1000 0
DWIDTH 14 0
BBX 12 12 1 -1
BITMAP
0880
FFF0
0880
1000
3FE0
6020
FF20
2120
3FC0
2000
2010
3FE0
ENDCHAR

STARTCHAR 80DE
ENCODING 45307
SWIDTH 1000 0
DWIDTH 14 0
BBX 12 12 1 -1
BITMAP
0100
7200
53F0
5410
77D0
5250
5250
73D0
5230
9200
9210
B3F0
ENDCHAR

STARTCHAR 5305
ENCODING 45308
SWIDTH 1000 0
DWIDTH 14 0
BBX 12 12 1 -1
BITMAP
1800
1000
2FE0
4020
FF20
2120
2120
3F60
20C0
2000
2030
1FE0
ENDCHAR

STARTCHAR 8912
ENCODING 45309
SWIDTH 1000 0
DWIDTH 14 0
BBX 12 12 1 -1
BITMAP
0200
FFF0
2000
2BC0
6FC0
A100
27E0
2D60
2000
1980
6880
9C70
ENDCHAR

STARTCHAR 5265
ENCODING 45310
SWIDTH 1000 0
DWIDTH 14 0
BBX 11 12 1 -1
BITMAP
0020
3CA0
7CA0
04A0
FEA0
10A0
52A0
5CA0
34A0
D220
9020
3060
ENDCHAR

STARTCHAR 8584
ENCODING 45473
SWIDTH 1000 0
DWIDTH 14 0
BBX 12 12 1 -1
BITMAP
0080
FFF0
0040
5FF0
0200
87E0
4FE0
0FE0
4020
5FF0
8040
84C0
ENDCHAR

STARTCHAR 96F9
ENCODING 45474
SWIDTH 1000 0
DWIDTH 14 0
BBX 12 12 1 -1
BITMAP
7FE0
0000
FFF0
BDD0
0900
1080
3FE0
4040
3F40
3FC0
2010
3FE0
ENDCHAR

STARTCHAR 4FDD
ENCODING 45475
SWIDTH 1000 0
DWIDTH 14 0
BBX 12 12 1 -1
BITMAP
37E0
2420
6420
4420
C380
C100
5FF0
4380
4540
4D20
5910
0100
ENDCHAR

STARTCHAR 5821
ENCODING 45476
SWIDTH 1000 0
DWIDTH 14 0
BBX 12 12 1 -1
BITMAP
2FE0
2820
6FE0
A100
AFF0
2340
2D60
2110
0000
7F80
0000
FFF0
ENDCHAR

STARTCHAR 9971
ENCODING 45477
SWIDTH 1000 0
DWIDTH 14 0
BBX 13 12 0 -1
BITMAP
3080
2100
39F8
4A08
CFC8
2248
2248
23D0
2A30
3A00
3208
01F8
ENDCHAR

STARTCHAR 5B9D
ENCODING 45478
SWIDTH 1000 0
DWIDTH 14 0
BBX 12 12 1 -1
BITMAP
0600
0200
FFF0
8010
3FC0
0400
0400
3FC0
0400
04C0
0400
FFF0
ENDCHAR

STARTCHAR 62B1
ENCODING 45479
SWIDTH 1000 0
DWIDTH 14 0
BBX 12 12 1 -1
BITMAP
2200
2200
27E0
FC20
2FA0
34A0
64A0
A7A0
2460
2400
2410
C7F0
ENDCHAR

STARTCHAR 62A5
ENCODING 45480
SWIDTH 1000 0
DWIDTH 14 0
BBX 12 12 1 -1
BITMAP
2000
23E0
2220
FAC0
2200
2BE0
7320
A320
22C0
2240
22E0
6330
ENDCHAR

STARTCHAR 66B4
ENCODING 45481
SWIDTH 1000 0
DWIDTH 14 0
BBX 12 12 1 -1
BITMAP
3FC0
2040
3FC0
3FC0
0900
3FC0
FFF0
1080
6460
9690
3D80
0C40
ENDCHAR

STARTCHAR 8C79
ENCODING 45482
SWIDTH 1000 0
DWIDTH 14 0
BBX 12 12 1 -1
BITMAP
1980
2100
D1F0
5A10
7210
D210
2990
48A0
B420
6420
8820
3060
ENDCHAR

STARTCHAR 9C8D
ENCODING 45483
SWIDTH 1000 0
DWIDTH 14 0
BBX 12 12 1 -1
BITMAP
4100
7900
93F0
9610
FBD0
AA50
FA50
ABD0
FA20
0200
FA10
01F0
ENDCHAR

STARTCHAR 7206
ENCODING 45484
SWIDTH 1000 0
DWIDTH 14 0
BBX 12 12 1 -1
BITMAP
27E0
2420
27E0
B7E0
A240
AFF0
A240
67E0
5420
4A90
C340
8020
ENDCHAR

STARTCHAR 676F
ENCODING 45485
SWIDTH 1000 0
DWIDTH 14 0
BBX 12 12 1 -1
BITMAP
2000
27F0
2080
F880
2180
7180
6AA0
A4B0
AC90
2080
2080
2080
ENDCHAR

STARTCHAR 7891
ENCODING 45486
SWIDTH 1000 0
DWIDTH 14 0
BBX 12 12 1 -1
BITMAP
0100
F7E0
44A0
44A0
47E0
F520
D7E0
5140
5240
7FF0
4040
0040
ENDCHAR

STARTCHAR 60B2
ENCODING 45487
SWIDTH 1000 0
DWIDTH 14 0
BBX 12 12 1 -1
BITMAP
0900
F9F0
0900
0900
39C0
0900
F9F0
0900
1260
9230
9050
1F80
ENDCHAR

STARTCHAR 5351
ENCODING 45488
SWIDTH 1000 0
DWIDTH 14 0
BBX 12 12 1 -1
BITMAP
0400
3FC0
2040
2440
3FC0
2440
3FC0
1A00
1200
FFF0
0200
0200
ENDCHAR

STARTCHAR 5317
ENCODING 45489
SWIDTH 1000 0
DWIDTH 14 0
BBX 12 12 1 -1
BITMAP
0900
0900
0900
0920
F960
0980
0900
0900
0900
3910
C910
09E0
ENDCHAR

STARTCHAR 8F88
ENCODING 45490
SWIDTH 1000 0
DWIDTH 14 0
BBX 12 13 1 -2
BITMAP
0900
F9F0
0A00
3AC0
F9F0
0000
7FE0
1000
7FC0
0200
FFF0
0200
0200
ENDCHAR

STARTCHAR 80CC
ENCODING 45491
SWIDTH 1000 0
DWIDTH 14 0
BBX 12 12 1 -1
BITMAP
0900
79E0
0900
7910
89F0
0000
3FC0
3FC0
2040
3FC0
2040
20C0
ENDCHAR

STARTCHAR 8D1D
ENCODING 45492
SWIDTH 1000 0
DWIDTH 14 0
BBX 10 11 2 -1
BITMAP
7F80
4080
4080
4880
4880
4880
4880
4A00
1300
3080
C040
ENDCHAR

STARTCHAR 94A1
ENCODING 45493
SWIDTH 1000 0
DWIDTH 14 0
BBX 13 12 0 -1
BITMAP
1000
31F0
3E10
4250
FA50
1250
1250
3A50
1040
1CA0
1998
0308
ENDCHAR

STARTCHAR 500D
ENCODING 45494
SWIDTH 1000 0
DWIDTH 14 0
BBX 13 12 0 -1
BITMAP
0880
1008
13F0
2220
6120
EFF8
2000
27F0
2410
2410
27F0
2410
ENDCHAR

STARTCHAR 72C8
ENCODING 45495
SWIDTH 1000 0
DWIDTH 14 0
BBX 12 12 1 -1
BITMAP
1000
D7E0
6420
E420
A4A0
24A0
34A0
5520
9520
1140
3260
6C30
ENDCHAR

STARTCHAR 5907
ENCODING 45496
SWIDTH 1000 0
DWIDTH 14 0
BBX 12 12 1 -1
BITMAP
0800
1FC0
3080
6900
0600
19F0
E010
3FC0
2440
3FC0
2040
3FC0
ENDCHAR

STARTCHAR 60EB
ENCODING 45497
SWIDTH 1000 0
DWIDTH 14 0
BBX 12 13 1 -2
BITMAP
0800
1FC0
6900
0600
F9F0
3FC0
2440
3FC0
3FC0
0000
5220
9090
0F00
ENDCHAR

STARTCHAR 7119
ENCODING 45498
SWIDTH 1000 0
DWIDTH 14 0
BBX 12 12 1 -1
BITMAP
2080
2000
23E0
BA40
A040
AFF0
2000
67E0
5420
5420
C3E0
8020
ENDCHAR

STARTCHAR 88AB
ENCODING 45499
SWIDTH 1000 0
DWIDTH 14 0
BBX 12 12 1 -1
BITMAP
2080
2080
87F0
7490
2480
47E0
F420
D540
5540
4C80
49C0
5B30
ENDCHAR

STARTCHAR 5954
ENCODING 45500
SWIDTH 1000 0
DWIDTH 14 0
BBX 12 12 1 -1
BITMAP
0600
FFF0
0900
1880
6260
DF90
1280
1080
FFF0
1080
1080
6080
ENDCHAR

STARTCHAR 82EF
ENCODING 45501
SWIDTH 1000 0
DWIDTH 14 0
BBX 12 10 1 0
BITMAP
FFF0
0000
0200
0400
FFF0
0D00
1480
34C0
7FE0
4400
ENDCHAR

STARTCHAR 672C
ENCODING 45502
SWIDTH 1000 0
DWIDTH 14 0
BBX 12 12 1 -1
BITMAP
0200
0200
FFF0
0A00
0B00
0B00
1280
32C0
6260
DFB0
0200
0600
ENDCHAR

STARTCHAR 7B28
ENCODING 45503
SWIDTH 1000 0
DWIDTH 14 0
BBX 12 12 1 -1
BITMAP
2100
7DF0
D340
8A20
0200
FFF0
0B00
1300
3280
6270
9F90
0200
ENDCHAR

STARTCHAR 5D29
ENCODING 45504
SWIDTH 1000 0
DWIDTH 14 0
BBX 11 13 1 -2
BITMAP
4220
4220
7FE0
0000
79E0
4920
79E0
4920
79E0
4920
8A20
9A60
8000
ENDCHAR

STARTCHAR 7EF7
ENCODING 45505
SWIDTH 1000 0
DWIDTH 14 0
BBX 12 12 1 -1
BITMAP
6000
4EF0
8A90
AA90
EEF0
4A90
8A90
EEF0
0A90
2A90
D290
12B0
ENDCHAR

STARTCHAR 752D
ENCODING 45506
SWIDTH 1000 0
DWIDTH 14 0
BBX 12 12 1 -1
BITMAP
8010
7FE0
0E00
32E0
C230
3FC0
2240
3FC0
2240
3FC0
6240
42C0
ENDCHAR

STARTCHAR 6CF5
ENCODING 45507
SWIDTH 1000 0
DWIDTH 14 0
BBX 12 11 1 -1
BITMAP
7FE0
1800
3FE0
D040
1FC0
0200
FA60
1380
1280
6260
8E10
ENDCHAR

STARTCHAR 8E66
ENCODING 45508
SWIDTH 1000 0
DWIDTH 14 0
BBX 12 12 1 -1
BITMAP
F490
9490
9340
9000
2770
2550
B770
A950
A770
A990
F990
0AB0
ENDCHAR

STARTCHAR 8FF8
ENCODING 45509
SWIDTH 1000 0
DWIDTH 14 0
BBX 13 12 0 -1
BITMAP
2220
2340
27F8
0120
0120
6FF8
2220
2220
2220
2420
3000
CFF8
ENDCHAR

STARTCHAR 903C
ENCODING 45510
SWIDTH 1000 0
DWIDTH 14 0
BBX 12 12 1 -1
BITMAP
1FF0
4000
4FE0
0820
0FE0
C000
4FE0
4FE0
4920
4FE0
6000
9FF0
ENDCHAR

STARTCHAR 9F3B
ENCODING 45511
SWIDTH 1000 0
DWIDTH 14 0
BBX 11 13 1 -2
BITMAP
0800
37C0
3FC0
3FC0
3FC0
0000
5FE0
7FE0
7FE0
0000
7FE0
6080
8000
ENDCHAR

STARTCHAR 6BD4
ENCODING 45512
SWIDTH 1000 0
DWIDTH 14 0
BBX 11 12 2 -1
BITMAP
4200
4200
4200
4240
7AC0
4380
4200
4200
4200
5A00
6220
C3E0
ENDCHAR

STARTCHAR 9119
ENCODING 45513
SWIDTH 1000 0
DWIDTH 14 0
BBX 12 11 1 -1
BITMAP
7CF0
44A0
7CA0
FEA0
10A0
7E90
A290
AA90
BAB0
8280
3E80
ENDCHAR

STARTCHAR 7B14
ENCODING 45514
SWIDTH 1000 0
DWIDTH 14 0
BBX 12 12 1 -1
BITMAP
2080
7DF0
4920
8820
00C0
7F00
07E0
7C00
07E0
FC00
0410
07E0
ENDCHAR

STARTCHAR 5F7C
ENCODING 45515
SWIDTH 1000 0
DWIDTH 14 0
BBX 12 13 1 -1
BITMAP
0100
3100
2100
43F0
1920
2800
4FE0
CA40
4A40
49C0
4880
5360
4420
ENDCHAR

STARTCHAR 78A7
ENCODING 45516
SWIDTH 1000 0
DWIDTH 14 0
BBX 12 12 1 -1
BITMAP
0080
73E0
2220
33E0
2220
D3E0
0000
FFF0
1000
3FC0
D040
1FC0
ENDCHAR

STARTCHAR 84D6
ENCODING 45517
SWIDTH 1000 0
DWIDTH 14 0
BBX 12 12 1 -1
BITMAP
1100
FFF0
1100
7FE0
4020
4F20
59A0
7FE0
2120
3DC0
2100
71F0
ENDCHAR

STARTCHAR 853D
ENCODING 45518
SWIDTH 1000 0
DWIDTH 14 0
BBX 12 12 1 -1
BITMAP
0900
FFF0
0900
5680
5480
7F60
9320
BB20
BAA0
B2C0
92C0
17B0
ENDCHAR

STARTCHAR 6BD5
ENCODING 45519
SWIDTH 1000 0
DWIDTH 14 0
BBX 12 12 1 -1
BITMAP
0100
4160
39C0
4100
4100
7930
00C0
0400
FFF0
0400
0400
0400
ENDCHAR

STARTCHAR 6BD9
ENCODING 45520
SWIDTH 1000 0
DWIDTH 14 0
BBX 12 12 1 -1
BITMAP
2100
3DE0
2100
2D10
70E0
FFF0
3100
3D00
45E0
2900
1110
61F0
ENDCHAR

STARTCHAR 6BD6
ENCODING 45521
SWIDTH 1000 0
DWIDTH 14 0
BBX 12 12 1 -1
BITMAP
4100
4160
5180
4100
5910
60E0
0400
5080
5120
9630
1840
FF80
ENDCHAR

STARTCHAR 5E01
ENCODING 45522
SWIDTH 1000 0
DWIDTH 14 0
BBX 10 12 2 -1
BITMAP
07C0
F800
0800
0800
FFC0
8840
8840
8840
8840
88C0
8980
0800
ENDCHAR

STARTCHAR 5E87
ENCODING 45523
SWIDTH 1000 0
DWIDTH 14 0
BBX 12 12 1 -1
BITMAP
0200
7FF0
4000
4900
4900
4930
4FC0
4900
4900
4B00
8D10
80E0
ENDCHAR

STARTCHAR 75F9
ENCODING 45524
SWIDTH 1000 0
DWIDTH 14 0
BBX 12 12 1 -1
BITMAP
0300
3FF0
A000
AFE0
A920
2BE0
6920
A2C0
7FF0
4240
4440
DC40
ENDCHAR

STARTCHAR 95ED
ENCODING 45525
SWIDTH 1000 0
DWIDTH 14 0
BBX 10 12 2 -1
BITMAP
4000
6FC0
0440
8440
FF40
8C40
8C40
9440
A440
C440
8C40
80C0
ENDCHAR

STARTCHAR 655D
ENCODING 45526
SWIDTH 1000 0
DWIDTH 14 0
BBX 12 12 1 -1
BITMAP
10C0
D680
5480
1160
FFA0
93A0
BAA0
BAA0
9240
9240
92A0
9790
ENDCHAR

STARTCHAR 5F0A
ENCODING 45527
SWIDTH 1000 0
DWIDTH 14 0
BBX 12 12 1 -1
BITMAP
5480
5100
7D60
93A0
BCA0
9440
15B0
0000
0900
FFF0
1100
E100
ENDCHAR

STARTCHAR 5FC5
ENCODING 45528
SWIDTH 1000 0
DWIDTH 14 0
BBX 12 12 1 -1
BITMAP
0800
04C0
0080
0080
4900
4B60
4A30
8C10
0800
3840
E8C0
0F80
ENDCHAR

STARTCHAR 8F9F
ENCODING 45529
SWIDTH 1000 0
DWIDTH 14 0
BBX 12 12 1 -1
BITMAP
0040
7BF0
4800
4920
7120
43F0
B840
A840
ABF0
2840
3840
2840
ENDCHAR

STARTCHAR 58C1
ENCODING 45530
SWIDTH 1000 0
DWIDTH 14 0
BBX 12 12 1 -1
BITMAP
0080
7BF0
4920
B040
F9A0
C880
C9E0
1080
0000
7FC0
0000
FFF0
ENDCHAR

STARTCHAR 81C2
ENCODING 45531
SWIDTH 1000 0
DWIDTH 14 0
BBX 12 12 1 -1
BITMAP
7880
4960
7940
83F0
9880
01E0
1080
3FC0
2040
3FC0
3FC0
20C0
ENDCHAR

STARTCHAR 907F
ENCODING 45532
SWIDTH 1000 0
DWIDTH 14 0
BBX 12 12 1 -1
BITMAP
0040
DEF0
5200
12A0
1420
D0F0
5E40
5AF0
6A40
4E40
6040
9FF0
ENDCHAR

STARTCHAR 965B
ENCODING 45533
SWIDTH 1000 0
DWIDTH 14 0
BBX 12 12 1 -1
BITMAP
E480
9480
A7A0
A480
A480
A7F0
9400
9000
B7E0
A100
8000
8FF0
ENDCHAR

STARTCHAR 97AD
ENCODING 45534
SWIDTH 1000 0
DWIDTH 14 0
BBX 12 13 1 -2
BITMAP
5200
FCE0
5440
75F0
2550
F5F0
B550
F5F0
2440
FC80
2480
2570
2400
ENDCHAR

STARTCHAR 8FB9
ENCODING 45535
SWIDTH 1000 0
DWIDTH 14 0
BBX 12 12 1 -1
BITMAP
0100
4100
2100
0FE0
0220
E220
2220
2420
2C20
28C0
7000
8FF0
ENDCHAR

STARTCHAR 7F16
ENCODING 45536
SWIDTH 1000 0
DWIDTH 14 0
BBX 12 12 1 -1
BITMAP
2100
47E0
4420
97E0
E400
2400
4DF0
ED50
0FF0
1550
E550
0430
ENDCHAR

STARTCHAR 8D2C
ENCODING 45537
SWIDTH 1000 0
DWIDTH 14 0
BBX 12 12 1 -1
BITMAP
0020
FBE0
8A00
A880
A800
ABE0
A820
A840
A880
2100
5F80
C870
ENDCHAR

STARTCHAR 6241
ENCODING 45538
SWIDTH 1000 0
DWIDTH 14 0
BBX 11 12 1 -1
BITMAP
0200
7FE0
2020
2020
3FE0
4000
5FE0
64A0
64A0
AFE0
A4A0
0460
ENDCHAR

STARTCHAR 4FBF
ENCODING 45539
SWIDTH 1000 0
DWIDTH 14 0
BBX 13 12 0 -1
BITMAP
17F8
1080
2480
25F0
6490
E5F0
2490
21E0
2680
2300
23C0
2C38
ENDCHAR

STARTCHAR 53D8
ENCODING 45540
SWIDTH 1000 0
DWIDTH 14 0
BBX 12 12 1 -1
BITMAP
0600
FFF0
0900
2940
4920
C930
0000
3FC0
1080
0900
0600
F9F0
ENDCHAR

STARTCHAR 535E
ENCODING 45541
SWIDTH 1000 0
DWIDTH 14 0
BBX 12 12 1 -1
BITMAP
0400
0600
8010
FFF0
0400
0400
0580
04C0
0460
0400
0400
0400
ENDCHAR

STARTCHAR 8FA8
ENCODING 45542
SWIDTH 1000 0
DWIDTH 14 0
BBX 12 12 1 -1
BITMAP
4240
0200
F2F0
0280
2AA0
2A20
4A40
4240
F4F0
4440
4440
C840
ENDCHAR

STARTCHAR 8FA9
ENCODING 45543
SWIDTH 1000 0
DWIDTH 14 0
BBX 12 12 1 -1
BITMAP
4440
0400
F5F0
10A0
ACA0
2420
64C0
2440
F4F0
4440
4640
C440
ENDCHAR

STARTCHAR 8FAB
ENCODING 45544
SWIDTH 1000 0
DWIDTH 14 0
BBX 12 12 1 -1
BITMAP
2040
0400
F4F0
1990
6E20
2420
4440
4A40
F4F0
4040
4C40
C040
ENDCHAR

STARTCHAR 904D
ENCODING 45545
SWIDTH 1000 0
DWIDTH 14 0
BBX 12 12 1 -1
BITMAP
0100
4FE0
4820
0FE0
0800
CFF0
5550
57F0
5550
4570
E000
9FF0
ENDCHAR

STARTCHAR 6807
ENCODING 45546
SWIDTH 1000 0
DWIDTH 14 0
BBX 12 12 1 -1
BITMAP
2000
27E0
2000
F000
67F0
6100
B100
B520
A520
2510
2900
2300
ENDCHAR

STARTCHAR 5F6A
ENCODING 45547
SWIDTH 1000 0
DWIDTH 14 0
BBX 12 12 1 -1
BITMAP
1020
1E20
1040
3F80
9C20
9040
9E80
8030
9C40
9580
A410
A7F0
ENDCHAR

STARTCHAR 8198
ENCODING 45548
SWIDTH 1000 0
DWIDTH 14 0
BBX 13 11 0 -1
BITMAP
7FF8
48A0
4BF8
7AA8
4BF8
4800
79E0
4FF8
4840
4A50
DEC8
ENDCHAR

STARTCHAR 8868
ENCODING 45549
SWIDTH 1000 0
DWIDTH 14 0
BBX 12 12 1 -1
BITMAP
0400
7FE0
0200
3FE0
0200
FFF0
0400
0A60
39C0
E980
8EE0
1830
ENDCHAR

STARTCHAR 9CD6
ENCODING 45550
SWIDTH 1000 0
DWIDTH 14 0
BBX 12 12 1 -1
BITMAP
5480
11F0
3D20
BCC0
90E0
1110
3F80
7F80
2240
2FC0
3FC0
FFF0
ENDCHAR

STARTCHAR 618B
ENCODING 45551
SWIDTH 1000 0
DWIDTH 14 0
BBX 12 12 1 -1
BITMAP
5080
7480
11F0
3F20
BAA0
B2C0
92E0
15B0
0000
4A20
4830
4F80
ENDCHAR

STARTCHAR 522B
ENCODING 45552
SWIDTH 1000 0
DWIDTH 14 0
BBX 11 12 1 -1
BITMAP
0020
5C20
44A0
44A0
7CA0
10A0
FCA0
14A0
24A0
2420
6420
C860
ENDCHAR

STARTCHAR 762A
ENCODING 45553
SWIDTH 1000 0
DWIDTH 14 0
BBX 12 13 1 -2
BITMAP
0200
3FF0
A200
AFE0
AFE0
2FE0
6820
C780
44C0
7CB0
4720
8420
03C0
ENDCHAR

STARTCHAR 5F6C
ENCODING 45554
SWIDTH 1000 0
DWIDTH 14 0
BBX 12 13 1 -2
BITMAP
2420
4420
4440
FE80
4410
5620
DD40
CC80
D430
4420
4440
0580
0100
ENDCHAR

STARTCHAR 658C
ENCODING 45555
SWIDTH 1000 0
DWIDTH 14 0
BBX 12 12 1 -1
BITMAP
0040
2760
0040
F7F0
1040
E240
6640
2640
2640
5640
87B0
0C30
ENDCHAR

STARTCHAR 6FD2
ENCODING 45556
SWIDTH 1000 0
DWIDTH 14 0
BBX 12 12 1 -1
BITMAP
09F0
5840
1E00
19E0
BD20
0960
1960
2B60
ADA0
8C80
88B0
B310
ENDCHAR

STARTCHAR 6EE8
ENCODING 45557
SWIDTH 1000 0
DWIDTH 14 0
BBX 12 12 1 -1
BITMAP
4100
6FF0
2810
08C0
C700
0400
07E0
4480
5FF0
4000
4440
9830
ENDCHAR

STARTCHAR 5BBE
ENCODING 45558
SWIDTH 1000 0
DWIDTH 14 0
BBX 12 12 1 -1
BITMAP
0600
8200
7DF0
C390
1C00
1000
1FC0
1100
FFF0
0000
1980
6060
ENDCHAR

STARTCHAR 6448
ENCODING 45559
SWIDTH 1000 0
DWIDTH 14 0
BBX 12 12 1 -1
BITMAP
4080
4080
4B70
F850
4780
5400
67E0
C480
4FF0
4000
4640
CC30
ENDCHAR

STARTCHAR 5175
ENCODING 45560
SWIDTH 1000 0
DWIDTH 14 0
BBX 12 12 1 -1
BITMAP
01C0
3E00
2000
2000
3FE0
2100
2100
FFF0
0000
0000
30C0
E020
ENDCHAR

STARTCHAR 51B0
ENCODING 45561
SWIDTH 1000 0
DWIDTH 14 0
BBX 12 12 1 -1
BITMAP
0100
8100
4100
5920
0540
0580
4580
4940
8960
9130
3100
0300
ENDCHAR

STARTCHAR 67C4
ENCODING 45562
SWIDTH 1000 0
DWIDTH 14 0
BBX 12 12 1 -1
BITMAP
2800
27E0
2080
6080
67F0
6510
B590
A550
A710
2410
2410
2470
ENDCHAR

STARTCHAR 4E19
ENCODING 45563
SWIDTH 1000 0
DWIDTH 14 0
BBX 12 12 1 -1
BITMAP
FFF0
0200
0200
7FC0
4420
4420
4620
4920
58A0
5020
4020
40E0
ENDCHAR

STARTCHAR 79C9
ENCODING 45564
SWIDTH 1000 0
DWIDTH 14 0
BBX 12 12 1 -1
BITMAP
03C0
1C00
FFF0
0400
3FC0
0440
FFF0
0440
3FC0
1D00
64C0
0020
ENDCHAR

STARTCHAR 997C
ENCODING 45565
SWIDTH 1000 0
DWIDTH 14 0
BBX 12 12 1 -1
BITMAP
6220
4140
7840
97F0
9240
0240
4A40
47E0
4240
5240
6640
0C40
ENDCHAR

STARTCHAR 70B3
ENCODING 45566
SWIDTH 1000 0
DWIDTH 14 0
BBX 12 12 1 -1
BITMAP
2000
27F0
2080
A880
B7F0
A490
A490
2550
7530
5C10
4410
8430
ENDCHAR

STARTCHAR 75C5
ENCODING 45729
SWIDTH 1000 0
DWIDTH 14 0
BBX 12 12 1 -1
BITMAP
0300
3FF0
2000
A000
BFF0
A100
6FE0
A920
4AA0
4A60
4820
C860
ENDCHAR

STARTCHAR 5E76
ENCODING 45730
SWIDTH 1000 0
DWIDTH 14 0
BBX 12 13 1 -2
BITMAP
1180
1900
7FE0
0900
0900
0900
1100
FFF0
1100
1100
3100
6100
4000
ENDCHAR

STARTCHAR 73BB
ENCODING 45731
SWIDTH 1000 0
DWIDTH 14 0
BBX 12 12 1 -1
BITMAP
0080
F080
07F0
44A0
4480
F7E0
4420
4520
4540
78C0
89C0
1B30
ENDCHAR

STARTCHAR 83E0
ENCODING 45732
SWIDTH 1000 0
DWIDTH 14 0
BBX 12 12 1 -1
BITMAP
1100
FFF0
1100
4100
2FE0
8920
4900
0FE0
0A40
4940
5080
D770
ENDCHAR

STARTCHAR 64AD
ENCODING 45733
SWIDTH 1000 0
DWIDTH 14 0
BBX 12 12 1 -1
BITMAP
4060
4780
4520
E140
47E0
4540
EC30
D7E0
4520
47E0
4520
C7E0
ENDCHAR

STARTCHAR 62E8
ENCODING 45734
SWIDTH 1000 0
DWIDTH 14 0
BBX 12 12 1 -1
BITMAP
0080
4520
4500
FFF0
4100
4200
63E0
C620
4D40
4980
41C0
4E30
ENDCHAR

STARTCHAR 94B5
ENCODING 45735
SWIDTH 1000 0
DWIDTH 14 0
BBX 12 12 1 -1
BITMAP
2080
4080
7080
87F0
F1C0
22C0
22C0
F4A0
2C90
23D0
3080
0080
ENDCHAR

STARTCHAR 6CE2
ENCODING 45736
SWIDTH 1000 0
DWIDTH 14 0
BBX 12 12 1 -1
BITMAP
4100
6100
0FF0
0920
E900
0FE0
0A40
2A40
4940
4980
D1C0
3670
ENDCHAR

STARTCHAR 535A
ENCODING 45737
SWIDTH 1000 0
DWIDTH 14 0
BBX 12 12 1 -1
BITMAP
4140
4FF0
4100
4FE0
E920
4BA0
4FE0
4900
4040
4FE0
4440
40C0
ENDCHAR

STARTCHAR 52C3
ENCODING 45738
SWIDTH 1000 0
DWIDTH 14 0
BBX 12 12 1 -1
BITMAP
1080
1080
7880
11F0
EC90
0090
7C90
1120
1D20
F120
1220
3660
ENDCHAR

STARTCHAR 640F
ENCODING 45739
SWIDTH 1000 0
DWIDTH 14 0
BBX 12 12 1 -1
BITMAP
4160
4FF0
4100
FFE0
4920
4BE0
6FE0
C920
4040
4FF0
4440
C0C0
ENDCHAR

STARTCHAR 94C2
ENCODING 45740
SWIDTH 1000 0
DWIDTH 14 0
BBX 11 12 1 -1
BITMAP
2080
4100
7BE0
8220
F220
2220
23E0
FA20
2220
3220
33E0
0220
ENDCHAR

STARTCHAR 7B94
ENCODING 45741
SWIDTH 1000 0
DWIDTH 14 0
BBX 12 12 1 -1
BITMAP
2080
7DF0
5240
8040
2100
07E0
8420
4420
17E0
2420
67E0
4420
ENDCHAR

STARTCHAR 4F2F
ENCODING 45742
SWIDTH 1000 0
DWIDTH 14 0
BBX 11 12 1 -1
BITMAP
2100
2100
4FE0
4820
C820
C820
4FE0
4820
4820
4820
4FE0
0820
ENDCHAR

STARTCHAR 5E1B
ENCODING 45743
SWIDTH 1000 0
DWIDTH 14 0
BBX 10 12 2 -1
BITMAP
1800
FF80
4080
4080
7F80
7F80
0400
0400
FFC0
8440
8440
84C0
ENDCHAR

STARTCHAR 8236
ENCODING 45744
SWIDTH 1000 0
DWIDTH 14 0
BBX 12 12 1 -1
BITMAP
2080
2080
7BF0
6A10
4A10
4A10
FBF0
4A10
6A10
5A10
8BF0
9A10
ENDCHAR

STARTCHAR 8116
ENCODING 45745
SWIDTH 1000 0
DWIDTH 14 0
BBX 12 12 1 -1
BITMAP
0080
77F0
5080
5080
7770
5000
53E0
7080
57F0
9080
9080
B180
ENDCHAR

STARTCHAR 818A
ENCODING 45746
SWIDTH 1000 0
DWIDTH 14 0
BBX 13 12 0 -1
BITMAP
0010
7FF8
4880
4BF0
7A90
4BF0
4BF0
7A90
4810
4BF0
4910
D030
ENDCHAR

STARTCHAR 6E24
ENCODING 45747
SWIDTH 1000 0
DWIDTH 14 0
BBX 12 12 1 -1
BITMAP
0040
4840
1E40
00F0
9F50
6150
1E90
0490
4690
9890
8910
8B60
ENDCHAR

STARTCHAR 6CCA
ENCODING 45748
SWIDTH 1000 0
DWIDTH 14 0
BBX 11 12 1 -1
BITMAP
4100
6100
07E0
0420
C420
2420
07E0
2420
6420
4420
C7E0
8420
ENDCHAR

STARTCHAR 9A73
ENCODING 45749
SWIDTH 1000 0
DWIDTH 14 0
BBX 12 12 1 -1
BITMAP
0020
F920
08C0
49E0
5310
5000
7920
0940
08C0
C880
0960
3E30
ENDCHAR

STARTCHAR 6355
ENCODING 45750
SWIDTH 1000 0
DWIDTH 14 0
BBX 12 12 1 -1
BITMAP
0160
4100
4FF0
F100
47E0
5520
E520
C7E0
4520
47E0
4520
C560
ENDCHAR

STARTCHAR 535C
ENCODING 45751
SWIDTH 1000 0
DWIDTH 14 0
BBX 6 12 6 -1
BITMAP
80
80
80
80
B0
98
8C
84
80
80
80
80
ENDCHAR

STARTCHAR 54FA
ENCODING 45752
SWIDTH 1000 0
DWIDTH 14 0
BBX 12 12 1 -1
BITMAP
0120
E100
AFF0
A100
A7E0
A520
A7E0
E520
A520
A7E0
8520
0560
ENDCHAR

STARTCHAR 8865
ENCODING 45753
SWIDTH 1000 0
DWIDTH 14 0
BBX 12 12 1 -1
BITMAP
2100
2100
0100
7140
3140
2920
6930
B910
2D00
2100
2100
2100
ENDCHAR

STARTCHAR 57E0
ENCODING 45754
SWIDTH 1000 0
DWIDTH 14 0
BBX 12 11 1 0
BITMAP
2100
47E0
4420
F7E0
4400
47E0
4420
47E0
3100
CFF0
0100
ENDCHAR

STARTCHAR 4E0D
ENCODING 45755
SWIDTH 1000 0
DWIDTH 14 0
BBX 12 11 1 -1
BITMAP
FFF0
0200
0600
0400
0C80
1460
6430
4400
0400
0400
0400
ENDCHAR

STARTCHAR 5E03
ENCODING 45756
SWIDTH 1000 0
DWIDTH 14 0
BBX 12 12 1 -1
BITMAP
0400
0C00
FFF0
1800
1200
2200
5FE0
D220
1220
1220
12C0
0200
ENDCHAR

STARTCHAR 6B65
ENCODING 45757
SWIDTH 1000 0
DWIDTH 14 0
BBX 12 12 1 -1
BITMAP
0200
23E0
2200
2200
FFF0
0000
0200
2240
62C0
0380
0600
7800
ENDCHAR

STARTCHAR 7C3F
ENCODING 45758
SWIDTH 1000 0
DWIDTH 14 0
BBX 11 12 1 -1
BITMAP
2100
5AE0
8040
4100
2FE0
0FE0
4FE0
0920
4FA0
4040
4FE0
8440
ENDCHAR

STARTCHAR 90E8
ENCODING 45759
SWIDTH 1000 0
DWIDTH 14 0
BBX 12 12 1 -1
BITMAP
1000
00F0
FF20
4D20
2920
FF40
0120
7D10
4510
4510
7D20
4400
ENDCHAR

STARTCHAR 6016
ENCODING 45760
SWIDTH 1000 0
DWIDTH 14 0
BBX 11 12 1 -1
BITMAP
2100
2100
26E0
B200
AC80
A7E0
2CA0
34A0
24A0
24E0
2480
2080
ENDCHAR

STARTCHAR 64E6
ENCODING 45761
SWIDTH 1000 0
DWIDTH 14 0
BBX 12 12 1 -1
BITMAP
4080
4FF0
4A90
F7F0
49A0
5260
E660
4890
47E0
4080
44A0
C990
ENDCHAR

STARTCHAR 731C
ENCODING 45762
SWIDTH 1000 0
DWIDTH 14 0
BBX 12 12 1 -1
BITMAP
9000
77F0
6100
A3E0
2000
37E0
57E0
D420
97E0
2420
25E0
6460
ENDCHAR

STARTCHAR 88C1
ENCODING 45763
SWIDTH 1000 0
DWIDTH 14 0
BBX 12 12 1 -1
BITMAP
1100
7D20
1100
FFF0
0100
1120
FEA0
22C0
6CC0
E6C0
39D0
2330
ENDCHAR

STARTCHAR 6750
ENCODING 45764
SWIDTH 1000 0
DWIDTH 14 0
BBX 12 12 1 -1
BITMAP
2040
2040
2040
FBF0
20C0
70C0
6940
A140
A240
2440
2040
20C0
ENDCHAR

STARTCHAR 624D
ENCODING 45765
SWIDTH 1000 0
DWIDTH 14 0
BBX 12 12 1 -1
BITMAP
0100
0100
0100
FFF0
0300
0500
0D00
1900
3100
E100
8100
0700
ENDCHAR

STARTCHAR 8D22
ENCODING 45766
SWIDTH 1000 0
DWIDTH 14 0
BBX 12 12 1 -1
BITMAP
0020
F820
8820
8BF0
A860
A8A0
A8A0
A120
2320
3A20
4C20
80C0
ENDCHAR

STARTCHAR 776C
ENCODING 45767
SWIDTH 1000 0
DWIDTH 14 0
BBX 12 12 1 -1
BITMAP
0060
F780
90A0
92A0
B220
9080
F7F0
91C0
92C0
F2A0
8490
0880
ENDCHAR

STARTCHAR 8E29
ENCODING 45768
SWIDTH 1000 0
DWIDTH 14 0
BBX 12 12 1 -1
BITMAP
0060
7780
9000
94A0
7220
2080
A7F0
A1C0
A2C0
BAA0
E490
0080
ENDCHAR

STARTCHAR 91C7
ENCODING 45769
SWIDTH 1000 0
DWIDTH 14 0
BBX 12 12 1 -1
BITMAP
03E0
7C00
0440
24C0
2080
0400
FFF0
0D00
1500
34C0
C460
0400
ENDCHAR

STARTCHAR 5F69
ENCODING 45770
SWIDTH 1000 0
DWIDTH 14 0
BBX 12 12 1 -1
BITMAP
0600
F820
1240
5480
4000
1020
FE40
3180
3410
5220
90C0
1100
ENDCHAR

STARTCHAR 83DC
ENCODING 45771
SWIDTH 1000 0
DWIDTH 14 0
BBX 12 12 1 -1
BITMAP
0900
FFF0
0900
07E0
7800
2440
1280
FFF0
0B00
1280
2260
4220
ENDCHAR

STARTCHAR 8521
ENCODING 45772
SWIDTH 1000 0
DWIDTH 14 0
BBX 12 12 1 -1
BITMAP
0900
FFF0
2000
39E0
4520
9940
7F80
2060
FFD0
0200
32C0
4E20
ENDCHAR

STARTCHAR 9910
ENCODING 45773
SWIDTH 1000 0
DWIDTH 14 0
BBX 12 12 1 -1
BITMAP
1C00
10E0
7DA0
A840
36B0
5900
62F0
9D80
1F80
1F80
1240
39C0
ENDCHAR

STARTCHAR 53C2
ENCODING 45774
SWIDTH 1000 0
DWIDTH 14 0
BBX 12 12 1 -1
BITMAP
0C00
1080
3FE0
0000
FFF0
1080
2640
D9B0
0240
1CC0
0300
7C00
ENDCHAR

STARTCHAR 8695
ENCODING 45775
SWIDTH 1000 0
DWIDTH 14 0
BBX 12 11 1 -1
BITMAP
3F80
0400
FFF0
1080
20C0
FFF0
2440
2440
2F00
00C0
7FA0
ENDCHAR

STARTCHAR 6B8B
ENCODING 45776
SWIDTH 1000 0
DWIDTH 14 0
BBX 12 12 1 -1
BITMAP
0100
F960
2100
41E0
7700
5130
97C0
3520
20E0
2080
4350
8C70
ENDCHAR

STARTCHAR 60ED
ENCODING 45777
SWIDTH 1000 0
DWIDTH 14 0
BBX 12 12 1 -1
BITMAP
4430
4480
4A80
D880
C8F0
CFA0
44A0
44A0
5EA0
44A0
4520
4120
ENDCHAR

STARTCHAR 60E8
ENCODING 45778
SWIDTH 1000 0
DWIDTH 14 0
BBX 12 12 1 -1
BITMAP
2100
2220
27F0
B100
B7F0
A240
2DB0
2240
2480
2720
20C0
2700
ENDCHAR

STARTCHAR 707F
ENCODING 45779
SWIDTH 1000 0
DWIDTH 14 0
BBX 12 12 1 -1
BITMAP
2080
2080
2080
A490
B490
A490
A490
2490
5490
4C90
44F0
8710
ENDCHAR

STARTCHAR 82CD
ENCODING 45780
SWIDTH 1000 0
DWIDTH 14 0
BBX 12 12 1 -1
BITMAP
1000
FFF0
1000
0600
0B00
3080
DFF0
1080
1080
1180
1020
1FE0
ENDCHAR

STARTCHAR 8231
ENCODING 45781
SWIDTH 1000 0
DWIDTH 14 0
BBX 13 12 0 -1
BITMAP
1040
1040
4CA0
5490
5518
46F8
FD10
4510
5530
4500
4508
4CF0
ENDCHAR

STARTCHAR 4ED3
ENCODING 45782
SWIDTH 1000 0
DWIDTH 14 0
BBX 12 12 1 -1
BITMAP
0600
0E00
0900
10C0
6070
DF90
1080
1080
1180
1000
1020
1FE0
ENDCHAR

STARTCHAR 6CA7
ENCODING 45783
SWIDTH 1000 0
DWIDTH 14 0
BBX 12 12 1 -1
BITMAP
0100
6380
2280
0440
CC30
0FC0
0440
2440
24C0
6400
4430
C3E0
ENDCHAR

STARTCHAR 85CF
ENCODING 45784
SWIDTH 1000 0
DWIDTH 14 0
BBX 12 12 1 -1
BITMAP
0900
FFF0
0020
3FF0
A080
6F90
2AA0
ED60
AF60
AA40
AFB0
2130
ENDCHAR

STARTCHAR 64CD
ENCODING 45785
SWIDTH 1000 0
DWIDTH 14 0
BBX 12 12 1 -1
BITMAP
07E0
4420
47E0
6000
4EF0
5A90
6EF0
C100
4FF0
4340
4520
C910
ENDCHAR

STARTCHAR 7CD9
ENCODING 45786
SWIDTH 1000 0
DWIDTH 14 0
BBX 12 12 1 -1
BITMAP
2040
AD40
B5F0
2240
F1F0
6C00
7400
7560
A520
25E0
2600
29F0
ENDCHAR

STARTCHAR 69FD
ENCODING 45787
SWIDTH 1000 0
DWIDTH 14 0
BBX 12 12 1 -1
BITMAP
4200
4FF0
4280
4FE0
4FE0
6A20
DFE0
C000
47E0
47E0
4420
47E0
ENDCHAR

STARTCHAR 66F9
ENCODING 45788
SWIDTH 1000 0
DWIDTH 14 0
BBX 12 12 1 -1
BITMAP
0900
FFF0
4920
5FE0
7FE0
4920
7FE0
0000
3FC0
3FC0
2040
3FC0
ENDCHAR

STARTCHAR 8349
ENCODING 45789
SWIDTH 1000 0
DWIDTH 14 0
BBX 12 11 1 0
BITMAP
1100
FFF0
1100
0000
3FC0
2040
3FC0
2040
1F80
0410
7FE0
ENDCHAR

STARTCHAR 5395
ENCODING 45790
SWIDTH 1000 0
DWIDTH 14 0
BBX 12 12 1 -1
BITMAP
7FF0
4000
5000
5EA0
56A0
56A0
56A0
5AA0
5820
8A20
9320
B060
ENDCHAR

STARTCHAR 7B56
ENCODING 45791
SWIDTH 1000 0
DWIDTH 14 0
BBX 12 12 1 -1
BITMAP
2100
7DF0
9240
1200
FFF0
0400
7FE0
4420
4A60
1D00
34C0
C030
ENDCHAR

STARTCHAR 4FA7
ENCODING 45792
SWIDTH 1000 0
DWIDTH 14 0
BBX 12 12 1 -1
BITMAP
2010
5F10
5150
5550
D550
D550
5550
5550
4850
4A10
5910
5020
ENDCHAR

STARTCHAR 518C
ENCODING 45793
SWIDTH 1000 0
DWIDTH 14 0
BBX 12 11 1 -1
BITMAP
39E0
4920
4920
4920
4920
FFF0
4920
4920
4920
4A20
9A60
ENDCHAR

STARTCHAR 6D4B
ENCODING 45794
SWIDTH 1000 0
DWIDTH 14 0
BBX 12 12 1 -1
BITMAP
0010
5E10
1210
1690
D690
5690
1690
1490
4810
4A10
D910
9020
ENDCHAR

STARTCHAR 5C42
ENCODING 45795
SWIDTH 1000 0
DWIDTH 14 0
BBX 12 11 1 -1
BITMAP
5FE0
4020
7FE0
4000
4FE0
4000
5FF0
4200
44C0
8840
8FA0
ENDCHAR

STARTCHAR 8E6D
ENCODING 45796
SWIDTH 1000 0
DWIDTH 14 0
BBX 12 12 1 -1
BITMAP
0220
F040
97F0
9690
F5D0
2490
A140
B3E0
A220
A3E0
F220
83E0
ENDCHAR

STARTCHAR 63D2
ENCODING 45797
SWIDTH 1000 0
DWIDTH 14 0
BBX 12 12 1 -1
BITMAP
4060
4780
4100
FFF0
4100
5F60
6920
C920
4920
4920
47E0
C000
ENDCHAR

STARTCHAR 53C9
ENCODING 45798
SWIDTH 1000 0
DWIDTH 14 0
BBX 12 11 1 -1
BITMAP
7FC0
2040
2440
1480
1080
0900
0B00
0600
0F00
39C0
E070
ENDCHAR

STARTCHAR 832C
ENCODING 45799
SWIDTH 1000 0
DWIDTH 14 0
BBX 12 12 1 -1
BITMAP
1000
FFF0
1000
0400
FFF0
0900
3100
27E0
E100
2100
2100
2FF0
ENDCHAR

STARTCHAR 8336
ENCODING 45800
SWIDTH 1000 0
DWIDTH 14 0
BBX 12 12 1 -1
BITMAP
1080
FFF0
1080
0600
0900
10C0
E270
BFC0
0200
1280
2260
4C20
ENDCHAR

STARTCHAR 67E5
ENCODING 45801
SWIDTH 1000 0
DWIDTH 14 0
BBX 12 11 1 -1
BITMAP
FFF0
0D00
1480
6460
FFD0
2040
3FC0
2040
3FC0
0000
FFF0
ENDCHAR

STARTCHAR 78B4
ENCODING 45802
SWIDTH 1000 0
DWIDTH 14 0
BBX 12 12 1 -1
BITMAP
0080
F080
03E0
42C0
46B0
F410
D3E0
53E0
5420
73E0
5000
07F0
ENDCHAR

STARTCHAR 643D
ENCODING 45803
SWIDTH 1000 0
DWIDTH 14 0
BBX 12 12 1 -1
BITMAP
2240
2FF0
2240
F3C0
2180
3260
ECB0
A080
23C0
24A0
24B0
4900
ENDCHAR

STARTCHAR 5BDF
ENCODING 45804
SWIDTH 1000 0
DWIDTH 14 0
BBX 12 12 1 -1
BITMAP
0200
FFF0
A010
3DE0
4520
18C0
3FC0
2070
DFD0
0200
32C0
4620
ENDCHAR

STARTCHAR 5C94
ENCODING 45805
SWIDTH 1000 0
DWIDTH 14 0
BBX 12 12 1 -1
BITMAP
1100
1100
2080
4060
9F90
0880
3180
4400
2440
2440
2440
3FC0
ENDCHAR

STARTCHAR 5DEE
ENCODING 45806
SWIDTH 1000 0
DWIDTH 14 0
BBX 12 12 1 -1
BITMAP
1080
0100
7FE0
0400
7FE0
0800
FFF0
1800
1FE0
2000
C200
3FF0
ENDCHAR

STARTCHAR 8BE7
ENCODING 45807
SWIDTH 1000 0
DWIDTH 14 0
BBX 12 12 1 -1
BITMAP
4100
4000
2FF0
0810
E040
4780
4100
41F0
4F00
4100
3110
61F0
ENDCHAR

STARTCHAR 62C6
ENCODING 45808
SWIDTH 1000 0
DWIDTH 14 0
BBX 12 12 1 -1
BITMAP
2060
2380
2400
F400
27F0
2440
7440
A5C0
2460
2450
2C40
4040
ENDCHAR

STARTCHAR 67F4
ENCODING 45809
SWIDTH 1000 0
DWIDTH 14 0
BBX 12 12 1 -1
BITMAP
1100
5120
5DC0
5100
5110
FDF0
0200
0400
7FE0
1D80
6460
C030
ENDCHAR

STARTCHAR 8C7A
ENCODING 45810
SWIDTH 1000 0
DWIDTH 14 0
BBX 12 12 1 -1
BITMAP
0840
3040
D040
1BF0
7040
50C0
98C0
6940
9740
2440
C840
18C0
ENDCHAR

STARTCHAR 6400
ENCODING 45811
SWIDTH 1000 0
DWIDTH 14 0
BBX 12 12 1 -1
BITMAP
4200
47C0
4C80
F7F0
4820
57E0
E100
C290
4C60
41C0
4200
C1C0
ENDCHAR

STARTCHAR 63BA
ENCODING 45812
SWIDTH 1000 0
DWIDTH 14 0
BBX 12 12 1 -1
BITMAP
4300
4240
47E0
F100
4FF0
5240
ECB0
4B00
4CC0
4330
44C0
CF00
ENDCHAR

STARTCHAR 8749
ENCODING 45813
SWIDTH 1000 0
DWIDTH 14 0
BBX 12 12 1 -1
BITMAP
2240
2040
FBE0
ACA0
ACA0
ADE0
FCA0
A3E0
2880
3FF0
C880
0080
ENDCHAR

STARTCHAR 998B
ENCODING 45814
SWIDTH 1000 0
DWIDTH 14 0
BBX 12 12 1 -1
BITMAP
2200
43C0
7440
97F0
8510
47F0
4110
4690
4C60
51C0
6200
41C0
ENDCHAR

STARTCHAR 8C17
ENCODING 45815
SWIDTH 1000 0
DWIDTH 14 0
BBX 12 12 1 -1
BITMAP
4200
67C0
2080
0FE0
C920
4FE0
4280
4490
5860
51C0
6600
4180
ENDCHAR

STARTCHAR 7F20
ENCODING 45816
SWIDTH 1000 0
DWIDTH 14 0
BBX 12 12 1 -1
BITMAP
6080
4FF0
4800
9BE0
EAA0
4BE0
4AA0
EBE0
0880
0BF0
C880
17F0
ENDCHAR

STARTCHAR 94F2
ENCODING 45817
SWIDTH 1000 0
DWIDTH 14 0
BBX 12 12 1 -1
BITMAP
2080
47F0
7800
8120
F040
23F0
2400
FC00
2400
3C00
3400
0800
ENDCHAR

STARTCHAR 4EA7
ENCODING 45818
SWIDTH 1000 0
DWIDTH 14 0
BBX 13 12 0 -1
BITMAP
0100
4108
3EF0
0440
0480
3FF8
2000
2000
2000
2000
6000
C000
ENDCHAR

STARTCHAR 9610
ENCODING 45819
SWIDTH 1000 0
DWIDTH 14 0
BBX 10 12 2 -1
BITMAP
4000
67C0
1240
9240
BF40
A540
BF40
BF40
8440
FFC0
8440
84C0
ENDCHAR

STARTCHAR 98A4
ENCODING 45820
SWIDTH 1000 0
DWIDTH 14 0
BBX 12 12 1 -1
BITMAP
03F0
FC40
FC00
B5F0
8510
8550
7950
F950
F990
F880
01A0
F310
ENDCHAR

STARTCHAR 660C
ENCODING 45821
SWIDTH 1000 0
DWIDTH 14 0
BBX 10 12 2 -1
BITMAP
7F80
4080
7F80
4080
7F80
0000
FFC0
8040
FFC0
8040
FFC0
8040
ENDCHAR

STARTCHAR 7316
ENCODING 45822
SWIDTH 1000 0
DWIDTH 14 0
BBX 11 12 1 -1
BITMAP
1000
95E0
6420
E5E0
27E0
2000
57E0
9420
9420
17E0
2420
E7E0
ENDCHAR

STARTCHAR 573A
ENCODING 45985
SWIDTH 1000 0
DWIDTH 14 0
BBX 12 12 1 -1
BITMAP
2000
27E0
2040
F180
2200
27F0
2250
2290
3490
CD90
0330
0660
ENDCHAR

STARTCHAR 5C1D
ENCODING 45986
SWIDTH 1000 0
DWIDTH 14 0
BBX 12 12 1 -1
BITMAP
0400
2440
0480
FFF0
8010
BF90
0000
8010
7FE0
0880
3040
3FA0
ENDCHAR

STARTCHAR 5E38
ENCODING 45987
SWIDTH 1000 0
DWIDTH 14 0
BBX 12 12 1 -1
BITMAP
2440
1480
FFF0
8010
BF90
2080
3F80
0400
3FC0
2440
2440
24C0
ENDCHAR

STARTCHAR 957F
ENCODING 45988
SWIDTH 1000 0
DWIDTH 14 0
BBX 12 12 1 -1
BITMAP
1040
10C0
1180
1300
1000
FFF0
1200
1100
1180
14C0
1C70
1000
ENDCHAR

STARTCHAR 507F
ENCODING 45989
SWIDTH 1000 0
DWIDTH 14 0
BBX 12 12 1 -1
BITMAP
2100
2560
4100
4FF0
C810
CFC0
4000
4FF0
4200
4240
4420
0FE0
ENDCHAR

STARTCHAR 80A0
ENCODING 45990
SWIDTH 1000 0
DWIDTH 14 0
BBX 12 11 1 -1
BITMAP
31E0
9040
9180
B300
93F0
9150
7290
9490
9120
9320
B660
ENDCHAR

STARTCHAR 5382
ENCODING 45991
SWIDTH 1000 0
DWIDTH 14 0
BBX 12 11 1 -1
BITMAP
7FF0
6000
6000
6000
6000
4000
4000
4000
4000
4000
8000
ENDCHAR

STARTCHAR 655E
ENCODING 45992
SWIDTH 1000 0
DWIDTH 14 0
BBX 12 12 1 -1
BITMAP
1080
9480
5500
1160
FD20
8520
BD20
ACA0
ACC0
BC40
84E0
8D30
ENDCHAR

STARTCHAR 7545
ENCODING 45993
SWIDTH 1000 0
DWIDTH 14 0
BBX 12 12 1 -1
BITMAP
2000
23E0
F8C0
A980
AB00
F9F0
A950
AA50
BA90
2490
2120
2260
ENDCHAR

STARTCHAR 5531
ENCODING 45994
SWIDTH 1000 0
DWIDTH 14 0
BBX 12 12 1 -1
BITMAP
07E0
F420
97E0
9420
97E0
9000
97F0
9410
97F0
8410
07F0
0410
ENDCHAR

STARTCHAR 5021
ENCODING 45995
SWIDTH 1000 0
DWIDTH 14 0
BBX 13 12 0 -1
BITMAP
1A00
13F0
3210
33F0
5210
D1E0
1408
15F8
1408
15E8
1408
15E8
ENDCHAR

STARTCHAR 8D85
ENCODING 45996
SWIDTH 1000 0
DWIDTH 14 0
BBX 12 12 1 -1
BITMAP
1000
23E0
F8A0
2120
FF60
1000
51E0
5E20
5220
D1E0
B000
8FF0
ENDCHAR

STARTCHAR 6284
ENCODING 45997
SWIDTH 1000 0
DWIDTH 14 0
BBX 12 12 1 -1
BITMAP
2000
2100
2100
F520
2530
2500
7520
A020
2040
20C0
2100
CE00
ENDCHAR

STARTCHAR 949E
ENCODING 45998
SWIDTH 1000 0
DWIDTH 14 0
BBX 12 12 1 -1
BITMAP
6080
4080
F880
82A0
7290
2480
24B0
F0A0
2040
3840
3180
0600
ENDCHAR

STARTCHAR 671D
ENCODING 45999
SWIDTH 1000 0
DWIDTH 14 0
BBX 12 12 1 -1
BITMAP
1000
FFF0
1110
7D10
45F0
7D10
4510
7DF0
1110
FD10
1310
1230
ENDCHAR

STARTCHAR 5632
ENCODING 46000
SWIDTH 1000 0
DWIDTH 14 0
BBX 12 12 1 -1
BITMAP
0400
F470
AE90
A490
AB90
AF90
A990
AF90
E490
BF90
8590
0520
ENDCHAR

STARTCHAR 6F6E
ENCODING 46001
SWIDTH 1000 0
DWIDTH 14 0
BBX 12 11 1 -1
BITMAP
68F0
0C90
0090
DE90
5E90
1290
1EF0
4890
9E90
8910
8330
ENDCHAR

STARTCHAR 5DE2
ENCODING 46002
SWIDTH 1000 0
DWIDTH 14 0
BBX 12 12 1 -1
BITMAP
2260
4480
3260
0000
1FE0
3FE0
4420
3FE0
0400
7FE0
1480
E070
ENDCHAR

STARTCHAR 5435
ENCODING 46003
SWIDTH 1000 0
DWIDTH 14 0
BBX 12 12 1 -1
BITMAP
0080
F080
9080
94A0
9490
9480
94B0
90A0
9040
80C0
0180
0E00
ENDCHAR

STARTCHAR 7092
ENCODING 46004
SWIDTH 1000 0
DWIDTH 14 0
BBX 12 12 1 -1
BITMAP
2080
2080
2080
BAA0
A490
A480
24A0
20A0
5040
4840
C180
8E00
ENDCHAR

STARTCHAR 8F66
ENCODING 46005
SWIDTH 1000 0
DWIDTH 14 0
BBX 12 12 1 -1
BITMAP
0400
0400
7FF0
1000
1200
2200
3FE0
0200
0200
FFF0
0200
0200
ENDCHAR

STARTCHAR 626F
ENCODING 46006
SWIDTH 1000 0
DWIDTH 14 0
BBX 12 12 1 -1
BITMAP
2080
2080
2080
F480
24E0
2480
3480
E480
2480
2480
2480
CFF0
ENDCHAR

STARTCHAR 64A4
ENCODING 46007
SWIDTH 1000 0
DWIDTH 14 0
BBX 12 12 1 -1
BITMAP
4440
4040
5F70
EA80
5DA0
40A0
CFA0
CF60
5160
4F20
5160
C290
ENDCHAR

STARTCHAR 63A3
ENCODING 46008
SWIDTH 1000 0
DWIDTH 14 0
BBX 12 12 1 -1
BITMAP
5020
7CA0
FEA0
10A0
7EA0
5260
0000
7FC0
0200
1F80
FFF0
0600
ENDCHAR

STARTCHAR 5F7B
ENCODING 46009
SWIDTH 1000 0
DWIDTH 14 0
BBX 12 12 1 -1
BITMAP
2400
65F0
4490
A490
2490
4490
C490
C690
4490
4110
4220
0460
ENDCHAR

STARTCHAR 6F88
ENCODING 46010
SWIDTH 1000 0
DWIDTH 14 0
BBX 12 12 1 -1
BITMAP
8840
4080
1CF0
12A0
DF20
1FA0
12A0
5EA0
5240
9A40
92A0
95B0
ENDCHAR

STARTCHAR 90F4
ENCODING 46011
SWIDTH 1000 0
DWIDTH 14 0
BBX 12 12 1 -1
BITMAP
2400
24F0
2490
FFA0
64A0
74A0
7D90
AC90
BC90
24B0
2480
2480
ENDCHAR

STARTCHAR 81E3
ENCODING 46012
SWIDTH 1000 0
DWIDTH 14 0
BBX 11 11 2 -1
BITMAP
BF80
8400
8400
FFC0
8040
8040
FFC0
8400
8400
8400
FFE0
ENDCHAR

STARTCHAR 8FB0
ENCODING 46013
SWIDTH 1000 0
DWIDTH 14 0
BBX 12 12 1 -1
BITMAP
7FE0
4000
4000
4FE0
4000
7FF0
4A00
4960
49C0
4880
8E70
1810
ENDCHAR

STARTCHAR 5C18
ENCODING 46014
SWIDTH 1000 0
DWIDTH 14 0
BBX 12 12 1 -1
BITMAP
0400
2400
24C0
6460
4430
0000
0400
0420
3FC0
0400
0400
FFF0
ENDCHAR

STARTCHAR 6668
ENCODING 46015
SWIDTH 1000 0
DWIDTH 14 0
BBX 12 12 1 -1
BITMAP
3FE0
2020
3FA0
3FE0
0000
5FE0
5FC0
4000
5FE0
4940
4880
9870
ENDCHAR

STARTCHAR 5FF1
ENCODING 46016
SWIDTH 1000 0
DWIDTH 14 0
BBX 12 12 1 -1
BITMAP
2180
2080
2080
B770
A510
A510
2180
2180
2280
2680
2C90
28F0
ENDCHAR

STARTCHAR 6C89
ENCODING 46017
SWIDTH 1000 0
DWIDTH 14 0
BBX 12 12 1 -1
BITMAP
4000
6FF0
0810
0000
C3C0
0240
0240
2240
2240
4450
C450
0870
ENDCHAR

STARTCHAR 9648
ENCODING 46018
SWIDTH 1000 0
DWIDTH 14 0
BBX 12 12 1 -1
BITMAP
0100
F100
9FF0
A200
A480
A480
93F0
9080
B2A0
A4B0
8890
8180
ENDCHAR

STARTCHAR 8D81
ENCODING 46019
SWIDTH 1000 0
DWIDTH 14 0
BBX 12 12 1 -1
BITMAP
1080
1140
F960
12B0
1080
FB60
10C0
5B30
5060
D380
B000
8FF0
ENDCHAR

STARTCHAR 886C
ENCODING 46020
SWIDTH 1000 0
DWIDTH 14 0
BBX 12 12 1 -1
BITMAP
2020
2020
F820
13F0
1020
2820
7920
B920
2C20
2020
2020
20C0
ENDCHAR

STARTCHAR 6491
ENCODING 46021
SWIDTH 1000 0
DWIDTH 14 0
BBX 12 12 1 -1
BITMAP
0420
4000
5FF0
6BF0
4420
53E0
60E0
C300
47E0
4100
47E0
C300
ENDCHAR

STARTCHAR 79F0
ENCODING 46022
SWIDTH 1000 0
DWIDTH 14 0
BBX 12 12 1 -1
BITMAP
0100
F200
23F0
2220
FCA0
6080
70A0
AEA0
A490
A490
2880
2180
ENDCHAR

STARTCHAR 57CE
ENCODING 46023
SWIDTH 1000 0
DWIDTH 14 0
BBX 12 12 1 -1
BITMAP
40A0
40A0
4FF0
4880
48A0
4EA0
4AA0
4AA0
6A40
D640
10F0
2330
ENDCHAR

STARTCHAR 6A59
ENCODING 46024
SWIDTH 1000 0
DWIDTH 14 0
BBX 12 12 1 -1
BITMAP
40A0
46C0
5A50
6460
4D30
4810
D7E0
C420
47E0
4240
4240
4FF0
ENDCHAR

STARTCHAR 6210
ENCODING 46025
SWIDTH 1000 0
DWIDTH 14 0
BBX 12 12 1 -1
BITMAP
0240
0200
7FF0
4200
4140
7940
4940
49C0
4880
5980
C250
8430
ENDCHAR

STARTCHAR 5448
ENCODING 46026
SWIDTH 1000 0
DWIDTH 14 0
BBX 12 12 1 -1
BITMAP
3FC0
2040
2040
3FC0
0000
7FE0
0200
0200
3FC0
0200
0200
FFF0
ENDCHAR

STARTCHAR 4E58
ENCODING 46027
SWIDTH 1000 0
DWIDTH 14 0
BBX 12 12 1 -1
BITMAP
07C0
7A00
FFF0
0200
12A0
F2C0
1690
76E0
0B00
12C0
6230
0600
ENDCHAR

STARTCHAR 7A0B
ENCODING 46028
SWIDTH 1000 0
DWIDTH 14 0
BBX 12 12 1 -1
BITMAP
3000
E1E0
2420
2020
F9C0
2000
77F0
6880
A3E0
2080
2080
27F0
ENDCHAR

STARTCHAR 60E9
ENCODING 46029
SWIDTH 1000 0
DWIDTH 14 0
BBX 12 12 1 -1
BITMAP
3000
4FC0
8100
25E0
6500
A500
2FF0
2000
0200
5320
5010
9FC0
ENDCHAR

STARTCHAR 6F84
ENCODING 46030
SWIDTH 1000 0
DWIDTH 14 0
BBX 12 12 1 -1
BITMAP
4C60
6280
14B0
0C40
C9E0
3010
03C0
4040
4380
4440
C080
9FF0
ENDCHAR

STARTCHAR 8BDA
ENCODING 46031
SWIDTH 1000 0
DWIDTH 14 0
BBX 12 12 1 -1
BITMAP
0020
4100
4FE0
0880
C880
4EA0
4AA0
4AC0
5240
76C0
D1F0
1330
ENDCHAR

STARTCHAR 627F
ENCODING 46032
SWIDTH 1000 0
DWIDTH 14 0
BBX 12 12 1 -1
BITMAP
7FC0
0080
0700
0480
FEB0
24C0
2E80
2440
6F40
4420
8410
0C00
ENDCHAR

STARTCHAR 901E
ENCODING 46033
SWIDTH 1000 0
DWIDTH 14 0
BBX 12 12 1 -1
BITMAP
4FE0
4820
4820
0FE0
0000
C7E0
4100
47E0
4100
4FF0
6000
9FF0
ENDCHAR

STARTCHAR 9A8B
ENCODING 46034
SWIDTH 1000 0
DWIDTH 14 0
BBX 12 12 1 -1
BITMAP
0080
F7E0
54A0
57E0
94A0
97E0
F800
17F0
3200
D3E0
1020
30E0
ENDCHAR

STARTCHAR 79E4
ENCODING 46035
SWIDTH 1000 0
DWIDTH 14 0
BBX 12 12 1 -1
BITMAP
1000
E7F0
20A0
20A0
FAA0
62A0
7080
6FF0
A080
A080
2080
2080
ENDCHAR

STARTCHAR 5403
ENCODING 46036
SWIDTH 1000 0
DWIDTH 14 0
BBX 12 12 1 -1
BITMAP
0100
F200
93F0
9400
9C00
93C0
9080
9100
F100
9200
8210
03E0
ENDCHAR

STARTCHAR 75F4
ENCODING 46037
SWIDTH 1000 0
DWIDTH 14 0
BBX 12 12 1 -1
BITMAP
0200
3FF0
2000
A800
AFF0
B490
6490
BF90
2690
4690
49F0
D890
ENDCHAR

STARTCHAR 6301
ENCODING 46038
SWIDTH 1000 0
DWIDTH 14 0
BBX 12 12 1 -1
BITMAP
2100
2100
27E0
F100
2FF0
2040
3040
E7F0
2040
2240
2040
E0C0
ENDCHAR

STARTCHAR 5319
ENCODING 46039
SWIDTH 1000 0
DWIDTH 14 0
BBX 12 12 1 -1
BITMAP
7C80
4480
7C80
44B0
7CC0
0080
FE80
1080
5EB0
5040
B000
8FF0
ENDCHAR

STARTCHAR 6C60
ENCODING 46040
SWIDTH 1000 0
DWIDTH 14 0
BBX 12 12 1 -1
BITMAP
4100
6100
2500
0560
C7A0
5D20
0520
0560
4540
4500
C410
87F0
ENDCHAR

STARTCHAR 8FDF
ENCODING 46041
SWIDTH 1000 0
DWIDTH 14 0
BBX 12 11 1 -1
BITMAP
47E0
2420
0420
07E0
E420
2580
28C0
2860
2820
5000
8FF0
ENDCHAR

STARTCHAR 5F1B
ENCODING 46042
SWIDTH 1000 0
DWIDTH 14 0
BBX 12 12 1 -1
BITMAP
0080
F080
1480
14E0
87A0
8CA0
F4A0
14E0
1480
2480
2410
63F0
ENDCHAR

STARTCHAR 9A70
ENCODING 46043
SWIDTH 1000 0
DWIDTH 14 0
BBX 12 12 1 -1
BITMAP
0080
F080
1280
52E0
53A0
56A0
72A0
12E0
7280
9290
1210
33E0
ENDCHAR

STARTCHAR 803B
ENCODING 46044
SWIDTH 1000 0
DWIDTH 14 0
BBX 12 12 1 -1
BITMAP
0040
FC40
4840
4A40
6A70
4A40
4A40
6A40
4A40
5E40
E840
0BF0
ENDCHAR

STARTCHAR 9F7F
ENCODING 46045
SWIDTH 1000 0
DWIDTH 14 0
BBX 12 12 1 -1
BITMAP
0400
2200
23C0
2200
FFF0
0000
2420
2620
29A0
30A0
2020
3FE0
ENDCHAR

STARTCHAR 4F88
ENCODING 46046
SWIDTH 1000 0
DWIDTH 14 0
BBX 12 12 1 -1
BITMAP
2200
23E0
6460
6B40
A180
AE00
2100
22F0
2520
20C0
2080
2F00
ENDCHAR

STARTCHAR 5C3A
ENCODING 46047
SWIDTH 1000 0
DWIDTH 14 0
BBX 12 11 1 -1
BITMAP
3FE0
2060
2060
3FE0
2260
2200
2200
6100
4080
4070
8020
ENDCHAR

STARTCHAR 8D64
ENCODING 46048
SWIDTH 1000 0
DWIDTH 14 0
BBX 12 12 1 -1
BITMAP
0200
0200
7FE0
0200
FFF0
0900
2900
2920
4930
1100
3100
6300
ENDCHAR

STARTCHAR 7FC5
ENCODING 46049
SWIDTH 1000 0
DWIDTH 14 0
BBX 12 12 1 -1
BITMAP
2770
2110
F910
2550
2550
F130
1350
5D10
5110
2330
5000
8FF0
ENDCHAR

STARTCHAR 65A5
ENCODING 46050
SWIDTH 1000 0
DWIDTH 14 0
BBX 12 12 1 -1
BITMAP
03C0
7C00
2000
2000
3FF0
4100
4D00
4300
41C0
4130
C100
8100
ENDCHAR

STARTCHAR 70BD
ENCODING 46051
SWIDTH 1000 0
DWIDTH 14 0
BBX 12 12 1 -1
BITMAP
2000
23E0
2220
AA20
B220
A220
A3E0
2000
7240
5A20
4420
8C10
ENDCHAR

STARTCHAR 5145
ENCODING 46052
SWIDTH 1000 0
DWIDTH 14 0
BBX 12 12 1 -1
BITMAP
0400
0200
FFF0
0800
10C0
3FE0
0900
0900
0900
1100
3110
E0E0
ENDCHAR

STARTCHAR 51B2
ENCODING 46053
SWIDTH 1000 0
DWIDTH 14 0
BBX 12 11 1 -1
BITMAP
4100
4FF0
6930
0930
0930
2930
4FF0
4930
C100
0100
0100
ENDCHAR

STARTCHAR 866B
ENCODING 46054
SWIDTH 1000 0
DWIDTH 14 0
BBX 11 12 2 -1
BITMAP
0800
0800
FF80
4880
4880
4880
7F80
4880
0800
0880
0FC0
F060
ENDCHAR

STARTCHAR 5D07
ENCODING 46055
SWIDTH 1000 0
DWIDTH 14 0
BBX 12 12 1 -1
BITMAP
4220
4220
3DC0
0200
7FF0
4010
3FC0
0000
FFF0
0200
3240
4630
ENDCHAR

STARTCHAR 5BA0
ENCODING 46056
SWIDTH 1000 0
DWIDTH 14 0
BBX 12 12 1 -1
BITMAP
0600
8200
BDE0
8920
0880
FFF0
0A00
0A40
1280
3300
6610
C1E0
ENDCHAR

STARTCHAR 62BD
ENCODING 46057
SWIDTH 1000 0
DWIDTH 14 0
BBX 12 12 1 -1
BITMAP
2080
2080
2080
F7F0
2490
2490
77F0
A490
2490
2490
27F0
C410
ENDCHAR

STARTCHAR 916C
ENCODING 46058
SWIDTH 1000 0
DWIDTH 14 0
BBX 12 12 1 -1
BITMAP
0550
7A50
5150
F950
DA50
DEF0
DAF0
CA50
FA50
8A50
FA50
8850
ENDCHAR

STARTCHAR 7574
ENCODING 46059
SWIDTH 1000 0
DWIDTH 14 0
BBX 12 12 1 -1
BITMAP
0080
FFE0
A880
ABE0
A900
FFF0
A900
AA40
AAE0
FF40
8440
00C0
ENDCHAR

STARTCHAR 8E0C
ENCODING 46060
SWIDTH 1000 0
DWIDTH 14 0
BBX 12 12 1 -1
BITMAP
0080
B7F0
9080
97E0
2100
27F0
A120
BA20
A7E0
A520
F120
80C0
ENDCHAR

STARTCHAR 7A20
ENCODING 46061
SWIDTH 1000 0
DWIDTH 14 0
BBX 12 12 1 -1
BITMAP
37E0
E410
2490
25D0
F490
67D0
7410
B5D0
A550
29D0
2810
2830
ENDCHAR

STARTCHAR 6101
ENCODING 46062
SWIDTH 1000 0
DWIDTH 14 0
BBX 12 12 1 -1
BITMAP
0880
70A0
22A0
FAA0
2980
6940
A320
1210
1240
5220
50B0
1F80
ENDCHAR

STARTCHAR 7B79
ENCODING 46063
SWIDTH 1000 0
DWIDTH 14 0
BBX 12 12 1 -1
BITMAP
2180
7DF0
D240
0400
7FE0
0800
3FC0
FFF0
1000
3FF0
6880
C580
ENDCHAR

STARTCHAR 4EC7
ENCODING 46064
SWIDTH 1000 0
DWIDTH 14 0
BBX 13 12 0 -1
BITMAP
1100
1100
2100
27E0
6120
E120
2120
2120
2220
2220
2428
2C38
ENDCHAR

STARTCHAR 7EF8
ENCODING 46065
SWIDTH 1000 0
DWIDTH 14 0
BBX 12 12 1 -1
BITMAP
2000
47F0
5490
95D0
E490
27D0
4410
F5D0
0650
7850
8810
1870
ENDCHAR

STARTCHAR 7785
ENCODING 46066
SWIDTH 1000 0
DWIDTH 14 0
BBX 12 12 1 -1
BITMAP
0040
FC40
A440
A550
EF60
AD60
EC40
AE40
B4C0
E4A0
A510
0710
ENDCHAR

STARTCHAR 4E11
ENCODING 46067
SWIDTH 1000 0
DWIDTH 14 0
BBX 10 11 2 -1
BITMAP
FFC0
0880
0880
1080
9080
7F80
1080
1080
1080
1080
EF40
ENDCHAR

STARTCHAR 81ED
ENCODING 46068
SWIDTH 1000 0
DWIDTH 14 0
BBX 12 12 1 -1
BITMAP
0800
3FC0
2040
3FC0
3FC0
2040
3FC0
04C0
FFF0
0600
1900
F0F0
ENDCHAR

STARTCHAR 521D
ENCODING 46069
SWIDTH 1000 0
DWIDTH 14 0
BBX 12 12 1 -1
BITMAP
2000
13F0
0090
F090
1110
2D10
7110
A910
2110
2220
2620
2460
ENDCHAR

STARTCHAR 51FA
ENCODING 46070
SWIDTH 1000 0
DWIDTH 14 0
BBX 10 12 2 -1
BITMAP
0800
8840
8840
8840
8840
FFC0
0800
8840
8840
8840
FFC0
0040
ENDCHAR

STARTCHAR 6A71
ENCODING 46071
SWIDTH 1000 0
DWIDTH 14 0
BBX 11 12 1 -1
BITMAP
4000
4BE0
4800
F920
4820
4B20
EB20
CB60
48E0
4B20
51A0
5620
ENDCHAR

STARTCHAR 53A8
ENCODING 46072
SWIDTH 1000 0
DWIDTH 14 0
BBX 12 12 1 -1
BITMAP
7FF0
4000
7E20
4020
50F0
5E20
52A0
9EA0
92A0
9420
8720
B860
ENDCHAR

STARTCHAR 8E87
ENCODING 46073
SWIDTH 1000 0
DWIDTH 14 0
BBX 12 12 1 -1
BITMAP
0240
B7F0
9240
9130
F3A0
2140
A3A0
A3C0
AE20
A3E0
F220
83E0
ENDCHAR

STARTCHAR 9504
ENCODING 46074
SWIDTH 1000 0
DWIDTH 14 0
BBX 12 12 1 -1
BITMAP
4040
4A40
FAF0
8A50
6A50
4A50
FA50
4A50
4A90
5890
6EB0
0120
ENDCHAR

STARTCHAR 96CF
ENCODING 46075
SWIDTH 1000 0
DWIDTH 14 0
BBX 12 12 1 -1
BITMAP
4340
7A40
93F0
9640
0640
FAF0
0A40
FBF0
0A40
0A40
FBF0
0A00
ENDCHAR

STARTCHAR 6EC1
ENCODING 46076
SWIDTH 1000 0
DWIDTH 14 0
BBX 12 12 1 -1
BITMAP
0080
5CC0
1540
1A20
DFD0
5480
17E0
5480
5EA0
92A0
9490
9180
ENDCHAR

STARTCHAR 9664
ENCODING 46077
SWIDTH 1000 0
DWIDTH 14 0
BBX 12 12 1 -1
BITMAP
0100
B380
9240
A420
ABD0
9100
9100
93C0
B100
8520
8930
8300
ENDCHAR

STARTCHAR 695A
ENCODING 46078
SWIDTH 1000 0
DWIDTH 14 0
BBX 12 12 1 -1
BITMAP
0080
2080
71E0
69E0
A290
0080
7FE0
0020
23C0
2400
5800
87F0
ENDCHAR

STARTCHAR 7840
ENCODING 46241
SWIDTH 1000 0
DWIDTH 14 0
BBX 12 12 1 -1
BITMAP
0080
FA90
2290
2290
43F0
7080
D080
5290
5290
7290
5290
4370
ENDCHAR

STARTCHAR 50A8
ENCODING 46242
SWIDTH 1000 0
DWIDTH 14 0
BBX 12 12 1 -1
BITMAP
2080
4BD0
48A0
40A0
DBF0
C880
49E0
4B20
49E0
4D20
4920
41E0
ENDCHAR

STARTCHAR 77D7
ENCODING 46243
SWIDTH 1000 0
DWIDTH 14 0
BBX 12 13 1 -2
BITMAP
FFF0
2440
3BC0
3FC0
3FC0
FFF0
0000
71E0
1860
BAE0
BAE0
38E0
71C0
ENDCHAR

STARTCHAR 6410
ENCODING 46244
SWIDTH 1000 0
DWIDTH 14 0
BBX 12 12 1 -1
BITMAP
0180
4FF0
4200
F6C0
4100
5620
E1D0
47E0
4920
47E0
4920
C7E0
ENDCHAR

STARTCHAR 89E6
ENCODING 46245
SWIDTH 1000 0
DWIDTH 14 0
BBX 12 12 1 -1
BITMAP
2080
7880
93F0
9290
AA90
AA90
BA90
AAD0
7A80
A890
88F0
8B10
ENDCHAR

STARTCHAR 5904
ENCODING 46246
SWIDTH 1000 0
DWIDTH 14 0
BBX 12 12 1 -1
BITMAP
3080
2080
3C80
4480
44E0
E4B0
A490
1880
1880
1C80
2700
C1F0
ENDCHAR

STARTCHAR 63E3
ENCODING 46247
SWIDTH 1000 0
DWIDTH 14 0
BBX 12 12 1 -1
BITMAP
4520
4520
4520
F7E0
4000
57E0
6100
CFF0
4A90
4A90
4A10
CA30
ENDCHAR

STARTCHAR 5DDD
ENCODING 46248
SWIDTH 1000 0
DWIDTH 14 0
BBX 11 12 1 -1
BITMAP
2020
2220
2220
2220
2220
2220
2220
2220
6220
4220
4220
C020
ENDCHAR

STARTCHAR 7A7F
ENCODING 46249
SWIDTH 1000 0
DWIDTH 14 0
BBX 12 12 1 -1
BITMAP
0200
FFF0
8010
98D0
0040
7FE0
1080
3FF0
0380
0480
1880
6380
ENDCHAR

STARTCHAR 693D
ENCODING 46250
SWIDTH 1000 0
DWIDTH 14 0
BBX 12 12 1 -1
BITMAP
2200
23E0
2640
F1C0
6FF0
7300
B5A0
A2E0
2CE0
2350
2C90
2180
ENDCHAR

STARTCHAR 4F20
ENCODING 46251
SWIDTH 1000 0
DWIDTH 14 0
BBX 12 12 1 -1
BITMAP
3100
2200
2FE0
6200
FFF0
A200
2200
27E0
2040
2280
2180
20C0
ENDCHAR

STARTCHAR 8239
ENCODING 46252
SWIDTH 1000 0
DWIDTH 14 0
BBX 12 12 1 -1
BITMAP
2000
79E0
4920
6920
5A30
4800
7800
68E0
6A20
8A20
89E0
9820
ENDCHAR

STARTCHAR 5598
ENCODING 46253
SWIDTH 1000 0
DWIDTH 14 0
BBX 12 12 1 -1
BITMAP
04A0
E4A0
A4A0
A340
A000
A7E0
A100
AFF0
EA90
AA90
8810
0830
ENDCHAR

STARTCHAR 4E32
ENCODING 46254
SWIDTH 1000 0
DWIDTH 14 0
BBX 10 12 2 -1
BITMAP
0400
FFC0
8440
8440
FFC0
0400
FFC0
8440
8440
FFC0
8440
0400
ENDCHAR

STARTCHAR 75AE
ENCODING 46255
SWIDTH 1000 0
DWIDTH 14 0
BBX 12 12 1 -1
BITMAP
0200
3FF0
A000
A300
A280
2C60
FFD0
2440
2440
6480
4410
47E0
ENDCHAR

STARTCHAR 7A97
ENCODING 46256
SWIDTH 1000 0
DWIDTH 14 0
BBX 12 12 1 -1
BITMAP
0400
FFF0
8010
30C0
4400
3FC0
4C40
5F40
5540
4E40
4040
3FC0
ENDCHAR

STARTCHAR 5E62
ENCODING 46257
SWIDTH 1000 0
DWIDTH 14 0
BBX 12 12 1 -1
BITMAP
0080
47F0
F240
D7F0
D000
D5E0
D7E0
D480
D1C0
C7E0
4080
0FF0
ENDCHAR

STARTCHAR 5E8A
ENCODING 46258
SWIDTH 1000 0
DWIDTH 14 0
BBX 12 12 1 -1
BITMAP
0200
7FF0
4000
4200
4200
5FE0
4700
4680
4A40
D220
A200
8200
ENDCHAR

STARTCHAR 95EF
ENCODING 46259
SWIDTH 1000 0
DWIDTH 14 0
BBX 11 12 2 -1
BITMAP
4800
27E0
0020
BE20
9220
9220
9220
8D20
8120
9920
8320
8040
ENDCHAR

STARTCHAR 521B
ENCODING 46260
SWIDTH 1000 0
DWIDTH 14 0
BBX 11 12 1 -1
BITMAP
1020
3820
2420
4120
FD20
4520
4520
5D20
4020
4020
4420
3C60
ENDCHAR

STARTCHAR 5439
ENCODING 46261
SWIDTH 1000 0
DWIDTH 14 0
BBX 12 12 1 -1
BITMAP
0200
8200
B3F0
9410
9420
9100
9100
F180
9380
8240
0460
1830
ENDCHAR

STARTCHAR 708A
ENCODING 46262
SWIDTH 1000 0
DWIDTH 14 0
BBX 12 12 1 -1
BITMAP
2300
2200
2A10
BBF0
B420
A480
2080
3180
3980
4B40
C260
8C30
ENDCHAR

STARTCHAR 6376
ENCODING 46263
SWIDTH 1000 0
DWIDTH 14 0
BBX 12 12 1 -1
BITMAP
4020
47C0
4100
FFF0
4520
4520
6FF0
C520
4520
43C0
4000
CFF0
ENDCHAR

STARTCHAR 9524
ENCODING 46264
SWIDTH 1000 0
DWIDTH 14 0
BBX 12 12 1 -1
BITMAP
40E0
4700
F100
87E0
7520
2520
27E0
6520
2520
33C0
2000
0FF0
ENDCHAR

STARTCHAR 5782
ENCODING 46265
SWIDTH 1000 0
DWIDTH 14 0
BBX 12 12 1 -1
BITMAP
03C0
7E00
0200
FFF0
1240
1250
3FE0
1240
FFF0
0200
0200
7FE0
ENDCHAR

STARTCHAR 6625
ENCODING 46266
SWIDTH 1000 0
DWIDTH 14 0
BBX 12 12 1 -1
BITMAP
0200
7FE0
0400
7FE0
0C00
FFF0
10C0
7FE0
D050
1FC0
1040
1FC0
ENDCHAR

STARTCHAR 693F
ENCODING 46267
SWIDTH 1000 0
DWIDTH 14 0
BBX 12 12 1 -1
BITMAP
2100
27F0
2100
F7E0
6100
76E0
B640
AFF0
2C40
23C0
2440
21A0
ENDCHAR

STARTCHAR 9187
ENCODING 46268
SWIDTH 1000 0
DWIDTH 14 0
BBX 12 12 1 -1
BITMAP
0080
FFF0
5000
FDE0
D520
D5E0
D600
8DE0
8440
F7F0
8440
F440
ENDCHAR

STARTCHAR 5507
ENCODING 46269
SWIDTH 1000 0
DWIDTH 14 0
BBX 12 12 1 -1
BITMAP
7FE0
4000
5FE0
4000
7FF0
4A40
4980
5860
4010
97C0
9040
17C0
ENDCHAR

STARTCHAR 6DF3
ENCODING 46270
SWIDTH 1000 0
DWIDTH 14 0
BBX 12 12 1 -1
BITMAP
4100
2FF0
0000
0FE0
C820
07E0
0000
0FE0
4180
5FF0
4100
4300
ENDCHAR

STARTCHAR 7EAF
ENCODING 46271
SWIDTH 1000 0
DWIDTH 14 0
BBX 12 12 1 -1
BITMAP
2080
2080
4FF0
9080
F4A0
24A0
44A0
55E0
22A0
0080
7090
80F0
ENDCHAR

STARTCHAR 8822
ENCODING 46272
SWIDTH 1000 0
DWIDTH 14 0
BBX 12 13 1 -2
BITMAP
7FE0
0400
1B80
FFF0
3FC0
DFB0
1080
1F40
7FF0
A690
32C0
1CF0
6100
ENDCHAR

STARTCHAR 6233
ENCODING 46273
SWIDTH 1000 0
DWIDTH 14 0
BBX 12 12 1 -1
BITMAP
0080
66A0
2A90
2680
E2E0
5080
7EA0
D0A0
7C40
7CC0
41D0
7E30
ENDCHAR

STARTCHAR 7EF0
ENCODING 46274
SWIDTH 1000 0
DWIDTH 14 0
BBX 12 12 1 -1
BITMAP
2080
40F0
4080
9FE0
F420
27E0
4420
F7E0
0080
07F0
F080
0080
ENDCHAR

STARTCHAR 75B5
ENCODING 46275
SWIDTH 1000 0
DWIDTH 14 0
BBX 12 12 1 -1
BITMAP
0200
3FF0
2000
A280
A280
2A90
6AA0
AA80
2A80
4A80
5F90
4070
ENDCHAR

STARTCHAR 8328
ENCODING 46276
SWIDTH 1000 0
DWIDTH 14 0
BBX 12 12 1 -1
BITMAP
1080
FFF0
1080
1280
4400
25E0
0920
0100
2280
6280
4440
1830
ENDCHAR

STARTCHAR 78C1
ENCODING 46277
SWIDTH 1000 0
DWIDTH 14 0
BBX 13 12 0 -1
BITMAP
0110
79A0
27F8
2000
2220
7AC0
ECD0
2F70
2920
3A30
22D8
02E8
ENDCHAR

STARTCHAR 96CC
ENCODING 46278
SWIDTH 1000 0
DWIDTH 14 0
BBX 12 12 1 -1
BITMAP
2940
2900
AFF0
BA40
AA40
A9F0
AA40
AA40
AAE0
BE40
CBF0
0800
ENDCHAR

STARTCHAR 8F9E
ENCODING 46279
SWIDTH 1000 0
DWIDTH 14 0
BBX 11 12 1 -1
BITMAP
0880
F080
2160
2120
F940
2040
21A0
7880
8C80
8BE0
7880
0880
ENDCHAR

STARTCHAR 6148
ENCODING 46280
SWIDTH 1000 0
DWIDTH 14 0
BBX 11 12 1 -1
BITMAP
1980
0100
7EE0
2080
4960
32C0
28A0
7FE0
0000
5240
9020
9F80
ENDCHAR

STARTCHAR 74F7
ENCODING 46281
SWIDTH 1000 0
DWIDTH 14 0
BBX 12 12 1 -1
BITMAP
0200
27E0
0920
3300
44C0
0820
FFF0
1000
1F80
2C80
2290
3CF0
ENDCHAR

STARTCHAR 8BCD
ENCODING 46282
SWIDTH 1000 0
DWIDTH 14 0
BBX 12 11 1 -1
BITMAP
27F0
2010
0010
E790
2010
2790
2490
2490
3790
2490
0060
ENDCHAR

STARTCHAR 6B64
ENCODING 46283
SWIDTH 1000 0
DWIDTH 14 0
BBX 12 12 1 -1
BITMAP
1900
1100
1100
5100
5D20
51C0
5100
5100
5100
5100
7D10
C1F0
ENDCHAR

STARTCHAR 523A
ENCODING 46284
SWIDTH 1000 0
DWIDTH 14 0
BBX 12 12 1 -1
BITMAP
0010
1020
FCA0
10A0
7EA0
52A0
52A0
14A0
34A0
5220
9020
0060
ENDCHAR

STARTCHAR 8D50
ENCODING 46285
SWIDTH 1000 0
DWIDTH 14 0
BBX 12 11 1 -1
BITMAP
BBE0
AA20
ABE0
ABE0
A900
ABF0
AD50
A950
5290
4990
8660
ENDCHAR

STARTCHAR 6B21
ENCODING 46286
SWIDTH 1000 0
DWIDTH 14 0
BBX 12 12 1 -1
BITMAP
0600
0400
4400
6BE0
0820
0920
2100
2300
4280
4680
8C60
1830
ENDCHAR

STARTCHAR 806A
ENCODING 46287
SWIDTH 1000 0
DWIDTH 14 0
BBX 13 12 0 -1
BITMAP
0130
FCA0
49F0
4910
5910
49F0
4800
5800
4AA8
1E88
6A90
08E0
ENDCHAR

STARTCHAR 8471
ENCODING 46288
SWIDTH 1000 0
DWIDTH 14 0
BBX 12 12 1 -1
BITMAP
0900
FFF0
0900
3FC0
4520
1920
1740
6440
0A40
4220
5090
0F80
ENDCHAR

STARTCHAR 56F1
ENCODING 46289
SWIDTH 1000 0
DWIDTH 14 0
BBX 10 12 2 -1
BITMAP
1000
0000
FFC0
8840
9840
9740
A940
8640
8640
9840
8040
BFC0
ENDCHAR

STARTCHAR 5306
ENCODING 46290
SWIDTH 1000 0
DWIDTH 14 0
BBX 10 12 2 -1
BITMAP
3000
2000
4040
5FC0
9240
3240
3A40
6440
8F40
1840
3040
41C0
ENDCHAR

STARTCHAR 4ECE
ENCODING 46291
SWIDTH 1000 0
DWIDTH 14 0
BBX 12 12 1 -1
BITMAP
1080
1080
1080
1080
2180
3180
3980
2D40
6240
4220
8430
8810
ENDCHAR

STARTCHAR 4E1B
ENCODING 46292
SWIDTH 1000 0
DWIDTH 14 0
BBX 12 12 1 -1
BITMAP
1080
1080
1080
1080
1180
3180
2940
6340
4220
4400
0000
FFF0
ENDCHAR

STARTCHAR 51D1
ENCODING 46293
SWIDTH 1000 0
DWIDTH 14 0
BBX 12 12 1 -1
BITMAP
0100
1FF0
4100
6FE0
0200
0DE0
4C60
7B10
4FE0
8200
03C0
1C60
ENDCHAR

STARTCHAR 7C97
ENCODING 46294
SWIDTH 1000 0
DWIDTH 14 0
BBX 12 12 1 -1
BITMAP
23E0
AA20
AA20
2220
FAE0
2220
2220
6BE0
A220
A220
2220
2FF0
ENDCHAR

STARTCHAR 918B
ENCODING 46295
SWIDTH 1000 0
DWIDTH 14 0
BBX 12 12 1 -1
BITMAP
0120
7920
31E0
FD20
D7F0
D400
D5E0
8520
8520
B5E0
8520
B5C0
ENDCHAR

STARTCHAR 7C07
ENCODING 46296
SWIDTH 1000 0
DWIDTH 14 0
BBX 12 12 1 -1
BITMAP
2100
7DF0
8A40
0100
23F0
FC00
43E0
7280
5080
53E0
9140
B630
ENDCHAR

STARTCHAR 4FC3
ENCODING 46297
SWIDTH 1000 0
DWIDTH 14 0
BBX 12 12 1 -1
BITMAP
3000
27E0
2420
6420
A7E0
A080
2480
24F0
2880
2C80
2B80
20F0
ENDCHAR

STARTCHAR 8E7F
ENCODING 46298
SWIDTH 1000 0
DWIDTH 14 0
BBX 12 12 1 -1
BITMAP
0080
B7F0
9410
9220
2C90
21E0
A0A0
A1C0
A7F0
A490
F7F0
8480
ENDCHAR

STARTCHAR 7BE1
ENCODING 46299
SWIDTH 1000 0
DWIDTH 14 0
BBX 12 12 1 -1
BITMAP
2180
5960
8840
3FC0
3FC0
2040
3FC0
1F80
FFF0
1480
6960
9F90
ENDCHAR

STARTCHAR 7A9C
ENCODING 46300
SWIDTH 1000 0
DWIDTH 14 0
BBX 12 12 1 -1
BITMAP
0200
FFF0
9090
3260
4220
3FC0
2240
1F80
7FE0
4220
7FE0
4220
ENDCHAR

STARTCHAR 6467
ENCODING 46301
SWIDTH 1000 0
DWIDTH 14 0
BBX 12 12 1 -1
BITMAP
0090
4490
47F0
6480
4400
3FF0
CC80
47C0
4480
47E0
4480
C760
ENDCHAR

STARTCHAR 5D14
ENCODING 46302
SWIDTH 1000 0
DWIDTH 14 0
BBX 12 12 1 -1
BITMAP
4220
4220
7FE0
3200
3FE0
6200
E220
BFC0
2220
3FC0
2200
3FF0
ENDCHAR

STARTCHAR 50AC
ENCODING 46303
SWIDTH 1000 0
DWIDTH 14 0
BBX 12 12 1 -1
BITMAP
2080
2490
47F0
4480
C480
CFF0
5480
47C0
4480
47C0
4480
0760
ENDCHAR

STARTCHAR 8106
ENCODING 46304
SWIDTH 1000 0
DWIDTH 14 0
BBX 12 12 1 -1
BITMAP
0100
73C0
5440
5040
77F0
5400
55E0
7520
9560
9500
9510
A9F0
ENDCHAR

STARTCHAR 7601
ENCODING 46305
SWIDTH 1000 0
DWIDTH 14 0
BBX 12 12 1 -1
BITMAP
0100
3FF0
2100
A100
A6E0
2440
6AE0
A8B0
2100
5FF0
4100
C100
ENDCHAR

STARTCHAR 7CB9
ENCODING 46306
SWIDTH 1000 0
DWIDTH 14 0
BBX 12 12 1 -1
BITMAP
2080
A800
ABF0
2320
FA40
2370
74D0
6880
A7F0
A080
2080
2080
ENDCHAR

STARTCHAR 6DEC
ENCODING 46307
SWIDTH 1000 0
DWIDTH 14 0
BBX 12 12 1 -1
BITMAP
4100
6110
06F0
0440
6440
0AE0
1930
0000
5FF0
4100
C100
8100
ENDCHAR

STARTCHAR 7FE0
ENCODING 46308
SWIDTH 1000 0
DWIDTH 14 0
BBX 10 12 2 -1
BITMAP
F7C0
1040
5240
31C0
C240
0400
FFC0
3300
C2C0
0400
FFC0
0400
ENDCHAR

STARTCHAR 6751
ENCODING 46309
SWIDTH 1000 0
DWIDTH 14 0
BBX 12 12 1 -1
BITMAP
2040
2040
2040
FBF0
2040
2840
6940
6940
A040
2040
2040
20C0
ENDCHAR

STARTCHAR 5B58
ENCODING 46310
SWIDTH 1000 0
DWIDTH 14 0
BBX 12 12 1 -1
BITMAP
0400
0800
FFF0
1000
37F0
2060
6080
A080
27E0
2080
2080
2380
ENDCHAR

STARTCHAR 5BF8
ENCODING 46311
SWIDTH 1000 0
DWIDTH 14 0
BBX 12 12 1 -1
BITMAP
0080
0080
0080
FFF0
0080
1080
1080
0880
0080
0080
0080
0380
ENDCHAR

STARTCHAR 78CB
ENCODING 46312
SWIDTH 1000 0
DWIDTH 14 0
BBX 12 12 1 -1
BITMAP
0240
0040
67F0
4080
43F0
7100
D7F0
D100
53F0
7480
5080
47F0
ENDCHAR

STARTCHAR 64AE
ENCODING 46313
SWIDTH 1000 0
DWIDTH 14 0
BBX 12 12 1 -1
BITMAP
47E0
4420
F7E0
47E0
4000
4FE0
6A00
4AF0
4EA0
4A60
5E60
C290
ENDCHAR

STARTCHAR 6413
ENCODING 46314
SWIDTH 1000 0
DWIDTH 14 0
BBX 12 12 1 -1
BITMAP
0240
4240
41A0
F100
43C0
4100
37E0
C200
43F0
4480
5880
C7F0
ENDCHAR

STARTCHAR 63AA
ENCODING 46315
SWIDTH 1000 0
DWIDTH 14 0
BBX 12 12 1 -1
BITMAP
2240
2240
27F0
F240
2FF0
2000
6000
A5E0
2420
25A0
2420
C5A0
ENDCHAR

STARTCHAR 632B
ENCODING 46316
SWIDTH 1000 0
DWIDTH 14 0
BBX 12 12 1 -1
BITMAP
0100
4520
4520
F560
4B60
4B50
2900
C100
47E0
4100
4100
CFF0
ENDCHAR

STARTCHAR 9519
ENCODING 46317
SWIDTH 1000 0
DWIDTH 14 0
BBX 12 12 1 -1
BITMAP
2240
4240
77F0
8240
77F0
2000
2000
63E0
2420
35E0
2420
03E0
ENDCHAR

STARTCHAR 642D
ENCODING 46318
SWIDTH 1000 0
DWIDTH 14 0
BBX 12 12 1 -1
BITMAP
2240
2FF0
2240
F340
2180
3240
6FF0
A800
27E0
2420
2420
E7E0
ENDCHAR

STARTCHAR 8FBE
ENCODING 46319
SWIDTH 1000 0
DWIDTH 14 0
BBX 12 12 1 -1
BITMAP
4100
6100
2100
0FF0
0100
E100
22C0
2660
2C30
2000
5000
8FF0
ENDCHAR

STARTCHAR 7B54
ENCODING 46320
SWIDTH 1000 0
DWIDTH 14 0
BBX 12 12 1 -1
BITMAP
2180
7DF0
5320
8C20
0E00
1980
6F70
0000
3FC0
2040
3FC0
2040
ENDCHAR

STARTCHAR 7629
ENCODING 46321
SWIDTH 1000 0
DWIDTH 14 0
BBX 12 12 1 -1
BITMAP
0200
3FF0
A440
BFF0
A440
2300
64C0
BFF0
2000
4FE0
4820
CFE0
ENDCHAR

STARTCHAR 6253
ENCODING 46322
SWIDTH 1000 0
DWIDTH 14 0
BBX 12 12 1 -1
BITMAP
2000
27F0
2040
F840
2040
2040
3840
E040
2040
2040
2040
60C0
ENDCHAR

STARTCHAR 5927
ENCODING 46323
SWIDTH 1000 0
DWIDTH 14 0
BBX 12 12 1 -1
BITMAP
0600
0400
0400
0400
3FF0
0400
0600
0E00
0900
1080
6060
C020
ENDCHAR

STARTCHAR 5446
ENCODING 46324
SWIDTH 1000 0
DWIDTH 14 0
BBX 12 12 1 -1
BITMAP
3FC0
2040
2040
2040
0F80
0400
FFF0
0D00
0D00
14C0
6470
0400
ENDCHAR

STARTCHAR 6B79
ENCODING 46325
SWIDTH 1000 0
DWIDTH 14 0
BBX 12 11 1 -1
BITMAP
FFF0
0400
0800
0FC0
1040
3440
2680
0380
0300
0C00
7000
ENDCHAR

STARTCHAR 50A3
ENCODING 46326
SWIDTH 1000 0
DWIDTH 14 0
BBX 12 12 1 -1
BITMAP
3100
2FF0
6100
4FE0
C200
DFF0
4440
5930
4540
47C0
4D20
0300
ENDCHAR

STARTCHAR 6234
ENCODING 46327
SWIDTH 1000 0
DWIDTH 14 0
BBX 12 12 1 -1
BITMAP
1100
7F20
FFF0
0100
7D00
7CA0
50A0
28C0
FEC0
28C0
54D0
4530
ENDCHAR

STARTCHAR 5E26
ENCODING 46328
SWIDTH 1000 0
DWIDTH 14 0
BBX 12 12 1 -1
BITMAP
1280
2280
7FE0
0200
0000
BFF0
8010
3FC0
2440
2440
2440
00C0
ENDCHAR

STARTCHAR 6B86
ENCODING 46329
SWIDTH 1000 0
DWIDTH 14 0
BBX 12 12 1 -1
BITMAP
0080
F900
2120
4220
7BF0
4810
8800
B3E0
1220
2220
63E0
C220
ENDCHAR

STARTCHAR 4EE3
ENCODING 46330
SWIDTH 1000 0
DWIDTH 14 0
BBX 12 12 1 -1
BITMAP
3200
2240
2240
6200
63F0
AE00
A100
2100
2100
2080
20D0
2070
ENDCHAR

STARTCHAR 8D37
ENCODING 46331
SWIDTH 1000 0
DWIDTH 14 0
BBX 12 12 1 -1
BITMAP
3240
6200
43F0
DD00
4090
0070
3FC0
2040
2640
2440
0980
F060
ENDCHAR

STARTCHAR 888B
ENCODING 46332
SWIDTH 1000 0
DWIDTH 14 0
BBX 12 12 1 -1
BITMAP
2240
6210
63E0
AD00
2090
2460
0000
7FE0
1240
7180
D4C0
1870
ENDCHAR

STARTCHAR 5F85
ENCODING 46333
SWIDTH 1000 0
DWIDTH 14 0
BBX 12 12 1 -1
BITMAP
3100
2100
4FE0
9100
2FF0
6040
E040
AFF0
2040
2440
2040
20C0
ENDCHAR

STARTCHAR 902E
ENCODING 46334
SWIDTH 1000 0
DWIDTH 14 0
BBX 12 12 1 -1
BITMAP
4100
4FE0
4120
1FF0
0120
C7C0
4920
47C0
5960
4300
F000
8FF0
ENDCHAR

STARTCHAR 6020
ENCODING 46497
SWIDTH 1000 0
DWIDTH 14 0
BBX 12 12 1 -1
BITMAP
0C00
1080
7FE0
0020
3FC0
2040
2040
1F80
1200
5220
5010
9F80
ENDCHAR

STARTCHAR 803D
ENCODING 46498
SWIDTH 1000 0
DWIDTH 14 0
BBX 12 12 1 -1
BITMAP
0080
7080
57F0
7490
5490
5080
7140
5140
5140
F240
1250
1470
ENDCHAR

STARTCHAR 62C5
ENCODING 46499
SWIDTH 1000 0
DWIDTH 14 0
BBX 12 12 1 -1
BITMAP
2000
25E0
2420
F420
27E0
3420
E420
A420
27E0
2000
2000
CFF0
ENDCHAR

STARTCHAR 4E39
ENCODING 46500
SWIDTH 1000 0
DWIDTH 14 0
BBX 12 12 1 -1
BITMAP
1FC0
1040
1040
1640
1240
1040
FFF0
2040
2040
2040
6040
C180
ENDCHAR

STARTCHAR 5355
ENCODING 46501
SWIDTH 1000 0
DWIDTH 14 0
BBX 12 12 1 -1
BITMAP
1080
0100
3FE0
2220
2220
3FA0
2220
3FE0
0200
FFF0
0200
0200
ENDCHAR

STARTCHAR 90F8
ENCODING 46502
SWIDTH 1000 0
DWIDTH 14 0
BBX 12 12 1 -1
BITMAP
4C00
28F0
FC90
94A0
94A0
BCA0
9490
FC90
1090
FE90
10A0
1080
ENDCHAR

STARTCHAR 63B8
ENCODING 46503
SWIDTH 1000 0
DWIDTH 14 0
BBX 12 12 1 -1
BITMAP
0240
4240
47E0
F920
47E0
5920
6920
C7E0
4100
4FF0
4100
C100
ENDCHAR

STARTCHAR 80C6
ENCODING 46504
SWIDTH 1000 0
DWIDTH 14 0
BBX 12 12 1 -1
BITMAP
7000
53E0
5220
7220
53E0
5220
7220
5220
91C0
9000
97F0
B000
ENDCHAR

STARTCHAR 65E6
ENCODING 46505
SWIDTH 1000 0
DWIDTH 14 0
BBX 10 11 2 -1
BITMAP
7F80
4080
4080
7F80
4080
4080
4080
7F80
0000
0000
FFC0
ENDCHAR

STARTCHAR 6C2E
ENCODING 46506
SWIDTH 1000 0
DWIDTH 14 0
BBX 12 12 1 -1
BITMAP
2000
5FC0
DFC0
0000
7FC0
2940
4840
3740
4840
2A40
1C30
6330
ENDCHAR

STARTCHAR 4F46
ENCODING 46507
SWIDTH 1000 0
DWIDTH 14 0
BBX 11 12 1 -1
BITMAP
2000
27E0
4420
4420
C7E0
C420
4420
4420
47E0
4000
5000
0FE0
ENDCHAR

STARTCHAR 60EE
ENCODING 46508
SWIDTH 1000 0
DWIDTH 14 0
BBX 12 12 1 -1
BITMAP
4240
4240
47E0
D520
D7E0
C520
4520
47E0
4100
4FF0
4100
4100
ENDCHAR

STARTCHAR 6DE1
ENCODING 46509
SWIDTH 1000 0
DWIDTH 14 0
BBX 12 12 1 -1
BITMAP
0100
6960
0900
0280
C460
4900
0120
2920
6900
4280
8440
1830
ENDCHAR

STARTCHAR 8BDE
ENCODING 46510
SWIDTH 1000 0
DWIDTH 14 0
BBX 12 12 1 -1
BITMAP
4020
5DC0
4840
0840
C940
5D60
4540
5540
4DF0
6C00
5B80
1070
ENDCHAR

STARTCHAR 5F39
ENCODING 46511
SWIDTH 1000 0
DWIDTH 14 0
BBX 12 12 1 -1
BITMAP
0240
E240
27E0
E520
8520
87E0
F520
17E0
2100
2FF0
2100
4100
ENDCHAR

STARTCHAR 86CB
ENCODING 46512
SWIDTH 1000 0
DWIDTH 14 0
BBX 12 12 1 -1
BITMAP
7FF0
0020
33C0
3400
4FF0
8000
0020
3FE0
2420
3FC0
0060
7FB0
ENDCHAR

STARTCHAR 5F53
ENCODING 46513
SWIDTH 1000 0
DWIDTH 14 0
BBX 10 12 2 -1
BITMAP
0400
44C0
6480
2400
0400
FFC0
0040
7FC0
0040
0040
FFC0
0040
ENDCHAR

STARTCHAR 6321
ENCODING 46514
SWIDTH 1000 0
DWIDTH 14 0
BBX 12 12 1 -1
BITMAP
2100
2530
2520
F100
2000
27E0
7020
E7E0
2020
2020
2FE0
4020
ENDCHAR

STARTCHAR 515A
ENCODING 46515
SWIDTH 1000 0
DWIDTH 14 0
BBX 11 12 1 -1
BITMAP
2400
3480
0480
FFE0
8000
3F80
2080
3F80
0900
0900
1120
E1E0
ENDCHAR

STARTCHAR 8361
ENCODING 46516
SWIDTH 1000 0
DWIDTH 14 0
BBX 12 12 1 -1
BITMAP
0900
FFF0
0900
6000
27C0
0300
47E0
02A0
24A0
2D20
4320
8E60
ENDCHAR

STARTCHAR 6863
ENCODING 46517
SWIDTH 1000 0
DWIDTH 14 0
BBX 12 12 1 -1
BITMAP
2080
24A0
24A0
F0A0
6090
7360
B020
A7E0
2020
2020
2FE0
2020
ENDCHAR

STARTCHAR 5200
ENCODING 46518
SWIDTH 1000 0
DWIDTH 14 0
BBX 10 11 2 -1
BITMAP
FFC0
0840
0840
0840
0840
1040
1040
3040
2040
C080
8180
ENDCHAR

STARTCHAR 6363
ENCODING 46519
SWIDTH 1000 0
DWIDTH 14 0
BBX 12 12 1 -1
BITMAP
2100
23E0
2420
F520
2420
2440
E3F0
A010
2850
2850
2F50
4070
ENDCHAR

STARTCHAR 8E48
ENCODING 46520
SWIDTH 1000 0
DWIDTH 14 0
BBX 12 12 1 -1
BITMAP
0060
F780
9090
94A0
2020
2100
B470
A410
A770
AC10
F7F0
0410
ENDCHAR

STARTCHAR 5012
ENCODING 46521
SWIDTH 1000 0
DWIDTH 14 0
BBX 13 12 0 -1
BITMAP
1008
1388
2228
24A8
67A8
E228
2228
27A8
2228
2388
2E08
2038
ENDCHAR

STARTCHAR 5C9B
ENCODING 46522
SWIDTH 1000 0
DWIDTH 14 0
BBX 10 12 2 -1
BITMAP
0800
0800
5780
4880
4C80
4100
7FC0
0040
1040
9240
9E40
62C0
ENDCHAR

STARTCHAR 7977
ENCODING 46523
SWIDTH 1000 0
DWIDTH 14 0
BBX 12 12 0 -1
BITMAP
2080
1080
01F0
7880
11F0
1100
3BF0
D910
12F0
1690
1C90
1030
ENDCHAR

STARTCHAR 5BFC
ENCODING 46524
SWIDTH 1000 0
DWIDTH 14 0
BBX 12 12 1 -1
BITMAP
3FC0
2040
2040
3FC0
2030
3FE0
0080
FFF0
0080
1080
1080
0180
ENDCHAR

STARTCHAR 5230
ENCODING 46525
SWIDTH 1000 0
DWIDTH 14 0
BBX 11 12 1 -1
BITMAP
0020
FE20
30A0
24A0
46A0
FAA0
10A0
FCA0
10A0
1020
7E20
8060
ENDCHAR

STARTCHAR 7A3B
ENCODING 46526
SWIDTH 1000 0
DWIDTH 14 0
BBX 12 12 1 -1
BITMAP
1060
E780
2090
24A0
F020
6100
7470
7C10
A770
2410
27F0
2410
ENDCHAR

STARTCHAR 60BC
ENCODING 46527
SWIDTH 1000 0
DWIDTH 14 0
BBX 12 12 1 -1
BITMAP
0100
41F0
4100
D7E0
D420
C7E0
4420
47E0
4100
4FF0
4100
0100
ENDCHAR

STARTCHAR 9053
ENCODING 46528
SWIDTH 1000 0
DWIDTH 14 0
BBX 13 12 0 -1
BITMAP
0120
2040
27B0
0080
0170
6410
25D0
23F0
2410
23F0
3000
CFF8
ENDCHAR

STARTCHAR 76D7
ENCODING 46529
SWIDTH 1000 0
DWIDTH 14 0
BBX 12 12 1 -1
BITMAP
0200
67F0
2D20
0120
3280
66C0
5C30
0000
3FE0
2960
2960
FFF0
ENDCHAR

STARTCHAR 5FB7
ENCODING 46530
SWIDTH 1000 0
DWIDTH 14 0
BBX 12 12 1 -1
BITMAP
2100
4FF0
4100
AFE0
2AA0
4AA0
C140
CFF0
4100
4CB0
5450
53C0
ENDCHAR

STARTCHAR 5F97
ENCODING 46531
SWIDTH 1000 0
DWIDTH 14 0
BBX 11 12 1 -1
BITMAP
27E0
2420
47E0
8420
27E0
6000
C7E0
C040
4FE0
4240
4240
00C0
ENDCHAR

STARTCHAR 7684
ENCODING 46532
SWIDTH 1000 0
DWIDTH 14 0
BBX 11 12 2 -1
BITMAP
4100
4300
F220
93E0
9420
9020
F240
9140
9040
F040
9040
91C0
ENDCHAR

STARTCHAR 8E6C
ENCODING 46533
SWIDTH 1000 0
DWIDTH 14 0
BBX 12 12 1 -1
BITMAP
00A0
F240
9250
9660
F5E0
2810
A3E0
B020
A180
A240
F040
8FF0
ENDCHAR

STARTCHAR 706F
ENCODING 46534
SWIDTH 1000 0
DWIDTH 14 0
BBX 12 12 1 -1
BITMAP
2000
27F0
2040
A840
B840
A040
2040
3040
3840
4C40
4040
81C0
ENDCHAR

STARTCHAR 767B
ENCODING 46535
SWIDTH 1000 0
DWIDTH 14 0
BBX 12 12 1 -1
BITMAP
0240
F980
0920
50C0
3FC0
C030
BF80
2080
3F80
0000
0900
FFF0
ENDCHAR

STARTCHAR 7B49
ENCODING 46536
SWIDTH 1000 0
DWIDTH 14 0
BBX 12 12 1 -1
BITMAP
2100
7DF0
D240
0220
3FC0
0200
FFF0
0080
0080
3FC0
1880
0980
ENDCHAR

STARTCHAR 77AA
ENCODING 46537
SWIDTH 1000 0
DWIDTH 14 0
BBX 12 12 1 -1
BITMAP
00A0
F340
9250
9660
95E0
9810
F3E0
9220
93E0
F240
9240
8FF0
ENDCHAR

STARTCHAR 51F3
ENCODING 46538
SWIDTH 1000 0
DWIDTH 14 0
BBX 12 12 1 -1
BITMAP
79C0
0920
3FC0
2060
DFB0
1080
0F00
0900
76E0
1F00
1120
70E0
ENDCHAR

STARTCHAR 9093
ENCODING 46539
SWIDTH 1000 0
DWIDTH 14 0
BBX 11 11 2 -1
BITMAP
7BE0
1A40
1240
5280
32C0
3240
3220
4A60
C2C0
8200
0200
ENDCHAR

STARTCHAR 5824
ENCODING 46540
SWIDTH 1000 0
DWIDTH 14 0
BBX 12 12 1 -1
BITMAP
27E0
2420
27E0
F420
27E0
2000
2FF0
2080
34E0
C480
0B80
11F0
ENDCHAR

STARTCHAR 4F4E
ENCODING 46541
SWIDTH 1000 0
DWIDTH 14 0
BBX 12 12 1 -1
BITMAP
2020
27C0
6880
6880
E880
A7F0
2880
2880
2880
2A40
2CF0
28A0
ENDCHAR

STARTCHAR 6EF4
ENCODING 46542
SWIDTH 1000 0
DWIDTH 14 0
BBX 12 12 1 -1
BITMAP
4100
6FF0
0200
0200
CFF0
0910
0BD0
0910
4B90
4A90
CB90
0870
ENDCHAR

STARTCHAR 8FEA
ENCODING 46543
SWIDTH 1000 0
DWIDTH 14 0
BBX 12 12 1 -1
BITMAP
4100
4100
6FE0
0920
0920
CFE0
4920
4920
4920
4FE0
E000
9FF0
ENDCHAR

STARTCHAR 654C
ENCODING 46544
SWIDTH 1000 0
DWIDTH 14 0
BBX 12 12 1 -1
BITMAP
1980
E100
21F0
2320
FE20
2720
2140
58C0
48C0
48C0
7970
0610
ENDCHAR

STARTCHAR 7B1B
ENCODING 46545
SWIDTH 1000 0
DWIDTH 14 0
BBX 12 12 1 -1
BITMAP
2100
7DF0
5240
9240
0600
0200
3FC0
2240
3FC0
2240
3FC0
2040
ENDCHAR

STARTCHAR 72C4
ENCODING 46546
SWIDTH 1000 0
DWIDTH 14 0
BBX 12 12 1 -1
BITMAP
1080
5080
2080
E4A0
A4A0
34A0
3180
5180
9140
1240
2620
6C10
ENDCHAR

STARTCHAR 6DA4
ENCODING 46547
SWIDTH 1000 0
DWIDTH 14 0
BBX 12 12 1 -1
BITMAP
0600
67C0
2C40
1A80
C100
0EE0
1100
0120
27C0
4540
4930
9300
ENDCHAR

STARTCHAR 7FDF
ENCODING 46548
SWIDTH 1000 0
DWIDTH 14 0
BBX 12 12 1 -1
BITMAP
FDE0
2420
25A0
7DE0
0420
3200
3FE0
6200
BFC0
3FE0
2200
3FF0
ENDCHAR

STARTCHAR 5AE1
ENCODING 46549
SWIDTH 1000 0
DWIDTH 14 0
BBX 12 12 1 -1
BITMAP
4080
4FF0
4240
F240
57F0
A510
A7D0
A410
65D0
3450
5410
8430
ENDCHAR

STARTCHAR 62B5
ENCODING 46550
SWIDTH 1000 0
DWIDTH 14 0
BBX 12 12 1 -1
BITMAP
2060
27C0
2480
F480
2480
27F0
7480
A480
2440
2650
24B0
40A0
ENDCHAR

STARTCHAR 5E95
ENCODING 46551
SWIDTH 1000 0
DWIDTH 14 0
BBX 12 12 1 -1
BITMAP
0200
7FF0
4000
43E0
4D00
4900
4910
4FE0
4880
4880
CC50
9970
ENDCHAR

STARTCHAR 5730
ENCODING 46552
SWIDTH 1000 0
DWIDTH 14 0
BBX 12 12 1 -1
BITMAP
2080
4080
4480
44E0
F7A0
4CA0
44A0
44E0
4480
7480
C410
03E0
ENDCHAR

STARTCHAR 8482
ENCODING 46553
SWIDTH 1000 0
DWIDTH 14 0
BBX 12 12 1 -1
BITMAP
0080
FFF0
0080
0200
3DF0
0980
FFF0
0210
3FC0
2240
2240
22C0
ENDCHAR

STARTCHAR 7B2C
ENCODING 46554
SWIDTH 1000 0
DWIDTH 14 0
BBX 12 12 1 -1
BITMAP
2180
7DF0
CB20
0000
7FE0
0220
3FE0
4200
3FE0
0620
1A20
E240
ENDCHAR

STARTCHAR 5E1D
ENCODING 46555
SWIDTH 1000 0
DWIDTH 14 0
BBX 12 11 1 0
BITMAP
0200
7FE0
0000
0900
FFF0
8010
0000
3FC0
2440
2440
24C0
ENDCHAR

STARTCHAR 5F1F
ENCODING 46556
SWIDTH 1000 0
DWIDTH 14 0
BBX 11 12 1 -1
BITMAP
1880
0900
7FE0
0220
0220
5F80
4200
7FE0
0620
0A20
3260
E200
ENDCHAR

STARTCHAR 9012
ENCODING 46557
SWIDTH 1000 0
DWIDTH 14 0
BBX 13 12 0 -1
BITMAP
0220
2040
27F0
0090
07F0
6480
27F8
2188
2288
2490
7000
CFF8
ENDCHAR

STARTCHAR 7F14
ENCODING 46558
SWIDTH 1000 0
DWIDTH 14 0
BBX 12 12 1 -1
BITMAP
2080
47F0
4000
9240
EFF0
2810
4080
F7E0
04A0
04A0
E4E0
0080
ENDCHAR

STARTCHAR 98A0
ENCODING 46559
SWIDTH 1000 0
DWIDTH 14 0
BBX 12 13 1 -2
BITMAP
0210
FDE0
2080
5BE0
7A20
4A60
7A60
7AA0
48A0
FC80
49E0
C310
0200
ENDCHAR

STARTCHAR 6382
ENCODING 46560
SWIDTH 1000 0
DWIDTH 14 0
BBX 12 12 1 -1
BITMAP
2080
27F0
2800
F480
24F0
3480
7880
ABE0
2A20
2A20
2BE0
5A20
ENDCHAR

STARTCHAR 6EC7
ENCODING 46561
SWIDTH 1000 0
DWIDTH 14 0
BBX 12 12 1 -1
BITMAP
4100
6FE0
0100
07C0
C7C0
0440
07C0
07C0
4440
4FF0
44C0
9820
ENDCHAR

STARTCHAR 7898
ENCODING 46562
SWIDTH 1000 0
DWIDTH 14 0
BBX 12 12 1 -1
BITMAP
0100
F180
27E0
45A0
45A0
D7E0
D5A0
5520
5AC0
7240
4620
0C10
ENDCHAR

STARTCHAR 70B9
ENCODING 46563
SWIDTH 1000 0
DWIDTH 14 0
BBX 12 12 1 -1
BITMAP
0400
0400
05C0
0400
3FC0
2040
2040
2040
1F80
4120
4920
8910
ENDCHAR

STARTCHAR 5178
ENCODING 46564
SWIDTH 1000 0
DWIDTH 14 0
BBX 12 12 1 -1
BITMAP
0900
0900
7FC0
4940
4940
5FC0
4940
4940
FFF0
0000
18C0
6030
ENDCHAR

STARTCHAR 975B
ENCODING 46565
SWIDTH 1000 0
DWIDTH 14 0
BBX 13 12 0 -1
BITMAP
1020
7C20
1158
7D08
FEF8
0020
7C20
4538
5520
7DA0
45E0
4F38
ENDCHAR

STARTCHAR 57AB
ENCODING 46566
SWIDTH 1000 0
DWIDTH 14 0
BBX 12 12 1 -1
BITMAP
2100
2100
73C0
2940
F340
22D0
2C30
4200
7FE0
0200
0200
FFF0
ENDCHAR

STARTCHAR 7535
ENCODING 46567
SWIDTH 1000 0
DWIDTH 14 0
BBX 11 12 2 -1
BITMAP
0800
0800
FF80
8880
8880
FF80
8880
8880
FF80
8800
0820
0FC0
ENDCHAR

STARTCHAR 4F43
ENCODING 46568
SWIDTH 1000 0
DWIDTH 14 0
BBX 12 12 1 -1
BITMAP
2000
2FF0
4910
4910
C910
CFF0
4910
4910
4910
4910
4FF0
0810
ENDCHAR

STARTCHAR 7538
ENCODING 46569
SWIDTH 1000 0
DWIDTH 14 0
BBX 11 12 1 -1
BITMAP
1000
2000
7FE0
4020
BF20
2520
2520
3F20
2520
3F20
2120
00E0
ENDCHAR

STARTCHAR 5E97
ENCODING 46570
SWIDTH 1000 0
DWIDTH 14 0
BBX 12 12 1 -1
BITMAP
0200
7FF0
4000
4200
43F0
4200
4200
5FC0
5040
5040
9FC0
9040
ENDCHAR

STARTCHAR 60E6
ENCODING 46571
SWIDTH 1000 0
DWIDTH 14 0
BBX 12 12 1 -1
BITMAP
2080
27F0
3400
B480
A4F0
A480
2480
27E0
2A20
2A20
2BE0
2220
ENDCHAR

STARTCHAR 5960
ENCODING 46572
SWIDTH 1000 0
DWIDTH 14 0
BBX 12 12 1 -1
BITMAP
0900
FFF0
0900
7FE0
49C0
5040
7FC0
7FC0
0400
FFF0
0B00
F0F0
ENDCHAR

STARTCHAR 6DC0
ENCODING 46573
SWIDTH 1000 0
DWIDTH 14 0
BBX 12 12 1 -1
BITMAP
4100
6FF0
2810
0800
CFE0
0100
0100
29E0
4900
4D00
5B00
90F0
ENDCHAR

STARTCHAR 6BBF
ENCODING 46574
SWIDTH 1000 0
DWIDTH 14 0
BBX 12 11 1 -1
BITMAP
7CE0
44A0
7D20
5530
5600
5CE0
54A0
FEA0
84C0
A4C0
A330
ENDCHAR

STARTCHAR 7889
ENCODING 46575
SWIDTH 1000 0
DWIDTH 14 0
BBX 12 11 1 -1
BITMAP
F7F0
4490
45D0
7490
D5D0
5410
55D0
7550
55D0
4810
0830
ENDCHAR

STARTCHAR 53FC
ENCODING 46576
SWIDTH 1000 0
DWIDTH 14 0
BBX 12 11 1 -1
BITMAP
7FF0
9020
9020
9120
9120
9120
9220
7220
8E20
0020
00C0
ENDCHAR

STARTCHAR 96D5
ENCODING 46577
SWIDTH 1000 0
DWIDTH 14 0
BBX 13 12 0 -1
BITMAP
0050
5E90
4AF8
5A80
4BA0
5FF8
5AA0
5AA0
5AB0
5AA0
42F8
C680
ENDCHAR

STARTCHAR 51CB
ENCODING 46578
SWIDTH 1000 0
DWIDTH 14 0
BBX 11 11 1 -1
BITMAP
4FE0
6920
2BE0
0920
0BE0
2820
6BE0
4A60
4BE0
D020
1060
ENDCHAR

STARTCHAR 5201
ENCODING 46579
SWIDTH 1000 0
DWIDTH 14 0
BBX 10 11 2 -1
BITMAP
7FC0
0040
0040
0240
0440
0840
3040
6040
C040
01C0
0180
ENDCHAR

STARTCHAR 6389
ENCODING 46580
SWIDTH 1000 0
DWIDTH 14 0
BBX 12 12 1 -1
BITMAP
2100
21F0
2100
F7E0
2420
27E0
6420
A7E0
2100
2FF0
2100
4000
ENDCHAR

STARTCHAR 540A
ENCODING 46581
SWIDTH 1000 0
DWIDTH 14 0
BBX 10 11 2 -1
BITMAP
7F80
4080
4080
3F00
0400
FFC0
8440
8440
8440
85C0
0C00
ENDCHAR

STARTCHAR 9493
ENCODING 46582
SWIDTH 1000 0
DWIDTH 14 0
BBX 12 12 1 -1
BITMAP
2180
6100
79F0
8210
FA10
2410
2120
F8A0
2020
2820
3020
20E0
ENDCHAR

STARTCHAR 8C03
ENCODING 46583
SWIDTH 1000 0
DWIDTH 14 0
BBX 12 11 1 -1
BITMAP
67F0
2410
07D0
E510
27D0
2410
25D0
3650
39D0
2810
0860
ENDCHAR

STARTCHAR 8DCC
ENCODING 46584
SWIDTH 1000 0
DWIDTH 14 0
BBX 12 12 1 -1
BITMAP
0080
7A80
4A90
4BE0
7A80
2080
BBF0
A0C0
A0C0
A960
F330
0610
ENDCHAR

STARTCHAR 7239
ENCODING 46585
SWIDTH 1000 0
DWIDTH 14 0
BBX 12 13 1 -2
BITMAP
1180
6960
0600
39C0
CC30
3F80
0B00
1C00
67E0
1840
2380
1C00
6000
ENDCHAR

STARTCHAR 789F
ENCODING 46586
SWIDTH 1000 0
DWIDTH 14 0
BBX 13 12 0 -1
BITMAP
0210
7A90
07F8
2290
2270
7A00
E9F0
2840
2BF8
3960
2958
0248
ENDCHAR

STARTCHAR 8776
ENCODING 46587
SWIDTH 1000 0
DWIDTH 14 0
BBX 12 12 1 -1
BITMAP
20A0
22A0
27F0
B2A0
B2E0
B200
F1E0
B080
27F0
29C0
EAB0
0490
ENDCHAR

STARTCHAR 8FED
ENCODING 46588
SWIDTH 1000 0
DWIDTH 14 0
BBX 12 12 1 -1
BITMAP
4500
4900
4FE0
0900
0100
DFF0
4100
4280
4440
4820
6000
9FF0
ENDCHAR

STARTCHAR 8C0D
ENCODING 46589
SWIDTH 1000 0
DWIDTH 14 0
BBX 12 13 1 -2
BITMAP
4120
4520
5FF0
0520
C5E0
4400
47F0
4100
4FF0
7340
6560
4910
0100
ENDCHAR

STARTCHAR 53E0
ENCODING 46590
SWIDTH 1000 0
DWIDTH 14 0
BBX 12 12 1 -1
BITMAP
3FC0
1D00
3EC0
FBE0
7140
2DE0
8000
BFF0
2FC0
2F40
3FC0
7FF0
ENDCHAR

STARTCHAR 4E01
ENCODING 46753
SWIDTH 1000 0
DWIDTH 14 0
BBX 12 11 1 -1
BITMAP
FFF0
0400
0400
0400
0400
0400
0400
0400
0400
0C00
0800
ENDCHAR

STARTCHAR 76EF
ENCODING 46754
SWIDTH 1000 0
DWIDTH 14 0
BBX 12 11 1 -1
BITMAP
FBF0
8840
8840
F840
8840
8840
A840
8840
8840
A840
8180
ENDCHAR

STARTCHAR 53EE
ENCODING 46755
SWIDTH 1000 0
DWIDTH 14 0
BBX 12 11 1 -1
BITMAP
F7F0
9040
9040
9040
9040
9040
9040
B040
9040
80C0
0180
ENDCHAR

STARTCHAR 9489
ENCODING 46756
SWIDTH 1000 0
DWIDTH 14 0
BBX 12 12 1 -1
BITMAP
2000
43F0
7840
8040
7840
2040
2040
7040
2040
2840
3040
20C0
ENDCHAR

STARTCHAR 9876
ENCODING 46757
SWIDTH 1000 0
DWIDTH 14 0
BBX 12 12 1 -1
BITMAP
0800
F7E0
2100
27E0
2420
2520
2520
2520
2520
2100
C260
0C30
ENDCHAR

STARTCHAR 9F0E
ENCODING 46758
SWIDTH 1000 0
DWIDTH 14 0
BBX 12 12 1 -1
BITMAP
1FC0
1040
5750
5FD0
5050
4710
4110
3D40
0500
7570
4510
C510
ENDCHAR

STARTCHAR 952D
ENCODING 46759
SWIDTH 1000 0
DWIDTH 14 0
BBX 12 12 1 -1
BITMAP
2080
4000
75F0
8000
73E0
0080
4080
62E0
4480
5680
3580
08F0
ENDCHAR

STARTCHAR 5B9A
ENCODING 46760
SWIDTH 1000 0
DWIDTH 14 0
BBX 12 12 1 -1
BITMAP
0200
0000
3FF0
0010
3FC0
0200
0200
23E0
2200
7200
4E00
C7F0
ENDCHAR

STARTCHAR 8BA2
ENCODING 46761
SWIDTH 1000 0
DWIDTH 14 0
BBX 12 11 1 -1
BITMAP
2FF0
2080
0080
E080
2080
2080
2080
2880
3880
3080
2180
ENDCHAR

STARTCHAR 4E22
ENCODING 46762
SWIDTH 1000 0
DWIDTH 14 0
BBX 12 12 1 -1
BITMAP
00C0
7F00
0200
0200
7FE0
0200
0200
FFF0
0C00
1880
3040
3FE0
ENDCHAR

STARTCHAR 4E1C
ENCODING 46763
SWIDTH 1000 0
DWIDTH 14 0
BBX 12 12 1 -1
BITMAP
0400
0C00
FFF0
1000
1200
2200
3FE0
0200
1240
3260
6230
4600
ENDCHAR

STARTCHAR 51AC
ENCODING 46764
SWIDTH 1000 0
DWIDTH 14 0
BBX 12 12 1 -1
BITMAP
0800
1FC0
3880
2880
4700
0600
39F0
C030
0700
0000
1C00
0380
ENDCHAR

STARTCHAR 8463
ENCODING 46765
SWIDTH 1000 0
DWIDTH 14 0
BBX 12 12 1 -1
BITMAP
0100
7FE0
0040
7F80
FFF0
0400
3FC0
3FC0
3FC0
0400
7FE0
FFF0
ENDCHAR

STARTCHAR 61C2
ENCODING 46766
SWIDTH 1000 0
DWIDTH 14 0
BBX 12 12 1 -1
BITMAP
4240
4FF0
4000
D7E0
CFF0
C100
4BE0
4FE0
4FE0
4100
4FF0
5FF0
ENDCHAR

STARTCHAR 52A8
ENCODING 46767
SWIDTH 1000 0
DWIDTH 14 0
BBX 12 12 1 -1
BITMAP
0080
0080
3080
03F0
8490
7890
2090
2910
4D20
F720
0620
0C60
ENDCHAR

STARTCHAR 680B
ENCODING 46768
SWIDTH 1000 0
DWIDTH 14 0
BBX 12 12 1 -1
BITMAP
2100
2100
27F0
6200
6280
7480
B7E0
A080
26A0
2490
2890
2180
ENDCHAR

STARTCHAR 4F97
ENCODING 46769
SWIDTH 1000 0
DWIDTH 14 0
BBX 12 12 1 -1
BITMAP
2000
2FF0
6810
6BD0
A810
AB90
2A90
2A90
2A90
2810
2810
2830
ENDCHAR

STARTCHAR 606B
ENCODING 46770
SWIDTH 1000 0
DWIDTH 14 0
BBX 12 11 1 -1
BITMAP
47F0
4410
D7D0
D410
C5D0
4650
4650
4450
4410
4410
0460
ENDCHAR

STARTCHAR 51BB
ENCODING 46771
SWIDTH 1000 0
DWIDTH 14 0
BBX 12 12 1 -1
BITMAP
0300
0200
5FF0
2400
0500
0900
2FE0
4100
4560
8920
1110
0300
ENDCHAR

STARTCHAR 6D1E
ENCODING 46772
SWIDTH 1000 0
DWIDTH 14 0
BBX 12 12 1 -1
BITMAP
4000
6FF0
0810
0BD0
C810
0B90
0A90
0A90
2A10
4810
4810
4860
ENDCHAR

STARTCHAR 515C
ENCODING 46773
SWIDTH 1000 0
DWIDTH 14 0
BBX 12 12 1 -1
BITMAP
0400
4F60
4920
4F20
4920
6920
4460
0900
0900
0900
1110
E1F0
ENDCHAR

STARTCHAR 6296
ENCODING 46774
SWIDTH 1000 0
DWIDTH 14 0
BBX 12 12 1 -1
BITMAP
2040
2240
2340
F940
2040
2240
3B40
E040
21F0
2640
2040
6040
ENDCHAR

STARTCHAR 6597
ENCODING 46775
SWIDTH 1000 0
DWIDTH 14 0
BBX 12 12 1 -1
BITMAP
0080
1080
0880
0480
6080
1880
0080
07F0
FC80
0080
0080
0080
ENDCHAR

STARTCHAR 9661
ENCODING 46776
SWIDTH 1000 0
DWIDTH 14 0
BBX 12 12 1 -1
BITMAP
0080
7080
97F0
A080
AFF0
9080
9080
94F0
B480
8680
8980
9870
ENDCHAR

STARTCHAR 8C46
ENCODING 46777
SWIDTH 1000 0
DWIDTH 14 0
BBX 12 11 1 -1
BITMAP
7FF0
0000
3FC0
2040
2040
3FC0
0000
1080
1980
0100
FFF0
ENDCHAR

STARTCHAR 9017
ENCODING 46778
SWIDTH 1000 0
DWIDTH 14 0
BBX 12 12 1 -1
BITMAP
4000
47E0
4000
07E0
0820
C7E0
4000
4440
4080
5FF0
F000
8FF0
ENDCHAR

STARTCHAR 75D8
ENCODING 46779
SWIDTH 1000 0
DWIDTH 14 0
BBX 12 12 1 -1
BITMAP
0300
3FF0
2000
AFF0
A000
2FE0
6820
A820
2380
4440
4480
5FF0
ENDCHAR

STARTCHAR 90FD
ENCODING 46780
SWIDTH 1000 0
DWIDTH 14 0
BBX 12 12 1 -1
BITMAP
2000
2AF0
34A0
28A0
FEA0
10A0
7CA0
C490
4490
5C90
44A0
7C80
ENDCHAR

STARTCHAR 7763
ENCODING 46781
SWIDTH 1000 0
DWIDTH 14 0
BBX 12 11 1 -1
BITMAP
29E0
0320
7CC0
54C0
9730
0000
3FC0
3FC0
2040
3FC0
3FC0
ENDCHAR

STARTCHAR 6BD2
ENCODING 46782
SWIDTH 1000 0
DWIDTH 14 0
BBX 12 11 1 -1
BITMAP
3FC0
7FE0
0000
FFF0
0000
2FC0
2240
7DE0
4640
7FE0
00C0
ENDCHAR

STARTCHAR 728A
ENCODING 46783
SWIDTH 1000 0
DWIDTH 14 0
BBX 12 12 1 -1
BITMAP
2080
2090
A3E0
F7F0
A020
2280
3480
E680
2880
27E0
2140
2E30
ENDCHAR

STARTCHAR 72EC
ENCODING 46784
SWIDTH 1000 0
DWIDTH 14 0
BBX 12 12 1 -1
BITMAP
1100
5100
6520
67E0
A520
2520
3520
57E0
9500
1120
2110
6FD0
ENDCHAR

STARTCHAR 8BFB
ENCODING 46785
SWIDTH 1000 0
DWIDTH 14 0
BBX 12 12 1 -1
BITMAP
4100
4FF0
0100
0FF0
C020
4280
4C80
4480
4FF0
6100
4240
1C30
ENDCHAR

STARTCHAR 5835
ENCODING 46786
SWIDTH 1000 0
DWIDTH 14 0
BBX 12 12 1 -1
BITMAP
4100
4920
4720
4140
4FF0
4300
4FE0
5420
5420
E5A0
0420
07E0
ENDCHAR

STARTCHAR 7779
ENCODING 46787
SWIDTH 1000 0
DWIDTH 14 0
BBX 12 12 1 -1
BITMAP
0100
F120
9120
9140
F7F0
9180
93E0
B220
9620
F3E0
8220
03E0
ENDCHAR

STARTCHAR 8D4C
ENCODING 46788
SWIDTH 1000 0
DWIDTH 14 0
BBX 12 11 1 -1
BITMAP
F160
91A0
B140
B7F0
B080
B1E0
A220
C5E0
4220
5220
88E0
ENDCHAR

STARTCHAR 675C
ENCODING 46789
SWIDTH 1000 0
DWIDTH 14 0
BBX 12 12 1 -1
BITMAP
2080
2080
2080
F880
27F0
6080
7880
A880
A080
2080
2FF0
2000
ENDCHAR

STARTCHAR 9540
ENCODING 46790
SWIDTH 1000 0
DWIDTH 14 0
BBX 12 12 1 -1
BITMAP
6080
47F0
7520
87F0
F520
45E0
4400
67E0
4520
58C0
68C0
1F30
ENDCHAR

STARTCHAR 809A
ENCODING 46791
SWIDTH 1000 0
DWIDTH 14 0
BBX 12 12 1 -1
BITMAP
0080
7880
4880
4880
7BF0
4880
4880
7880
8880
8880
8880
9FF0
ENDCHAR

STARTCHAR 5EA6
ENCODING 46792
SWIDTH 1000 0
DWIDTH 14 0
BBX 12 12 1 -1
BITMAP
0200
7FE0
4000
4080
5FE0
4880
4780
4000
4FC0
4480
8300
BDF0
ENDCHAR

STARTCHAR 6E21
ENCODING 46793
SWIDTH 1000 0
DWIDTH 14 0
BBX 12 12 1 -1
BITMAP
4180
6FF0
0A40
0FF0
4A40
0BC0
0800
4FE0
5240
5140
9180
3E70
ENDCHAR

STARTCHAR 5992
ENCODING 46794
SWIDTH 1000 0
DWIDTH 14 0
BBX 12 12 1 -1
BITMAP
2080
2080
23F0
FA10
4A10
4A10
53F0
5200
3200
3A00
4400
8400
ENDCHAR

STARTCHAR 7AEF
ENCODING 46795
SWIDTH 1000 0
DWIDTH 14 0
BBX 12 12 1 -1
BITMAP
0480
64A0
04A0
F7E0
0000
A3E0
A100
A7F0
2A90
3A90
C810
0030
ENDCHAR

STARTCHAR 77ED
ENCODING 46796
SWIDTH 1000 0
DWIDTH 14 0
BBX 12 11 1 -1
BITMAP
47E0
4800
B3E0
2220
2220
FBE0
2000
3220
4940
4040
8FF0
ENDCHAR

STARTCHAR 953B
ENCODING 46797
SWIDTH 1000 0
DWIDTH 14 0
BBX 12 12 1 -1
BITMAP
46E0
48A0
E8A0
86A0
6930
49F0
E690
48A0
48A0
4660
6860
03B0
ENDCHAR

STARTCHAR 6BB5
ENCODING 46798
SWIDTH 1000 0
DWIDTH 14 0
BBX 12 12 1 -1
BITMAP
13C0
6240
4240
4A40
7660
4000
7FE0
4240
4240
F980
41C0
4E70
ENDCHAR

STARTCHAR 65AD
ENCODING 46799
SWIDTH 1000 0
DWIDTH 14 0
BBX 12 12 1 -1
BITMAP
0820
AB40
AD00
8900
BFF0
9920
9D20
AB20
8920
8920
7F20
0220
ENDCHAR

STARTCHAR 7F0E
ENCODING 46800
SWIDTH 1000 0
DWIDTH 14 0
BBX 12 11 1 -1
BITMAP
4CE0
48A0
98A0
E900
2800
4EE0
E8A0
08A0
0E40
E8E0
0B10
ENDCHAR

STARTCHAR 5806
ENCODING 46801
SWIDTH 1000 0
DWIDTH 14 0
BBX 12 12 1 -1
BITMAP
4280
4240
47F0
4400
6C80
4FF0
4480
4480
15E0
E480
07F0
0400
ENDCHAR

STARTCHAR 5151
ENCODING 46802
SWIDTH 1000 0
DWIDTH 14 0
BBX 12 12 1 -1
BITMAP
3080
1900
0100
3FC0
2040
2040
3FC0
0900
0900
1100
3110
E1F0
ENDCHAR

STARTCHAR 961F
ENCODING 46803
SWIDTH 1000 0
DWIDTH 14 0
BBX 11 12 2 -1
BITMAP
0100
F100
9100
A100
A100
A300
9300
9300
9680
A4C0
8C60
9820
ENDCHAR

STARTCHAR 5BF9
ENCODING 46804
SWIDTH 1000 0
DWIDTH 14 0
BBX 12 12 1 -1
BITMAP
0040
0040
7840
0BF0
4840
7040
3140
1140
2840
6840
C040
00C0
ENDCHAR

STARTCHAR 58A9
ENCODING 46805
SWIDTH 1000 0
DWIDTH 14 0
BBX 12 12 1 -1
BITMAP
4440
4040
4E40
5EA0
52A0
5EA0
50A0
4EA0
6460
DE40
04E0
0F90
ENDCHAR

STARTCHAR 5428
ENCODING 46806
SWIDTH 1000 0
DWIDTH 14 0
BBX 12 12 1 -1
BITMAP
0080
F080
97F0
9080
94A0
94A0
94A0
97E0
F0A0
9080
8090
00E0
ENDCHAR

STARTCHAR 8E72
ENCODING 46807
SWIDTH 1000 0
DWIDTH 14 0
BBX 12 12 1 -1
BITMAP
0240
F800
97E0
97E0
2560
2420
A7E0
A7E0
A040
A7F0
E240
00C0
ENDCHAR

STARTCHAR 6566
ENCODING 46808
SWIDTH 1000 0
DWIDTH 14 0
BBX 12 12 1 -1
BITMAP
3080
FD00
0100
7960
0920
3320
F920
08C0
10C0
F8C0
11E0
3330
ENDCHAR

STARTCHAR 987F
ENCODING 46809
SWIDTH 1000 0
DWIDTH 14 0
BBX 12 13 1 -2
BITMAP
2000
21E0
F880
23E0
AA20
AAA0
AAA0
FAA0
2AA0
2090
3960
2630
0400
ENDCHAR

STARTCHAR 56E4
ENCODING 46810
SWIDTH 1000 0
DWIDTH 14 0
BBX 10 11 2 -1
BITMAP
FFC0
8840
FF40
8840
A940
AB40
9D40
88C0
8F40
FFC0
8040
ENDCHAR

STARTCHAR 949D
ENCODING 46811
SWIDTH 1000 0
DWIDTH 14 0
BBX 12 12 1 -1
BITMAP
2080
4080
77F0
8080
F4A0
24A0
24A0
67E0
20A0
3080
3090
00F0
ENDCHAR

STARTCHAR 76FE
ENCODING 46812
SWIDTH 1000 0
DWIDTH 14 0
BBX 12 12 1 -1
BITMAP
01E0
7E00
4200
7FF0
4200
4FE0
4820
4FE0
4820
4FE0
C820
8FA0
ENDCHAR

STARTCHAR 9041
ENCODING 46813
SWIDTH 1000 0
DWIDTH 14 0
BBX 12 12 1 -1
BITMAP
01E0
4E80
4880
0FE0
0BE0
CC20
4BE0
5420
55E0
53E0
7000
8FF0
ENDCHAR

STARTCHAR 6387
ENCODING 46814
SWIDTH 1000 0
DWIDTH 14 0
BBX 12 12 1 -1
BITMAP
4000
4770
4220
6260
4570
5880
EEE0
42A0
4AA0
4640
4440
49B0
ENDCHAR

STARTCHAR 54C6
ENCODING 46815
SWIDTH 1000 0
DWIDTH 14 0
BBX 12 12 1 -1
BITMAP
0100
9200
B5E0
9540
9180
9700
9580
9370
9620
80A0
80C0
0F00
ENDCHAR

STARTCHAR 591A
ENCODING 46816
SWIDTH 1000 0
DWIDTH 14 0
BBX 10 12 1 -1
BITMAP
1800
1FC0
2080
C900
0E00
1800
6400
0BC0
3440
2280
0300
FC00
ENDCHAR

STARTCHAR 593A
ENCODING 46817
SWIDTH 1000 0
DWIDTH 14 0
BBX 12 12 1 -1
BITMAP
0400
0400
7FE0
0980
10E0
E0B0
0080
FFF0
0080
1080
1080
0300
ENDCHAR

STARTCHAR 579B
ENCODING 46818
SWIDTH 1000 0
DWIDTH 14 0
BBX 12 12 1 -1
BITMAP
4380
4240
4240
F440
4C70
4100
4FF0
4340
E340
8520
0930
1110
ENDCHAR

STARTCHAR 8EB2
ENCODING 46819
SWIDTH 1000 0
DWIDTH 14 0
BBX 12 12 1 -1
BITMAP
2000
79C0
4A40
7A40
4E30
7880
4FF0
F9C0
29C0
2AA0
CC90
9880
ENDCHAR

STARTCHAR 6735
ENCODING 46820
SWIDTH 1000 0
DWIDTH 14 0
BBX 12 12 1 -1
BITMAP
0F00
0900
1100
1100
30E0
4400
0400
FFF0
0D00
1480
6460
0400
ENDCHAR

STARTCHAR 8DFA
ENCODING 46821
SWIDTH 1000 0
DWIDTH 14 0
BBX 12 12 1 -1
BITMAP
03C0
F240
9240
9240
2420
2080
A7F0
B1C0
A1C0
AAA0
F4B0
0490
ENDCHAR

STARTCHAR 8235
ENCODING 46822
SWIDTH 1000 0
DWIDTH 14 0
BBX 12 12 1 -1
BITMAP
2080
7880
4BF0
6A10
5A10
4900
F920
49C0
6900
8900
8910
99F0
ENDCHAR

STARTCHAR 5241
ENCODING 46823
SWIDTH 1000 0
DWIDTH 14 0
BBX 12 12 1 -1
BITMAP
0010
3820
48A0
44A0
C6A0
10A0
FEA0
30A0
38A0
5620
9020
1060
ENDCHAR

STARTCHAR 60F0
ENCODING 46824
SWIDTH 1000 0
DWIDTH 14 0
BBX 12 12 1 -1
BITMAP
2100
27F0
3200
B7E0
A480
A960
27E0
2420
27E0
2420
25E0
2460
ENDCHAR

STARTCHAR 5815
ENCODING 46825
SWIDTH 1000 0
DWIDTH 14 0
BBX 12 12 1 -1
BITMAP
0100
B7F0
A200
A7E0
93E0
9220
B3E0
0260
0400
7FC0
0400
FFF0
ENDCHAR

STARTCHAR 86FE
ENCODING 46826
SWIDTH 1000 0
DWIDTH 14 0
BBX 12 12 1 -1
BITMAP
2040
4340
4250
F240
D7F0
D240
F250
C360
4260
1240
EAB0
0630
ENDCHAR

STARTCHAR 5CE8
ENCODING 46827
SWIDTH 1000 0
DWIDTH 14 0
BBX 12 12 1 -1
BITMAP
2000
2140
2250
B240
B7F0
B240
B250
B360
B660
B240
D2A0
0290
ENDCHAR

STARTCHAR 9E45
ENCODING 46828
SWIDTH 1000 0
DWIDTH 14 0
BBX 12 12 1 -1
BITMAP
0080
71F0
5510
5160
FD20
5160
5500
ECF0
4810
4BD0
5810
C630
ENDCHAR

STARTCHAR 4FC4
ENCODING 46829
SWIDTH 1000 0
DWIDTH 14 0
BBX 12 12 1 -1
BITMAP
2080
2FA0
4490
4480
CFF0
C480
44B0
4E60
5440
44C0
4530
0C30
ENDCHAR

STARTCHAR 989D
ENCODING 46830
SWIDTH 1000 0
DWIDTH 14 0
BBX 12 12 1 -1
BITMAP
3000
FCE0
8480
61E0
7920
B160
39A0
45A0
F980
4880
7920
4A10
ENDCHAR

STARTCHAR 8BB9
ENCODING 46831
SWIDTH 1000 0
DWIDTH 14 0
BBX 12 12 1 -1
BITMAP
0280
4680
2480
04A0
ECA0
3CC0
2580
2580
2480
3480
2490
0470
ENDCHAR

STARTCHAR 5A25
ENCODING 46832
SWIDTH 1000 0
DWIDTH 14 0
BBX 12 12 1 -1
BITMAP
0040
2340
4250
F240
5FF0
5240
9250
E360
6640
3240
52B0
8630
ENDCHAR

STARTCHAR 6076
ENCODING 46833
SWIDTH 1000 0
DWIDTH 14 0
BBX 12 12 1 -1
BITMAP
7FE0
0900
0920
2940
2900
8910
76E0
0200
5220
5020
9090
0F80
ENDCHAR

STARTCHAR 5384
ENCODING 46834
SWIDTH 1000 0
DWIDTH 14 0
BBX 12 11 1 -1
BITMAP
7FF0
4000
4FC0
4840
4840
4840
4840
4980
4800
4810
87E0
ENDCHAR

STARTCHAR 627C
ENCODING 46835
SWIDTH 1000 0
DWIDTH 14 0
BBX 12 12 1 -1
BITMAP
2000
27F0
2400
F400
2560
2520
7520
E560
2500
2900
2910
59F0
ENDCHAR

STARTCHAR 904F
ENCODING 46836
SWIDTH 1000 0
DWIDTH 14 0
BBX 12 12 1 -1
BITMAP
0FE0
4820
0FE0
0820
07C0
C7F0
5910
4A90
4810
4FB0
6000
9FF0
ENDCHAR

STARTCHAR 9102
ENCODING 46837
SWIDTH 1000 0
DWIDTH 14 0
BBX 12 11 1 -1
BITMAP
A5E0
B520
ED20
0140
7940
FF20
2110
3D10
0530
0500
0D00
ENDCHAR

STARTCHAR 997F
ENCODING 46838
SWIDTH 1000 0
DWIDTH 14 0
BBX 12 12 1 -1
BITMAP
0080
4280
44B0
B480
AFF0
8480
44B0
4760
4C40
5440
65B0
4C10
ENDCHAR

STARTCHAR 6069
ENCODING 46839
SWIDTH 1000 0
DWIDTH 14 0
BBX 12 12 1 -1
BITMAP
7FE0
4040
54C0
4F40
4B40
5040
7FC0
0000
5260
5030
9090
1F80
ENDCHAR

STARTCHAR 800C
ENCODING 46840
SWIDTH 1000 0
DWIDTH 14 0
BBX 12 11 1 -1
BITMAP
FFF0
0400
0400
7FE0
4920
4920
4920
4920
4920
4920
4060
ENDCHAR

STARTCHAR 513F
ENCODING 46841
SWIDTH 1000 0
DWIDTH 14 0
BBX 12 11 1 -1
BITMAP
1900
1900
1100
1100
1100
1100
1100
2100
2110
41F0
8000
ENDCHAR

STARTCHAR 8033
ENCODING 46842
SWIDTH 1000 0
DWIDTH 14 0
BBX 12 11 1 -1
BITMAP
FFF0
1080
1F80
1080
1080
1F80
1080
1080
FFF0
0080
0080
ENDCHAR

STARTCHAR 5C14
ENCODING 46843
SWIDTH 1000 0
DWIDTH 14 0
BBX 11 12 2 -1
BITMAP
1000
2000
7FC0
4040
84C0
0400
2500
6580
44C0
8460
0400
1800
ENDCHAR

STARTCHAR 9975
ENCODING 46844
SWIDTH 1000 0
DWIDTH 14 0
BBX 12 12 1 -1
BITMAP
4000
4FF0
7A20
9220
93A0
4220
43E0
4220
5220
67F0
4820
0020
ENDCHAR

STARTCHAR 6D31
ENCODING 46845
SWIDTH 1000 0
DWIDTH 14 0
BBX 12 11 1 -1
BITMAP
5FF0
2440
07C0
8440
4440
07C0
4440
4450
5FE0
C040
8040
ENDCHAR

STARTCHAR 4E8C
ENCODING 46846
SWIDTH 1000 0
DWIDTH 14 0
BBX 12 9 1 0
BITMAP
7FE0
0000
0000
0000
0000
0000
0000
8010
FFF0
ENDCHAR

STARTCHAR 8D30
ENCODING 47009
SWIDTH 1000 0
DWIDTH 14 0
BBX 12 12 1 -1
BITMAP
00A0
0080
FFF0
7E80
0080
7E80
0080
5E80
5280
5240
1450
E330
ENDCHAR

STARTCHAR 53D1
ENCODING 47010
SWIDTH 1000 0
DWIDTH 14 0
BBX 12 12 1 -1
BITMAP
0400
2440
4400
7FF0
0800
0800
17C0
3480
6680
C300
07C0
3870
ENDCHAR

STARTCHAR 7F5A
ENCODING 47011
SWIDTH 1000 0
DWIDTH 14 0
BBX 11 11 1 -1
BITMAP
7FE0
4920
7FE0
0000
3020
0120
E120
2120
2920
3020
2060
ENDCHAR

STARTCHAR 7B4F
ENCODING 47012
SWIDTH 1000 0
DWIDTH 14 0
BBX 12 12 1 -1
BITMAP
2080
3DF0
5340
0000
1240
2240
6FE0
A120
A160
2180
2E90
2070
ENDCHAR

STARTCHAR 4F10
ENCODING 47013
SWIDTH 1000 0
DWIDTH 14 0
BBX 12 12 1 -1
BITMAP
3200
2240
2200
6270
6F80
A200
2160
2140
2180
2180
26D0
2070
ENDCHAR

STARTCHAR 4E4F
ENCODING 47014
SWIDTH 1000 0
DWIDTH 14 0
BBX 11 12 2 -1
BITMAP
00C0
FF00
0000
0400
0000
FFC0
0300
0C00
3000
6000
9C00
83E0
ENDCHAR

STARTCHAR 9600
ENCODING 47015
SWIDTH 1000 0
DWIDTH 14 0
BBX 10 12 2 -1
BITMAP
4000
4FC0
0540
A540
A4C0
EF40
E540
A540
A240
AFC0
A140
80C0
ENDCHAR

STARTCHAR 6CD5
ENCODING 47016
SWIDTH 1000 0
DWIDTH 14 0
BBX 11 12 1 -1
BITMAP
0100
6100
2FE0
0100
C100
6100
06E0
0100
2240
4440
4460
8FA0
ENDCHAR

STARTCHAR 73D0
ENCODING 47017
SWIDTH 1000 0
DWIDTH 14 0
BBX 12 12 1 -1
BITMAP
0080
F080
07F0
4080
4080
F080
4360
4100
4240
3220
C4E0
0710
ENDCHAR

STARTCHAR 85E9
ENCODING 47018
SWIDTH 1000 0
DWIDTH 14 0
BBX 12 13 1 -2
BITMAP
0900
FFF0
0800
4FC0
2940
1FF0
4580
0960
1FF0
4920
4BA0
8FE0
0020
ENDCHAR

STARTCHAR 5E06
ENCODING 47019
SWIDTH 1000 0
DWIDTH 14 0
BBX 12 12 1 -1
BITMAP
2000
23C0
FA40
AA40
AAC0
AAC0
AAC0
AA40
AA40
AC40
2450
2C30
ENDCHAR

STARTCHAR 756A
ENCODING 47020
SWIDTH 1000 0
DWIDTH 14 0
BBX 12 12 1 -1
BITMAP
00E0
7F00
1280
FFF0
0B00
1280
6270
BFC0
2240
3FC0
2240
3FC0
ENDCHAR

STARTCHAR 7FFB
ENCODING 47021
SWIDTH 1000 0
DWIDTH 14 0
BBX 12 12 1 -1
BITMAP
0800
73F0
5890
12D0
7AD0
5890
9490
78B0
5B90
7890
5890
61B0
ENDCHAR

STARTCHAR 6A0A
ENCODING 47022
SWIDTH 1000 0
DWIDTH 14 0
BBX 12 12 1 -1
BITMAP
2100
2640
F6F0
6040
BE60
A2D0
2D40
2240
FFF0
0600
0900
F0F0
ENDCHAR

STARTCHAR 77FE
ENCODING 47023
SWIDTH 1000 0
DWIDTH 14 0
BBX 12 11 1 -1
BITMAP
73C0
2240
4240
7AC0
D2C0
52C0
5240
7240
4C50
4450
0870
ENDCHAR

STARTCHAR 9492
ENCODING 47024
SWIDTH 1000 0
DWIDTH 14 0
BBX 12 12 1 -1
BITMAP
6000
43C0
7A40
8240
FAC0
22C0
2AC0
7240
2240
3C40
3450
0C70
ENDCHAR

STARTCHAR 7E41
ENCODING 47025
SWIDTH 1000 0
DWIDTH 14 0
BBX 12 12 1 -1
BITMAP
4080
5CF0
FD20
54A0
7C40
7EA0
0810
3700
0C40
3FE0
1280
6270
ENDCHAR

STARTCHAR 51E1
ENCODING 47026
SWIDTH 1000 0
DWIDTH 14 0
BBX 12 11 1 -1
BITMAP
1F80
2080
2080
2480
2480
2680
2080
2100
2110
4090
C0E0
ENDCHAR

STARTCHAR 70E6
ENCODING 47027
SWIDTH 1000 0
DWIDTH 14 0
BBX 12 12 1 -1
BITMAP
2000
23E0
2080
ABF0
B410
A490
A490
2490
5090
4940
4260
8C30
ENDCHAR

STARTCHAR 53CD
ENCODING 47028
SWIDTH 1000 0
DWIDTH 14 0
BBX 12 12 1 -1
BITMAP
00C0
3F00
2000
2000
3FC0
2840
4880
4480
4500
4300
C5C0
B830
ENDCHAR

STARTCHAR 8FD4
ENCODING 47029
SWIDTH 1000 0
DWIDTH 14 0
BBX 12 12 1 -1
BITMAP
40E0
4700
2400
07E0
0420
E540
28C0
28C0
29A0
3B00
6000
DFF0
ENDCHAR

STARTCHAR 8303
ENCODING 47030
SWIDTH 1000 0
DWIDTH 14 0
BBX 12 12 1 -1
BITMAP
0900
FFF0
0900
0900
27C0
1440
C440
6440
04C0
3400
6410
C3F0
ENDCHAR

STARTCHAR 8D29
ENCODING 47031
SWIDTH 1000 0
DWIDTH 14 0
BBX 12 12 1 -1
BITMAP
0060
7A80
8A00
AA00
ABE0
AB20
AB20
2AA0
22C0
5440
44E0
8F30
ENDCHAR

STARTCHAR 72AF
ENCODING 47032
SWIDTH 1000 0
DWIDTH 14 0
BBX 12 12 1 -1
BITMAP
4000
53E0
2220
6220
9220
1220
32E0
5200
9200
1200
1210
63F0
ENDCHAR

STARTCHAR 996D
ENCODING 47033
SWIDTH 1000 0
DWIDTH 14 0
BBX 13 12 0 -1
BITMAP
3010
21F0
3D00
4500
C9F0
2190
2290
22A0
2A60
3260
26F0
0598
ENDCHAR

STARTCHAR 6CDB
ENCODING 47034
SWIDTH 1000 0
DWIDTH 14 0
BBX 12 12 1 -1
BITMAP
0020
67C0
0000
0100
C100
0FE0
0060
0080
2100
4200
4E00
C1F0
ENDCHAR

STARTCHAR 574A
ENCODING 47035
SWIDTH 1000 0
DWIDTH 14 0
BBX 12 12 1 -1
BITMAP
2180
2080
2FF0
3200
6200
23E0
2220
2220
3220
C420
0C20
18C0
ENDCHAR

STARTCHAR 82B3
ENCODING 47036
SWIDTH 1000 0
DWIDTH 14 0
BBX 12 12 1 -1
BITMAP
1080
FFF0
1080
1680
0200
7DE0
0800
0FC0
0840
1040
3080
6180
ENDCHAR

STARTCHAR 65B9
ENCODING 47037
SWIDTH 1000 0
DWIDTH 14 0
BBX 12 12 1 -1
BITMAP
0400
0200
FFF0
0800
0800
0FC0
0840
0840
1040
1040
20C0
4180
ENDCHAR

STARTCHAR 80AA
ENCODING 47038
SWIDTH 1000 0
DWIDTH 14 0
BBX 13 12 0 -1
BITMAP
0040
3840
2BF8
2880
3880
28F0
2890
3890
4910
4910
4910
DA30
ENDCHAR

STARTCHAR 623F
ENCODING 47039
SWIDTH 1000 0
DWIDTH 14 0
BBX 12 12 1 -1
BITMAP
0200
7FE0
4020
4020
5FC0
4100
7FF0
4400
47E0
4420
8820
98C0
ENDCHAR

STARTCHAR 9632
ENCODING 47040
SWIDTH 1000 0
DWIDTH 14 0
BBX 12 12 1 -1
BITMAP
0080
B080
97F0
9000
A200
91E0
9220
8A20
B220
A620
8420
88C0
ENDCHAR

STARTCHAR 59A8
ENCODING 47041
SWIDTH 1000 0
DWIDTH 14 0
BBX 12 12 1 -1
BITMAP
2080
2080
27F0
F100
5100
51E0
5120
5120
2220
3220
4620
84E0
ENDCHAR

STARTCHAR 4EFF
ENCODING 47042
SWIDTH 1000 0
DWIDTH 14 0
BBX 12 12 1 -1
BITMAP
2100
2100
4FF0
4200
C200
C3E0
4220
4420
4420
4420
4840
58C0
ENDCHAR

STARTCHAR 8BBF
ENCODING 47043
SWIDTH 1000 0
DWIDTH 14 0
BBX 11 12 1 -1
BITMAP
4100
6180
0000
0FE0
E200
23E0
2220
2420
2420
3440
6C40
18C0
ENDCHAR

STARTCHAR 7EBA
ENCODING 47044
SWIDTH 1000 0
DWIDTH 14 0
BBX 12 12 1 -1
BITMAP
2080
4080
47F0
9100
F100
21E0
4220
7A20
0220
0220
F420
04E0
ENDCHAR

STARTCHAR 653E
ENCODING 47045
SWIDTH 1000 0
DWIDTH 14 0
BBX 12 12 1 -1
BITMAP
2180
1100
0100
FFF0
4220
3B20
4920
4940
48C0
48C0
89E0
9730
ENDCHAR

STARTCHAR 83F2
ENCODING 47046
SWIDTH 1000 0
DWIDTH 14 0
BBX 12 12 1 -1
BITMAP
0900
FFF0
0900
0000
79F0
0900
0900
79E0
0900
F9F0
0900
0900
ENDCHAR

STARTCHAR 975E
ENCODING 47047
SWIDTH 1000 0
DWIDTH 14 0
BBX 12 12 1 -1
BITMAP
0900
0900
F9F0
0900
0900
79E0
0900
0900
0900
69E0
0900
0900
ENDCHAR

STARTCHAR 5561
ENCODING 47048
SWIDTH 1000 0
DWIDTH 14 0
BBX 12 12 1 -1
BITMAP
0240
E240
AE70
A240
A240
AE70
A240
E240
8E70
8240
0240
0240
ENDCHAR

STARTCHAR 98DE
ENCODING 47049
SWIDTH 1000 0
DWIDTH 14 0
BBX 12 11 1 -1
BITMAP
FE00
0200
0240
0280
0300
01C0
0120
0100
0100
0090
0060
ENDCHAR

STARTCHAR 80A5
ENCODING 47050
SWIDTH 1000 0
DWIDTH 14 0
BBX 12 12 1 -1
BITMAP
7000
93E0
92A0
72A0
92A0
92A0
73E0
9220
9200
9210
9210
B3E0
ENDCHAR

STARTCHAR 532A
ENCODING 47051
SWIDTH 1000 0
DWIDTH 14 0
BBX 11 12 2 -1
BITMAP
FFE0
8000
8900
B9C0
8900
8900
9980
8900
F9E0
8900
8000
FFE0
ENDCHAR

STARTCHAR 8BFD
ENCODING 47052
SWIDTH 1000 0
DWIDTH 14 0
BBX 12 12 1 -1
BITMAP
4240
2280
0A90
06A0
E280
2E60
2280
2280
2280
36A0
2280
0280
ENDCHAR

STARTCHAR 5420
ENCODING 47053
SWIDTH 1000 0
DWIDTH 14 0
BBX 12 12 1 -1
BITMAP
0100
F160
9100
9100
97F0
9100
9100
9280
F280
9440
8C20
1810
ENDCHAR

STARTCHAR 80BA
ENCODING 47054
SWIDTH 1000 0
DWIDTH 14 0
BBX 13 12 0 -1
BITMAP
0040
7840
4BF8
4840
7840
4AF8
4A48
7A48
4A48
4A58
4A40
D840
ENDCHAR

STARTCHAR 5E9F
ENCODING 47055
SWIDTH 1000 0
DWIDTH 14 0
BBX 12 12 1 -1
BITMAP
0200
7FF0
4000
4A40
5FF0
4200
4400
47C0
4A40
5180
5180
9E70
ENDCHAR

STARTCHAR 6CB8
ENCODING 47056
SWIDTH 1000 0
DWIDTH 14 0
BBX 12 12 1 -1
BITMAP
0280
6280
0FF0
0290
CFF0
0A80
0A80
0FF0
4290
4490
C4A0
9880
ENDCHAR

STARTCHAR 8D39
ENCODING 47057
SWIDTH 1000 0
DWIDTH 14 0
BBX 12 12 1 -1
BITMAP
0900
7FE0
0920
7FE0
4900
3FF0
7130
FFC0
2240
2440
0D80
7060
ENDCHAR

STARTCHAR 82AC
ENCODING 47058
SWIDTH 1000 0
DWIDTH 14 0
BBX 12 12 1 -1
BITMAP
0900
FFF0
0900
0000
0900
1080
6060
BFB0
0880
0880
1080
6380
ENDCHAR

STARTCHAR 915A
ENCODING 47059
SWIDTH 1000 0
DWIDTH 14 0
BBX 12 12 1 -1
BITMAP
0040
7940
5120
FD20
D510
D7F0
D4A0
8CA0
FD20
8520
FD20
8240
ENDCHAR

STARTCHAR 5429
ENCODING 47060
SWIDTH 1000 0
DWIDTH 14 0
BBX 12 12 1 -1
BITMAP
0340
F240
9240
9420
9430
9FD0
9140
F140
9240
8240
0640
0CC0
ENDCHAR

STARTCHAR 6C1B
ENCODING 47061
SWIDTH 1000 0
DWIDTH 14 0
BBX 12 12 1 -1
BITMAP
3000
7FF0
C000
1F80
7FC0
0040
3240
4140
BEC0
1240
3230
6630
ENDCHAR

STARTCHAR 5206
ENCODING 47062
SWIDTH 1000 0
DWIDTH 14 0
BBX 12 12 1 -1
BITMAP
0100
0900
1080
2040
6060
C030
1F80
0880
0880
1080
3080
4180
ENDCHAR

STARTCHAR 7EB7
ENCODING 47063
SWIDTH 1000 0
DWIDTH 14 0
BBX 12 12 1 -1
BITMAP
0240
4240
5240
9220
E430
2FD0
4140
F140
0240
0240
E440
0CC0
ENDCHAR

STARTCHAR 575F
ENCODING 47064
SWIDTH 1000 0
DWIDTH 14 0
BBX 12 12 1 -1
BITMAP
6100
4180
4000
47E0
F440
4240
4240
4180
1180
E180
0660
0C10
ENDCHAR

STARTCHAR 711A
ENCODING 47065
SWIDTH 1000 0
DWIDTH 14 0
BBX 12 12 1 -1
BITMAP
1080
1080
FBF0
3980
57A0
9690
0000
1440
2680
0900
1980
E070
ENDCHAR

STARTCHAR 6C7E
ENCODING 47066
SWIDTH 1000 0
DWIDTH 14 0
BBX 12 12 1 -1
BITMAP
4080
6280
2640
0440
CC20
0FF0
0240
2240
2240
4440
4440
0980
ENDCHAR

STARTCHAR 7C89
ENCODING 47067
SWIDTH 1000 0
DWIDTH 14 0
BBX 12 12 1 -1
BITMAP
2140
A940
AA40
2220
2A30
77F0
7120
6920
A920
A320
2220
24C0
ENDCHAR

STARTCHAR 594B
ENCODING 47068
SWIDTH 1000 0
DWIDTH 14 0
BBX 12 12 1 -1
BITMAP
0400
0400
FFF0
1900
3080
6070
BFC0
2440
3FC0
2440
2040
3FC0
ENDCHAR

STARTCHAR 4EFD
ENCODING 47069
SWIDTH 1000 0
DWIDTH 14 0
BBX 12 12 1 -1
BITMAP
3080
2280
6440
4440
C820
DFF0
4240
4240
4240
4440
4440
0980
ENDCHAR

STARTCHAR 5FFF
ENCODING 47070
SWIDTH 1000 0
DWIDTH 14 0
BBX 12 12 1 -1
BITMAP
0900
1180
20C0
FFF0
8840
1880
7180
0000
1240
5220
9090
9F80
ENDCHAR

STARTCHAR 6124
ENCODING 47071
SWIDTH 1000 0
DWIDTH 14 0
BBX 12 12 1 -1
BITMAP
2100
4FF0
4100
D440
DFF0
C040
47E0
4420
4520
4520
4240
0C20
ENDCHAR

STARTCHAR 7CAA
ENCODING 47072
SWIDTH 1000 0
DWIDTH 14 0
BBX 12 12 1 -1
BITMAP
3040
1480
FFF0
0D00
30C0
C830
4820
3FC0
0800
77E0
1180
6060
ENDCHAR

STARTCHAR 4E30
ENCODING 47073
SWIDTH 1000 0
DWIDTH 14 0
BBX 12 12 1 -1
BITMAP
0200
0200
7FE0
0200
0200
3FE0
0200
0200
FFF0
0200
0200
0600
ENDCHAR

STARTCHAR 5C01
ENCODING 47074
SWIDTH 1000 0
DWIDTH 14 0
BBX 12 12 1 -1
BITMAP
1020
1040
FC40
11F0
1040
6840
1140
7D40
1040
1040
3C40
C0C0
ENDCHAR

STARTCHAR 67AB
ENCODING 47075
SWIDTH 1000 0
DWIDTH 14 0
BBX 12 11 1 -1
BITMAP
47E0
54A0
66A0
45A0
55A0
D5A0
C9A0
4A60
4A60
5830
1010
ENDCHAR

STARTCHAR 8702
ENCODING 47076
SWIDTH 1000 0
DWIDTH 14 0
BBX 12 12 1 -1
BITMAP
2100
23E0
2340
F8C0
AB70
AC80
A880
A9C0
23E0
2880
EBF0
0080
ENDCHAR

STARTCHAR 5CF0
ENCODING 47077
SWIDTH 1000 0
DWIDTH 14 0
BBX 12 12 1 -1
BITMAP
2100
21E0
2340
ACC0
B370
B490
B3E0
B080
B3E0
B080
CBF0
0080
ENDCHAR

STARTCHAR 950B
ENCODING 47078
SWIDTH 1000 0
DWIDTH 14 0
BBX 12 12 1 -1
BITMAP
2100
43E0
7740
8580
F370
2480
27E0
6080
27E0
3080
37F0
0080
ENDCHAR

STARTCHAR 98CE
ENCODING 47079
SWIDTH 1000 0
DWIDTH 14 0
BBX 12 11 1 -1
BITMAP
7FC0
4040
5140
4940
4640
4640
4640
4940
71C0
8030
8030
ENDCHAR

STARTCHAR 75AF
ENCODING 47080
SWIDTH 1000 0
DWIDTH 14 0
BBX 12 12 1 -1
BITMAP
0200
3FF0
2000
AFE0
A820
28A0
6AA0
A920
4920
4AA0
54A0
D030
ENDCHAR

STARTCHAR 70FD
ENCODING 47081
SWIDTH 1000 0
DWIDTH 14 0
BBX 12 12 1 -1
BITMAP
2300
23C0
2640
B180
A770
A890
A7F0
4080
77E0
5080
CFF0
8080
ENDCHAR

STARTCHAR 9022
ENCODING 47082
SWIDTH 1000 0
DWIDTH 14 0
BBX 12 12 1 -1
BITMAP
0200
47C0
4AC0
0180
1E70
C100
4FE0
4FE0
4100
5FE0
6100
9FF0
ENDCHAR

STARTCHAR 51AF
ENCODING 47083
SWIDTH 1000 0
DWIDTH 14 0
BBX 12 11 1 -1
BITMAP
0FC0
4040
6440
0440
0440
27F0
4010
4010
5F90
C020
0060
ENDCHAR

STARTCHAR 7F1D
ENCODING 47084
SWIDTH 1000 0
DWIDTH 14 0
BBX 12 12 1 -1
BITMAP
2880
45E0
42A0
9040
E3B0
2450
44E0
F5E0
0440
05F0
EE40
01F0
ENDCHAR

STARTCHAR 8BBD
ENCODING 47085
SWIDTH 1000 0
DWIDTH 14 0
BBX 12 11 1 -1
BITMAP
4FE0
4820
08A0
CAA0
4920
4920
4AA0
6AA0
74B0
5030
3030
ENDCHAR

STARTCHAR 5949
ENCODING 47086
SWIDTH 1000 0
DWIDTH 14 0
BBX 12 12 1 -1
BITMAP
0400
7FE0
0400
3FE0
0800
FFF0
1280
7FE0
8210
0200
3FC0
0200
ENDCHAR

STARTCHAR 51E4
ENCODING 47087
SWIDTH 1000 0
DWIDTH 14 0
BBX 12 11 1 -1
BITMAP
7FC0
4040
4040
4F40
4140
4E40
4640
4740
49C0
9030
8030
ENDCHAR

STARTCHAR 4F5B
ENCODING 47088
SWIDTH 1000 0
DWIDTH 14 0
BBX 13 12 0 -1
BITMAP
1940
1140
27F0
2150
67F0
E540
2540
27F8
2148
2248
2650
2C40
ENDCHAR

STARTCHAR 5426
ENCODING 47089
SWIDTH 1000 0
DWIDTH 14 0
BBX 12 12 1 -1
BITMAP
7FE0
0200
0600
0C80
3460
E430
8400
3FC0
2040
2040
3FC0
2040
ENDCHAR

STARTCHAR 592B
ENCODING 47090
SWIDTH 1000 0
DWIDTH 14 0
BBX 12 12 1 -1
BITMAP
0400
0400
7FE0
0400
0400
0400
FFF0
0600
0B00
1980
30C0
C030
ENDCHAR

STARTCHAR 6577
ENCODING 47091
SWIDTH 1000 0
DWIDTH 14 0
BBX 12 12 1 -1
BITMAP
1480
FE80
10F0
7CA0
7D20
55A0
78A0
10A0
FE40
3C40
44A0
4D10
ENDCHAR

STARTCHAR 80A4
ENCODING 47092
SWIDTH 1000 0
DWIDTH 14 0
BBX 12 12 1 -1
BITMAP
0080
7880
4890
49E0
6880
4C80
4BE0
6980
4940
8940
8A20
9410
ENDCHAR

STARTCHAR 5B75
ENCODING 47093
SWIDTH 1000 0
DWIDTH 14 0
BBX 12 12 1 -1
BITMAP
6030
8FC0
B250
F240
FA00
F2E0
B240
F3F0
B240
3440
5040
C0C0
ENDCHAR

STARTCHAR 6276
ENCODING 47094
SWIDTH 1000 0
DWIDTH 14 0
BBX 12 12 1 -1
BITMAP
2080
2080
27F0
F900
2100
37F0
E180
A180
2380
2240
2420
4C10
ENDCHAR

STARTCHAR 62C2
ENCODING 47095
SWIDTH 1000 0
DWIDTH 14 0
BBX 12 12 1 -1
BITMAP
4280
4280
4FF0
F290
4290
4BC0
7A80
CFF0
4290
4490
44B0
D880
ENDCHAR

STARTCHAR 8F90
ENCODING 47096
SWIDTH 1000 0
DWIDTH 14 0
BBX 12 12 1 -1
BITMAP
2000
43F0
F000
43E0
A220
A1C0
FFF0
2490
2C90
F5D0
2490
27F0
ENDCHAR

STARTCHAR 5E45
ENCODING 47097
SWIDTH 1000 0
DWIDTH 14 0
BBX 12 12 1 -1
BITMAP
2000
23F0
F800
ABE0
AA20
A9C0
AFF0
AC90
AC90
B5D0
2490
27F0
ENDCHAR

STARTCHAR 6C1F
ENCODING 47098
SWIDTH 1000 0
DWIDTH 14 0
BBX 12 12 1 -1
BITMAP
2000
5FC0
FFC0
0000
7FC0
1440
3F40
7F40
5440
7FD0
24B0
E530
ENDCHAR

STARTCHAR 7B26
ENCODING 47099
SWIDTH 1000 0
DWIDTH 14 0
BBX 12 12 1 -1
BITMAP
2180
7DF0
4B20
0820
1040
2040
6FF0
E040
2240
2240
2040
21C0
ENDCHAR

STARTCHAR 4F0F
ENCODING 47100
SWIDTH 1000 0
DWIDTH 14 0
BBX 12 12 1 -1
BITMAP
3120
2120
2120
6100
EFF0
A100
2180
2280
2240
2440
2C30
2810
ENDCHAR

STARTCHAR 4FD8
ENCODING 47101
SWIDTH 1000 0
DWIDTH 14 0
BBX 12 12 1 -1
BITMAP
20E0
2F00
4120
4920
C000
CFE0
40C0
4100
5FF0
4100
4100
4300
ENDCHAR

STARTCHAR 670D
ENCODING 47102
SWIDTH 1000 0
DWIDTH 14 0
BBX 12 12 1 -1
BITMAP
0200
7AE0
4A20
7A60
4A00
4BE0
7AA0
4AA0
4AA0
8A40
8AE0
9290
ENDCHAR

STARTCHAR 6D6E
ENCODING 47265
SWIDTH 1000 0
DWIDTH 14 0
BBX 12 12 1 -1
BITMAP
4060
6F80
0020
0920
C040
0FE0
0040
4180
5FF0
4100
8100
8300
ENDCHAR

STARTCHAR 6DAA
ENCODING 47266
SWIDTH 1000 0
DWIDTH 14 0
BBX 12 12 1 -1
BITMAP
0100
4000
0FF0
0040
8240
5FF0
0000
0800
4BE0
4820
47E0
C020
ENDCHAR

STARTCHAR 798F
ENCODING 47267
SWIDTH 1000 0
DWIDTH 14 0
BBX 12 12 1 -1
BITMAP
67F0
2000
07E0
E420
2420
2180
47F0
D490
4490
47D0
4490
07F0
ENDCHAR

STARTCHAR 88B1
ENCODING 47268
SWIDTH 1000 0
DWIDTH 14 0
BBX 12 12 1 -1
BITMAP
6280
02A0
F490
2480
2DF0
4CC0
B4C0
54C0
44C0
4520
4530
0510
ENDCHAR

STARTCHAR 5F17
ENCODING 47269
SWIDTH 1000 0
DWIDTH 14 0
BBX 10 12 2 -1
BITMAP
1200
1200
FFC0
1240
7FC0
9200
9200
FFC0
1240
2240
62C0
C200
ENDCHAR

STARTCHAR 752B
ENCODING 47270
SWIDTH 1000 0
DWIDTH 14 0
BBX 10 12 2 -1
BITMAP
0580
0400
FFC0
0400
7FC0
4440
7FC0
4440
7FC0
4440
4440
45C0
ENDCHAR

STARTCHAR 629A
ENCODING 47271
SWIDTH 1000 0
DWIDTH 14 0
BBX 12 12 1 -1
BITMAP
2000
27E0
2100
F900
2100
27F0
3180
E280
2280
2680
2C90
7870
ENDCHAR

STARTCHAR 8F85
ENCODING 47272
SWIDTH 1000 0
DWIDTH 14 0
BBX 12 12 1 -1
BITMAP
60A0
4080
F7F0
4080
A7F0
A490
F490
25D0
2C90
F7F0
2490
24B0
ENDCHAR

STARTCHAR 4FEF
ENCODING 47273
SWIDTH 1000 0
DWIDTH 14 0
BBX 13 12 0 -1
BITMAP
1080
1000
27F8
2490
6510
E578
2710
2750
2950
2910
2910
2130
ENDCHAR

STARTCHAR 91DC
ENCODING 47274
SWIDTH 1000 0
DWIDTH 14 0
BBX 12 12 1 -1
BITMAP
1880
3040
4920
0600
1980
E070
3FC0
0200
7FE0
0200
1280
FFF0
ENDCHAR

STARTCHAR 65A7
ENCODING 47275
SWIDTH 1000 0
DWIDTH 14 0
BBX 11 12 2 -1
BITMAP
3300
60C0
9240
0C00
7380
8060
7F00
4000
7FC0
4200
4200
8200
ENDCHAR

STARTCHAR 812F
ENCODING 47276
SWIDTH 1000 0
DWIDTH 14 0
BBX 12 12 1 -1
BITMAP
00A0
7080
57F0
5080
77E0
54A0
54A0
75E0
54A0
97E0
94A0
B4E0
ENDCHAR

STARTCHAR 8151
ENCODING 47277
SWIDTH 1000 0
DWIDTH 14 0
BBX 12 12 1 -1
BITMAP
0080
F7F0
9400
9520
F520
97F0
9720
F5A0
9560
9920
9920
B160
ENDCHAR

STARTCHAR 5E9C
ENCODING 47278
SWIDTH 1000 0
DWIDTH 14 0
BBX 12 12 1 -1
BITMAP
0200
7FF0
4000
4840
4840
5FF0
6840
4A40
4940
C840
8840
88C0
ENDCHAR

STARTCHAR 8150
ENCODING 47279
SWIDTH 1000 0
DWIDTH 14 0
BBX 12 12 1 -1
BITMAP
0200
7DE0
4840
57F0
7240
40C0
4000
5FE0
5720
92A0
9320
9460
ENDCHAR

STARTCHAR 8D74
ENCODING 47280
SWIDTH 1000 0
DWIDTH 14 0
BBX 12 12 1 -1
BITMAP
1080
1080
FC80
1080
10A0
7CB0
1090
5E80
5080
B080
9800
87F0
ENDCHAR

STARTCHAR 526F
ENCODING 47281
SWIDTH 1000 0
DWIDTH 14 0
BBX 11 12 1 -1
BITMAP
FE20
0020
7CA0
44A0
7CA0
00A0
FEA0
92A0
FEA0
9220
FE20
8260
ENDCHAR

STARTCHAR 8986
ENCODING 47282
SWIDTH 1000 0
DWIDTH 14 0
BBX 12 13 1 -2
BITMAP
7FF0
4900
7FE0
7FE0
37E0
4800
83E0
2BA0
E7E0
27C0
2A40
2380
2C60
ENDCHAR

STARTCHAR 8D4B
ENCODING 47283
SWIDTH 1000 0
DWIDTH 14 0
BBX 12 12 1 -1
BITMAP
0040
B740
9040
97F0
D140
D540
D5C0
D540
4540
5540
8730
8010
ENDCHAR

STARTCHAR 590D
ENCODING 47284
SWIDTH 1000 0
DWIDTH 14 0
BBX 11 12 2 -1
BITMAP
2000
7FE0
8000
5F80
7F80
4080
7F80
1000
6F00
D200
0C00
F3E0
ENDCHAR

STARTCHAR 5085
ENCODING 47285
SWIDTH 1000 0
DWIDTH 14 0
BBX 12 12 1 -1
BITMAP
2160
2FF0
4100
4FE0
CFE0
C920
4FE0
4900
5040
4FE0
4440
00C0
ENDCHAR

STARTCHAR 4ED8
ENCODING 47286
SWIDTH 1000 0
DWIDTH 14 0
BBX 12 12 1 -1
BITMAP
3040
2040
2040
6FF0
6040
A040
2640
2240
2040
2040
2040
20C0
ENDCHAR

STARTCHAR 961C
ENCODING 47287
SWIDTH 1000 0
DWIDTH 14 0
BBX 12 12 1 -1
BITMAP
0400
3FC0
2040
3FC0
2000
3FE0
2020
3FE0
0200
FFF0
0200
0200
ENDCHAR

STARTCHAR 7236
ENCODING 47288
SWIDTH 1000 0
DWIDTH 14 0
BBX 12 11 1 -1
BITMAP
1980
3040
6030
5080
0980
0900
0F00
0600
0F00
31E0
E060
ENDCHAR

STARTCHAR 8179
ENCODING 47289
SWIDTH 1000 0
DWIDTH 14 0
BBX 12 12 1 -1
BITMAP
0200
73F0
9400
9FE0
7220
93E0
93E0
7200
92C0
9540
9080
BF70
ENDCHAR

STARTCHAR 8D1F
ENCODING 47290
SWIDTH 1000 0
DWIDTH 14 0
BBX 12 12 1 -1
BITMAP
0800
1840
3780
6100
7FE0
2020
2220
2220
2220
2400
0DC0
F070
ENDCHAR

STARTCHAR 5BCC
ENCODING 47291
SWIDTH 1000 0
DWIDTH 14 0
BBX 11 12 2 -1
BITMAP
0400
FFE0
8020
1F00
3F80
2080
3F80
7FC0
4440
7FC0
4440
7FC0
ENDCHAR

STARTCHAR 8BA3
ENCODING 47292
SWIDTH 1000 0
DWIDTH 14 0
BBX 12 12 1 -1
BITMAP
0100
2100
1100
0100
E140
2120
2130
2110
2900
3900
3100
0100
ENDCHAR

STARTCHAR 9644
ENCODING 47293
SWIDTH 1000 0
DWIDTH 14 0
BBX 11 12 2 -1
BITMAP
0640
E440
A440
AFE0
CC40
B540
A540
A540
E440
8440
8440
84C0
ENDCHAR

STARTCHAR 5987
ENCODING 47294
SWIDTH 1000 0
DWIDTH 14 0
BBX 12 12 1 -1
BITMAP
3000
23F0
2020
F820
2820
4820
49E0
5020
3020
3820
6BE0
C010
ENDCHAR

STARTCHAR 7F1A
ENCODING 47295
SWIDTH 1000 0
DWIDTH 14 0
BBX 12 12 1 -1
BITMAP
2160
4FF0
4100
97E0
E520
27E0
47E0
4500
0040
07E0
F240
00C0
ENDCHAR

STARTCHAR 5490
ENCODING 47296
SWIDTH 1000 0
DWIDTH 14 0
BBX 12 12 1 -1
BITMAP
0320
9220
B620
97F0
9620
9AA0
92A0
92A0
9220
8220
0220
0260
ENDCHAR

STARTCHAR 5676
ENCODING 47297
SWIDTH 1000 0
DWIDTH 14 0
BBX 12 12 1 -1
BITMAP
0240
0FF0
E240
A7E0
A7E0
A420
A3C0
A7F0
E920
87A0
0420
07E0
ENDCHAR

STARTCHAR 560E
ENCODING 47298
SWIDTH 1000 0
DWIDTH 14 0
BBX 12 12 1 -1
BITMAP
0FF0
8100
E7E0
A7E0
A420
A7A0
A7E0
A240
E7E0
8140
0180
0E70
ENDCHAR

STARTCHAR 8BE5
ENCODING 47299
SWIDTH 1000 0
DWIDTH 14 0
BBX 12 12 1 -1
BITMAP
0100
6100
2FF0
0200
E440
2480
23A0
2120
2640
34C0
2320
0E10
ENDCHAR

STARTCHAR 6539
ENCODING 47300
SWIDTH 1000 0
DWIDTH 14 0
BBX 12 12 1 -1
BITMAP
0100
7900
0BF0
0A40
0E40
6640
4240
4180
4180
7180
C660
0C30
ENDCHAR

STARTCHAR 6982
ENCODING 47301
SWIDTH 1000 0
DWIDTH 14 0
BBX 12 12 1 -1
BITMAP
4000
4E60
4A40
EE40
4B40
6AF0
E840
C8C0
4AC0
4EC0
5940
4230
ENDCHAR

STARTCHAR 9499
ENCODING 47302
SWIDTH 1000 0
DWIDTH 14 0
BBX 12 12 1 -1
BITMAP
2000
27F0
7080
8280
F2A0
2280
2280
FBE0
2020
2820
3020
20E0
ENDCHAR

STARTCHAR 76D6
ENCODING 47303
SWIDTH 1000 0
DWIDTH 14 0
BBX 12 12 1 -1
BITMAP
1980
0100
7FE0
0400
3FC0
0000
FFF0
0000
7FC0
4940
4940
FFF0
ENDCHAR

STARTCHAR 6E89
ENCODING 47304
SWIDTH 1000 0
DWIDTH 14 0
BBX 12 12 1 -1
BITMAP
0010
7CE0
1440
1D40
D540
55F0
10C0
54C0
56C0
9940
8350
8630
ENDCHAR

STARTCHAR 5E72
ENCODING 47305
SWIDTH 1000 0
DWIDTH 14 0
BBX 12 12 1 -1
BITMAP
0020
3FC0
0200
0200
0200
FFF0
0200
0200
0200
0200
0200
0600
ENDCHAR

STARTCHAR 7518
ENCODING 47306
SWIDTH 1000 0
DWIDTH 14 0
BBX 12 12 1 -1
BITMAP
1040
1040
1040
FFF0
1040
1040
1040
1F40
1040
1040
1FC0
1040
ENDCHAR

STARTCHAR 6746
ENCODING 47307
SWIDTH 1000 0
DWIDTH 14 0
BBX 12 12 1 -1
BITMAP
2000
27F0
2080
F880
2080
67F0
6880
A880
A080
2080
2080
2080
ENDCHAR

STARTCHAR 67D1
ENCODING 47308
SWIDTH 1000 0
DWIDTH 14 0
BBX 12 12 1 -1
BITMAP
2220
2220
2220
F7F0
2220
7220
73E0
A220
A220
2220
23E0
2220
ENDCHAR

STARTCHAR 7AFF
ENCODING 47309
SWIDTH 1000 0
DWIDTH 14 0
BBX 12 12 1 -1
BITMAP
2080
7DF0
5120
8A20
0000
3FE0
0400
0400
FFF0
0400
0400
0400
ENDCHAR

STARTCHAR 809D
ENCODING 47310
SWIDTH 1000 0
DWIDTH 14 0
BBX 12 11 1 -1
BITMAP
7BF0
8880
8880
A880
8880
8FF0
A880
8880
8880
8880
9080
ENDCHAR

STARTCHAR 8D76
ENCODING 47311
SWIDTH 1000 0
DWIDTH 14 0
BBX 12 12 1 -1
BITMAP
1000
13F0
FC40
1040
1040
FFF0
1040
5C40
5040
F040
B000
8FF0
ENDCHAR

STARTCHAR 611F
ENCODING 47312
SWIDTH 1000 0
DWIDTH 14 0
BBX 12 12 1 -1
BITMAP
0140
7FF0
4100
5D20
4140
5CC0
6480
DDD0
8130
1220
50A0
5F80
ENDCHAR

STARTCHAR 79C6
ENCODING 47313
SWIDTH 1000 0
DWIDTH 14 0
BBX 12 12 1 -1
BITMAP
0800
F3F0
2080
2080
F880
2080
27F0
6880
E880
A080
2080
2080
ENDCHAR

STARTCHAR 6562
ENCODING 47314
SWIDTH 1000 0
DWIDTH 14 0
BBX 12 12 1 -1
BITMAP
7880
0880
0900
7FF0
4B20
7B20
4B20
78C0
48C0
7CC0
89E0
0B30
ENDCHAR

STARTCHAR 8D63
ENCODING 47315
SWIDTH 1000 0
DWIDTH 14 0
BBX 12 12 1 -1
BITMAP
2100
F9E0
5340
F8E0
0300
F8C0
8FF0
A800
FAE0
22A0
7080
2730
ENDCHAR

STARTCHAR 5188
ENCODING 47316
SWIDTH 1000 0
DWIDTH 14 0
BBX 10 11 2 -1
BITMAP
FFC0
8040
8140
9240
8E40
8440
8A40
B140
8040
8040
80C0
ENDCHAR

STARTCHAR 521A
ENCODING 47317
SWIDTH 1000 0
DWIDTH 14 0
BBX 11 12 1 -1
BITMAP
FE20
8220
82A0
AAA0
AAA0
92A0
9AA0
AAA0
A2A0
8220
8220
8460
ENDCHAR

STARTCHAR 94A2
ENCODING 47318
SWIDTH 1000 0
DWIDTH 14 0
BBX 12 12 1 -1
BITMAP
2000
47F0
7C10
8550
F550
2490
AC90
7550
2550
3C10
3410
0420
ENDCHAR

STARTCHAR 7F38
ENCODING 47319
SWIDTH 1000 0
DWIDTH 14 0
BBX 12 12 1 -1
BITMAP
2000
4000
7DF0
D080
1080
FC80
1080
5480
5480
5480
7FF0
0400
ENDCHAR

STARTCHAR 809B
ENCODING 47320
SWIDTH 1000 0
DWIDTH 14 0
BBX 12 11 1 -1
BITMAP
7BF0
4880
7880
4880
4880
7880
4880
4880
8880
8FF0
9000
ENDCHAR

STARTCHAR 7EB2
ENCODING 47321
SWIDTH 1000 0
DWIDTH 14 0
BBX 12 11 1 -1
BITMAP
45F0
4410
9550
B550
6490
4490
FD50
0550
0410
F410
0420
ENDCHAR

STARTCHAR 5C97
ENCODING 47322
SWIDTH 1000 0
DWIDTH 14 0
BBX 10 12 2 -1
BITMAP
8400
8440
FFC0
0000
FFC0
8040
9340
8E40
8E40
9340
A040
81C0
ENDCHAR

STARTCHAR 6E2F
ENCODING 47323
SWIDTH 1000 0
DWIDTH 14 0
BBX 12 12 1 -1
BITMAP
0480
5480
0FC0
0480
9FF0
4480
0840
17B0
4480
4780
8420
87E0
ENDCHAR

STARTCHAR 6760
ENCODING 47324
SWIDTH 1000 0
DWIDTH 14 0
BBX 12 12 1 -1
BITMAP
2000
27F0
2080
F880
2080
6080
6880
A880
A080
2080
2FF0
2000
ENDCHAR

ENDFONT
